G04 #@! TF.GenerationSoftware,KiCad,Pcbnew,5.1.9*
G04 #@! TF.CreationDate,2021-03-03T13:13:51+01:00*
G04 #@! TF.ProjectId,board_sierra,626f6172-645f-4736-9965-7272612e6b69,v1.1*
G04 #@! TF.SameCoordinates,PX1903cf0PY6c69e80*
G04 #@! TF.FileFunction,Other,User*
%FSLAX46Y46*%
G04 Gerber Fmt 4.6, Leading zero omitted, Abs format (unit mm)*
G04 Created by KiCad (PCBNEW 5.1.9) date 2021-03-03 13:13:51*
%MOMM*%
%LPD*%
G01*
G04 APERTURE LIST*
G04 #@! TA.AperFunction,Profile*
%ADD10C,0.100000*%
G04 #@! TD*
%ADD11C,0.050000*%
G04 APERTURE END LIST*
D10*
X50355500Y88900000D02*
G75*
G03*
X51308000Y89852500I0J952500D01*
G01*
X31940500Y88900000D02*
X50355500Y88900000D01*
X52260500Y90805000D02*
X84137500Y90805000D01*
X30988000Y89852500D02*
G75*
G03*
X30035500Y90805000I-952500J0D01*
G01*
X30988000Y89852500D02*
G75*
G03*
X31940500Y88900000I952500J0D01*
G01*
X-4127500Y90805000D02*
X30035500Y90805000D01*
X52260500Y90805000D02*
G75*
G03*
X51308000Y89852500I0J-952500D01*
G01*
X52260500Y-5080000D02*
X84137500Y-5080000D01*
X31940500Y-3175000D02*
X50355500Y-3175000D01*
X-4127500Y-5080000D02*
X30035500Y-5080000D01*
X52260500Y-5080000D02*
G75*
G02*
X51308000Y-4127500I0J952500D01*
G01*
X50355500Y-3175000D02*
G75*
G02*
X51308000Y-4127500I0J-952500D01*
G01*
X30988000Y-4127500D02*
G75*
G02*
X31940500Y-3175000I952500J0D01*
G01*
X30988000Y-4127500D02*
G75*
G02*
X30035500Y-5080000I-952500J0D01*
G01*
X84137500Y53009800D02*
G75*
G03*
X83185000Y52057300I0J-952500D01*
G01*
X85090000Y89852500D02*
X85090000Y53962300D01*
X83185000Y52057300D02*
X83185000Y33667700D01*
X85090000Y31762700D02*
X85090000Y-4127500D01*
X83185000Y33667700D02*
G75*
G03*
X84137500Y32715200I952500J0D01*
G01*
X85090000Y31762700D02*
G75*
G03*
X84137500Y32715200I-952500J0D01*
G01*
X84137500Y53009800D02*
G75*
G03*
X85090000Y53962300I0J952500D01*
G01*
X85090000Y-4127500D02*
G75*
G02*
X84137500Y-5080000I-952500J0D01*
G01*
X84137500Y90805000D02*
G75*
G02*
X85090000Y89852500I0J-952500D01*
G01*
X-5080000Y31762700D02*
X-5080000Y-4127500D01*
X-5080000Y89852500D02*
X-5080000Y53962300D01*
X-5080000Y89852500D02*
G75*
G02*
X-4127500Y90805000I952500J0D01*
G01*
X-3175000Y52057300D02*
X-3175000Y33667700D01*
X-4127500Y53009800D02*
G75*
G02*
X-5080000Y53962300I0J952500D01*
G01*
X-4127500Y53009800D02*
G75*
G02*
X-3175000Y52057300I0J-952500D01*
G01*
X-3175000Y33667700D02*
G75*
G02*
X-4127500Y32715200I-952500J0D01*
G01*
X-5080000Y31762700D02*
G75*
G02*
X-4127500Y32715200I952500J0D01*
G01*
X-4127500Y-5080000D02*
G75*
G02*
X-5080000Y-4127500I0J952500D01*
G01*
D11*
G04 #@! TO.C,RH1*
X17436000Y52600000D02*
G75*
G03*
X17436000Y52600000I-1100000J0D01*
G01*
G04 #@! TO.C,L1*
X28650000Y40975000D02*
X25750000Y40975000D01*
X25750000Y42425000D02*
X25750000Y40975000D01*
X28650000Y40975000D02*
X28650000Y42425000D01*
X25750000Y42425000D02*
X28650000Y42425000D01*
G04 #@! TO.C,H2*
X6865000Y87430000D02*
X74415000Y87430000D01*
X6865000Y87430000D02*
X6865000Y81480000D01*
X74415000Y81480000D02*
X6865000Y81480000D01*
X74415000Y81480000D02*
X74415000Y87430000D01*
G04 #@! TO.C,H1*
X6865000Y82350000D02*
X74415000Y82350000D01*
X6865000Y82350000D02*
X6865000Y76400000D01*
X74415000Y76400000D02*
X6865000Y76400000D01*
X74415000Y76400000D02*
X74415000Y82350000D01*
G04 #@! TO.C,UA5*
X46355000Y30480000D02*
X46355000Y73660000D01*
X-1905000Y30480000D02*
X46355000Y30480000D01*
X-1905000Y4445000D02*
X-1905000Y30480000D01*
X5080000Y4445000D02*
X-1905000Y4445000D01*
X5080000Y0D02*
X5080000Y4445000D01*
X74930000Y0D02*
X5080000Y0D01*
X74930000Y4445000D02*
X74930000Y0D01*
X81915000Y4445000D02*
X74930000Y4445000D01*
X81915000Y73660000D02*
X81915000Y4445000D01*
X46355000Y73660000D02*
X81915000Y73660000D01*
G04 #@! TO.C,C57*
X28646000Y34423000D02*
X28646000Y38983000D01*
X31806000Y34423000D02*
X28646000Y34423000D01*
X31806000Y38983000D02*
X31806000Y34423000D01*
X28646000Y38983000D02*
X31806000Y38983000D01*
G04 #@! TO.C,C56*
X28646000Y44075000D02*
X28646000Y48635000D01*
X31806000Y44075000D02*
X28646000Y44075000D01*
X31806000Y48635000D02*
X31806000Y44075000D01*
X28646000Y48635000D02*
X31806000Y48635000D01*
G04 #@! TO.C,R53*
X36126000Y56703000D02*
X36126000Y54803000D01*
X36126000Y54803000D02*
X37026000Y54803000D01*
X36126000Y56703000D02*
X37026000Y56703000D01*
X37026000Y56703000D02*
X37026000Y54803000D01*
G04 #@! TO.C,U1*
X25486000Y65808000D02*
X16336000Y65808000D01*
X25486000Y64408000D02*
X25486000Y65808000D01*
X26586000Y64408000D02*
X25486000Y64408000D01*
X26586000Y63308000D02*
X26586000Y64408000D01*
X27986000Y63308000D02*
X26586000Y63308000D01*
X27986000Y54158000D02*
X27986000Y63308000D01*
X25486000Y42508000D02*
X16336000Y42508000D01*
X25486000Y43908000D02*
X25486000Y42508000D01*
X26586000Y43908000D02*
X25486000Y43908000D01*
X26586000Y45008000D02*
X26586000Y43908000D01*
X27986000Y45008000D02*
X26586000Y45008000D01*
X27986000Y54158000D02*
X27986000Y45008000D01*
X7186000Y65808000D02*
X16336000Y65808000D01*
X7186000Y64408000D02*
X7186000Y65808000D01*
X6086000Y64408000D02*
X7186000Y64408000D01*
X6086000Y63308000D02*
X6086000Y64408000D01*
X4686000Y63308000D02*
X6086000Y63308000D01*
X4686000Y54158000D02*
X4686000Y63308000D01*
X7186000Y42508000D02*
X16336000Y42508000D01*
X7186000Y43908000D02*
X7186000Y42508000D01*
X6086000Y43908000D02*
X7186000Y43908000D01*
X6086000Y45008000D02*
X6086000Y43908000D01*
X4686000Y45008000D02*
X6086000Y45008000D01*
X4686000Y54158000D02*
X4686000Y45008000D01*
G04 #@! TO.C,C34*
X6730000Y72360000D02*
X8630000Y72360000D01*
X6730000Y71460000D02*
X6730000Y72360000D01*
X8630000Y71460000D02*
X8630000Y72360000D01*
X6730000Y71460000D02*
X8630000Y71460000D01*
G04 #@! TO.C,C59*
X36110000Y60010000D02*
X36110000Y61910000D01*
X37010000Y60010000D02*
X36110000Y60010000D01*
X37010000Y61910000D02*
X36110000Y61910000D01*
X37010000Y60010000D02*
X37010000Y61910000D01*
G04 #@! TO.C,C68*
X-3110000Y59900000D02*
X-3110000Y58000000D01*
X-4010000Y59900000D02*
X-3110000Y59900000D01*
X-4010000Y58000000D02*
X-3110000Y58000000D01*
X-4010000Y59900000D02*
X-4010000Y58000000D01*
G04 #@! TO.C,C63*
X33360000Y58050000D02*
X35260000Y58050000D01*
X33360000Y57150000D02*
X33360000Y58050000D01*
X35260000Y57150000D02*
X35260000Y58050000D01*
X33360000Y57150000D02*
X35260000Y57150000D01*
G04 #@! TO.C,C62*
X-2260000Y54000000D02*
X-360000Y54000000D01*
X-2260000Y53100000D02*
X-2260000Y54000000D01*
X-360000Y53100000D02*
X-360000Y54000000D01*
X-2260000Y53100000D02*
X-360000Y53100000D01*
G04 #@! TO.C,C66*
X35240000Y46710000D02*
X37140000Y46710000D01*
X35240000Y45810000D02*
X35240000Y46710000D01*
X37140000Y45810000D02*
X37140000Y46710000D01*
X35240000Y45810000D02*
X37140000Y45810000D01*
G04 #@! TO.C,C70*
X38595000Y48120000D02*
X38595000Y45220000D01*
X37145000Y45220000D02*
X38595000Y45220000D01*
X38595000Y48120000D02*
X37145000Y48120000D01*
X37145000Y45220000D02*
X37145000Y48120000D01*
G04 #@! TO.C,C71*
X38595000Y38355000D02*
X38595000Y35455000D01*
X37145000Y35455000D02*
X38595000Y35455000D01*
X38595000Y38355000D02*
X37145000Y38355000D01*
X37145000Y35455000D02*
X37145000Y38355000D01*
G04 #@! TO.C,R70*
X-4010000Y55900000D02*
X-4010000Y54000000D01*
X-4010000Y54000000D02*
X-3110000Y54000000D01*
X-4010000Y55900000D02*
X-3110000Y55900000D01*
X-3110000Y55900000D02*
X-3110000Y54000000D01*
G04 #@! TO.C,R69*
X490000Y55900000D02*
X490000Y54000000D01*
X490000Y54000000D02*
X1390000Y54000000D01*
X490000Y55900000D02*
X1390000Y55900000D01*
X1390000Y55900000D02*
X1390000Y54000000D01*
G04 #@! TO.C,U3*
X32560000Y58110000D02*
X36060000Y58110000D01*
X32560000Y62010000D02*
X32560000Y58110000D01*
X36060000Y62010000D02*
X36060000Y58110000D01*
X32560000Y62010000D02*
X36060000Y62010000D01*
G04 #@! TO.C,M1*
X-2339000Y40842000D02*
X6911000Y40842000D01*
X6911000Y40842000D02*
X6911000Y34342000D01*
X6911000Y34342000D02*
X-2339000Y34342000D01*
X-2339000Y34342000D02*
X-2339000Y40842000D01*
G04 #@! TO.C,M3*
X18743000Y40842000D02*
X27993000Y40842000D01*
X27993000Y40842000D02*
X27993000Y34342000D01*
X27993000Y34342000D02*
X18743000Y34342000D01*
X18743000Y34342000D02*
X18743000Y40842000D01*
G04 #@! TO.C,M2*
X8202000Y40842000D02*
X17452000Y40842000D01*
X17452000Y40842000D02*
X17452000Y34342000D01*
X17452000Y34342000D02*
X8202000Y34342000D01*
X8202000Y34342000D02*
X8202000Y40842000D01*
G04 #@! TO.C,U2*
X-3060000Y54050000D02*
X440000Y54050000D01*
X-3060000Y57950000D02*
X-3060000Y54050000D01*
X440000Y57950000D02*
X440000Y54050000D01*
X-3060000Y57950000D02*
X440000Y57950000D01*
G04 #@! TO.C,EF2*
X36240000Y38580000D02*
X32340000Y38580000D01*
X32340000Y38580000D02*
X32340000Y43480000D01*
X36240000Y43480000D02*
X36240000Y38580000D01*
X32340000Y43480000D02*
X36240000Y43480000D01*
G04 #@! TO.C,MH1*
X7260000Y85725000D02*
G75*
G03*
X7260000Y85725000I-3450000J0D01*
G01*
G04 #@! TO.C,MH4*
X83460000Y0D02*
G75*
G03*
X83460000Y0I-3450000J0D01*
G01*
G04 #@! TO.C,MH3*
X3450000Y0D02*
G75*
G03*
X3450000Y0I-3450000J0D01*
G01*
G04 #@! TO.C,MH2*
X80920000Y85725000D02*
G75*
G03*
X80920000Y85725000I-3450000J0D01*
G01*
G04 #@! TO.C,JC1*
X3435000Y50165000D02*
X3435000Y43655000D01*
X3435000Y43655000D02*
X-2315000Y43655000D01*
X-2315000Y50165000D02*
X3435000Y50165000D01*
X-2315000Y43655000D02*
X-2315000Y50165000D01*
G04 #@! TO.C,C64*
X-860000Y59900000D02*
X-860000Y58000000D01*
X-1760000Y59900000D02*
X-860000Y59900000D01*
X-1760000Y58000000D02*
X-860000Y58000000D01*
X-1760000Y59900000D02*
X-1760000Y58000000D01*
G04 #@! TO.C,C18*
X4630000Y53110000D02*
X4630000Y51210000D01*
X3730000Y53110000D02*
X4630000Y53110000D01*
X3730000Y51210000D02*
X4630000Y51210000D01*
X3730000Y53110000D02*
X3730000Y51210000D01*
G04 #@! TO.C,C5*
X4630000Y46610000D02*
X4630000Y44710000D01*
X3730000Y46610000D02*
X4630000Y46610000D01*
X3730000Y44710000D02*
X4630000Y44710000D01*
X3730000Y46610000D02*
X3730000Y44710000D01*
G04 #@! TO.C,C1*
X21880000Y42190000D02*
X23780000Y42190000D01*
X21880000Y41290000D02*
X21880000Y42190000D01*
X23780000Y41290000D02*
X23780000Y42190000D01*
X21880000Y41290000D02*
X23780000Y41290000D01*
G04 #@! TO.C,R68*
X32290000Y40070000D02*
X30390000Y40070000D01*
X30390000Y40070000D02*
X30390000Y39170000D01*
X32290000Y40070000D02*
X32290000Y39170000D01*
X32290000Y39170000D02*
X30390000Y39170000D01*
G04 #@! TO.C,R15*
X-3870000Y80760000D02*
X-3870000Y78860000D01*
X-3870000Y78860000D02*
X-2970000Y78860000D01*
X-3870000Y80760000D02*
X-2970000Y80760000D01*
X-2970000Y80760000D02*
X-2970000Y78860000D01*
G04 #@! TO.C,C25*
X-3440000Y78710000D02*
X-1540000Y78710000D01*
X-3440000Y77810000D02*
X-3440000Y78710000D01*
X-1540000Y77810000D02*
X-1540000Y78710000D01*
X-3440000Y77810000D02*
X-1540000Y77810000D01*
G04 #@! TO.C,AS6*
X-2970000Y81310000D02*
X-2970000Y78710000D01*
X430000Y81310000D02*
X-2970000Y81310000D01*
X430000Y81310000D02*
X430000Y78710000D01*
X430000Y78710000D02*
X-2970000Y78710000D01*
G04 #@! TO.C,AS12*
X17350000Y74960000D02*
X17350000Y72360000D01*
X20750000Y74960000D02*
X17350000Y74960000D01*
X20750000Y74960000D02*
X20750000Y72360000D01*
X20750000Y72360000D02*
X17350000Y72360000D01*
G04 #@! TO.C,R16*
X26610000Y74610000D02*
X26610000Y72710000D01*
X26610000Y72710000D02*
X27510000Y72710000D01*
X26610000Y74610000D02*
X27510000Y74610000D01*
X27510000Y74610000D02*
X27510000Y72710000D01*
G04 #@! TO.C,R3*
X3540000Y71460000D02*
X5440000Y71460000D01*
X5440000Y71460000D02*
X5440000Y72360000D01*
X3540000Y71460000D02*
X3540000Y72360000D01*
X3540000Y72360000D02*
X5440000Y72360000D01*
G04 #@! TO.C,C3*
X1640000Y72360000D02*
X3540000Y72360000D01*
X1640000Y71460000D02*
X1640000Y72360000D01*
X3540000Y71460000D02*
X3540000Y72360000D01*
X1640000Y71460000D02*
X3540000Y71460000D01*
G04 #@! TO.C,C30*
X21960000Y72360000D02*
X23860000Y72360000D01*
X21960000Y71460000D02*
X21960000Y72360000D01*
X23860000Y71460000D02*
X23860000Y72360000D01*
X21960000Y71460000D02*
X23860000Y71460000D01*
G04 #@! TO.C,AS10*
X7190000Y74960000D02*
X7190000Y72360000D01*
X10590000Y74960000D02*
X7190000Y74960000D01*
X10590000Y74960000D02*
X10590000Y72360000D01*
X10590000Y72360000D02*
X7190000Y72360000D01*
G04 #@! TO.C,R25*
X6290000Y74610000D02*
X6290000Y72710000D01*
X6290000Y72710000D02*
X7190000Y72710000D01*
X6290000Y74610000D02*
X7190000Y74610000D01*
X7190000Y74610000D02*
X7190000Y72710000D01*
G04 #@! TO.C,R48*
X11370000Y74610000D02*
X11370000Y72710000D01*
X11370000Y72710000D02*
X12270000Y72710000D01*
X11370000Y74610000D02*
X12270000Y74610000D01*
X12270000Y74610000D02*
X12270000Y72710000D01*
G04 #@! TO.C,C53*
X11800000Y72360000D02*
X13700000Y72360000D01*
X11800000Y71460000D02*
X11800000Y72360000D01*
X13700000Y71460000D02*
X13700000Y72360000D01*
X11800000Y71460000D02*
X13700000Y71460000D01*
G04 #@! TO.C,R72*
X31610000Y59960000D02*
X31610000Y58060000D01*
X31610000Y58060000D02*
X32510000Y58060000D01*
X31610000Y59960000D02*
X32510000Y59960000D01*
X32510000Y59960000D02*
X32510000Y58060000D01*
G04 #@! TO.C,R71*
X36110000Y59960000D02*
X36110000Y58060000D01*
X36110000Y58060000D02*
X37010000Y58060000D01*
X36110000Y59960000D02*
X37010000Y59960000D01*
X37010000Y59960000D02*
X37010000Y58060000D01*
G04 #@! TO.C,EF1*
X36240000Y48220000D02*
X32340000Y48220000D01*
X32340000Y48220000D02*
X32340000Y53120000D01*
X36240000Y53120000D02*
X36240000Y48220000D01*
X32340000Y53120000D02*
X36240000Y53120000D01*
G04 #@! TO.C,Q2*
X32340000Y48040000D02*
X35240000Y48040000D01*
X35240000Y48040000D02*
X35240000Y45540000D01*
X35240000Y45540000D02*
X32340000Y45540000D01*
X32340000Y45540000D02*
X32340000Y48040000D01*
G04 #@! TO.C,R67*
X32290000Y49700000D02*
X30390000Y49700000D01*
X30390000Y49700000D02*
X30390000Y48800000D01*
X32290000Y49700000D02*
X32290000Y48800000D01*
X32290000Y48800000D02*
X30390000Y48800000D01*
G04 #@! TO.C,R62*
X30390000Y42030000D02*
X32290000Y42030000D01*
X32290000Y42030000D02*
X32290000Y42930000D01*
X30390000Y42030000D02*
X30390000Y42930000D01*
X30390000Y42930000D02*
X32290000Y42930000D01*
G04 #@! TO.C,R60*
X38190000Y43880000D02*
X36290000Y43880000D01*
X36290000Y43880000D02*
X36290000Y42980000D01*
X38190000Y43880000D02*
X38190000Y42980000D01*
X38190000Y42980000D02*
X36290000Y42980000D01*
G04 #@! TO.C,D1*
X670000Y62370000D02*
X670000Y64270000D01*
X670000Y64270000D02*
X-230000Y64270000D01*
X670000Y62370000D02*
X-230000Y62370000D01*
X-230000Y62370000D02*
X-230000Y64270000D01*
G04 #@! TO.C,D3*
X34224000Y35780000D02*
X32324000Y35780000D01*
X32324000Y35780000D02*
X32324000Y34880000D01*
X34224000Y35780000D02*
X34224000Y34880000D01*
X34224000Y34880000D02*
X32324000Y34880000D01*
G04 #@! TO.C,D2*
X34224000Y45420700D02*
X32324000Y45420700D01*
X32324000Y45420700D02*
X32324000Y44520700D01*
X34224000Y45420700D02*
X34224000Y44520700D01*
X34224000Y44520700D02*
X32324000Y44520700D01*
G04 #@! TO.C,C28*
X-2560000Y65220000D02*
X-660000Y65220000D01*
X-2560000Y64320000D02*
X-2560000Y65220000D01*
X-660000Y64320000D02*
X-660000Y65220000D01*
X-2560000Y64320000D02*
X-660000Y64320000D01*
G04 #@! TO.C,C27*
X670000Y62180000D02*
X670000Y60280000D01*
X-230000Y62180000D02*
X670000Y62180000D01*
X-230000Y60280000D02*
X670000Y60280000D01*
X-230000Y62180000D02*
X-230000Y60280000D01*
G04 #@! TO.C,C67*
X35240000Y37080000D02*
X37140000Y37080000D01*
X35240000Y36180000D02*
X35240000Y37080000D01*
X37140000Y36180000D02*
X37140000Y37080000D01*
X35240000Y36180000D02*
X37140000Y36180000D01*
G04 #@! TO.C,C61*
X34356000Y35780000D02*
X36256000Y35780000D01*
X34356000Y34880000D02*
X34356000Y35780000D01*
X36256000Y34880000D02*
X36256000Y35780000D01*
X34356000Y34880000D02*
X36256000Y34880000D01*
G04 #@! TO.C,C60*
X34356000Y45420700D02*
X36256000Y45420700D01*
X34356000Y44520700D02*
X34356000Y45420700D01*
X36256000Y44520700D02*
X36256000Y45420700D01*
X34356000Y44520700D02*
X36256000Y44520700D01*
G04 #@! TO.C,C52*
X32290000Y42980000D02*
X30390000Y42980000D01*
X32290000Y43880000D02*
X32290000Y42980000D01*
X30390000Y43880000D02*
X30390000Y42980000D01*
X32290000Y43880000D02*
X30390000Y43880000D01*
G04 #@! TO.C,C51*
X32290000Y52610000D02*
X30390000Y52610000D01*
X32290000Y53510000D02*
X32290000Y52610000D01*
X30390000Y53510000D02*
X30390000Y52610000D01*
X32290000Y53510000D02*
X30390000Y53510000D01*
G04 #@! TO.C,R80*
X35940000Y62060000D02*
X35940000Y63960000D01*
X35940000Y63960000D02*
X35040000Y63960000D01*
X35940000Y62060000D02*
X35040000Y62060000D01*
X35040000Y62060000D02*
X35040000Y63960000D01*
G04 #@! TO.C,R79*
X320000Y58000000D02*
X320000Y59900000D01*
X320000Y59900000D02*
X-580000Y59900000D01*
X320000Y58000000D02*
X-580000Y58000000D01*
X-580000Y58000000D02*
X-580000Y59900000D01*
G04 #@! TO.C,R78*
X33570000Y62060000D02*
X33570000Y63960000D01*
X33570000Y63960000D02*
X32670000Y63960000D01*
X33570000Y62060000D02*
X32670000Y62060000D01*
X32670000Y62060000D02*
X32670000Y63960000D01*
G04 #@! TO.C,R77*
X-2050000Y58000000D02*
X-2050000Y59900000D01*
X-2050000Y59900000D02*
X-2950000Y59900000D01*
X-2050000Y58000000D02*
X-2950000Y58000000D01*
X-2950000Y58000000D02*
X-2950000Y59900000D01*
G04 #@! TO.C,R74*
X31610000Y61910000D02*
X31610000Y60010000D01*
X31610000Y60010000D02*
X32510000Y60010000D01*
X31610000Y61910000D02*
X32510000Y61910000D01*
X32510000Y61910000D02*
X32510000Y60010000D01*
G04 #@! TO.C,R73*
X-4010000Y57850000D02*
X-4010000Y55950000D01*
X-4010000Y55950000D02*
X-3110000Y55950000D01*
X-4010000Y57850000D02*
X-3110000Y57850000D01*
X-3110000Y57850000D02*
X-3110000Y55950000D01*
G04 #@! TO.C,R22*
X-2690000Y60170000D02*
X-790000Y60170000D01*
X-790000Y60170000D02*
X-790000Y61070000D01*
X-2690000Y60170000D02*
X-2690000Y61070000D01*
X-2690000Y61070000D02*
X-790000Y61070000D01*
G04 #@! TO.C,R33*
X16450000Y74610000D02*
X16450000Y72710000D01*
X16450000Y72710000D02*
X17350000Y72710000D01*
X16450000Y74610000D02*
X17350000Y74610000D01*
X17350000Y74610000D02*
X17350000Y72710000D01*
G04 #@! TO.C,R76*
X31550000Y56703000D02*
X31550000Y54803000D01*
X31550000Y54803000D02*
X32450000Y54803000D01*
X31550000Y56703000D02*
X32450000Y56703000D01*
X32450000Y56703000D02*
X32450000Y54803000D01*
G04 #@! TO.C,R17*
X21530000Y74610000D02*
X21530000Y72710000D01*
X21530000Y72710000D02*
X22430000Y72710000D01*
X21530000Y74610000D02*
X22430000Y74610000D01*
X22430000Y74610000D02*
X22430000Y72710000D01*
G04 #@! TO.C,R1*
X2110000Y72510000D02*
X2110000Y74410000D01*
X2110000Y74410000D02*
X1210000Y74410000D01*
X2110000Y72510000D02*
X1210000Y72510000D01*
X1210000Y72510000D02*
X1210000Y74410000D01*
G04 #@! TO.C,R66*
X32290000Y41870000D02*
X30390000Y41870000D01*
X30390000Y41870000D02*
X30390000Y40970000D01*
X32290000Y41870000D02*
X32290000Y40970000D01*
X32290000Y40970000D02*
X30390000Y40970000D01*
G04 #@! TO.C,R65*
X32290000Y40970000D02*
X30390000Y40970000D01*
X30390000Y40970000D02*
X30390000Y40070000D01*
X32290000Y40970000D02*
X32290000Y40070000D01*
X32290000Y40070000D02*
X30390000Y40070000D01*
G04 #@! TO.C,R64*
X32290000Y51500000D02*
X30390000Y51500000D01*
X30390000Y51500000D02*
X30390000Y50600000D01*
X32290000Y51500000D02*
X32290000Y50600000D01*
X32290000Y50600000D02*
X30390000Y50600000D01*
G04 #@! TO.C,R63*
X32290000Y50600000D02*
X30390000Y50600000D01*
X30390000Y50600000D02*
X30390000Y49700000D01*
X32290000Y50600000D02*
X32290000Y49700000D01*
X32290000Y49700000D02*
X30390000Y49700000D01*
G04 #@! TO.C,R61*
X30390000Y51660000D02*
X32290000Y51660000D01*
X32290000Y51660000D02*
X32290000Y52560000D01*
X30390000Y51660000D02*
X30390000Y52560000D01*
X30390000Y52560000D02*
X32290000Y52560000D01*
G04 #@! TO.C,R59*
X38190000Y53510000D02*
X36290000Y53510000D01*
X36290000Y53510000D02*
X36290000Y52610000D01*
X38190000Y53510000D02*
X38190000Y52610000D01*
X38190000Y52610000D02*
X36290000Y52610000D01*
G04 #@! TO.C,R56*
X36290000Y42030000D02*
X38190000Y42030000D01*
X38190000Y42030000D02*
X38190000Y42930000D01*
X36290000Y42030000D02*
X36290000Y42930000D01*
X36290000Y42930000D02*
X38190000Y42930000D01*
G04 #@! TO.C,R55*
X38190000Y41980000D02*
X36290000Y41980000D01*
X36290000Y41980000D02*
X36290000Y41080000D01*
X38190000Y41980000D02*
X38190000Y41080000D01*
X38190000Y41080000D02*
X36290000Y41080000D01*
G04 #@! TO.C,R54*
X36290000Y40020000D02*
X38190000Y40020000D01*
X38190000Y40020000D02*
X38190000Y40920000D01*
X36290000Y40020000D02*
X36290000Y40920000D01*
X36290000Y40920000D02*
X38190000Y40920000D01*
G04 #@! TO.C,R52*
X36290000Y51660000D02*
X38190000Y51660000D01*
X38190000Y51660000D02*
X38190000Y52560000D01*
X36290000Y51660000D02*
X36290000Y52560000D01*
X36290000Y52560000D02*
X38190000Y52560000D01*
G04 #@! TO.C,R51*
X38190000Y51610000D02*
X36290000Y51610000D01*
X36290000Y51610000D02*
X36290000Y50710000D01*
X38190000Y51610000D02*
X38190000Y50710000D01*
X38190000Y50710000D02*
X36290000Y50710000D01*
G04 #@! TO.C,R50*
X36290000Y49650000D02*
X38190000Y49650000D01*
X38190000Y49650000D02*
X38190000Y50550000D01*
X36290000Y49650000D02*
X36290000Y50550000D01*
X36290000Y50550000D02*
X38190000Y50550000D01*
G04 #@! TO.C,R14*
X-3870000Y74410000D02*
X-3870000Y72510000D01*
X-3870000Y72510000D02*
X-2970000Y72510000D01*
X-3870000Y74410000D02*
X-2970000Y74410000D01*
X-2970000Y74410000D02*
X-2970000Y72510000D01*
G04 #@! TO.C,R19*
X30910000Y73910000D02*
X30910000Y72010000D01*
X30910000Y72010000D02*
X31810000Y72010000D01*
X30910000Y73910000D02*
X31810000Y73910000D01*
X31810000Y73910000D02*
X31810000Y72010000D01*
G04 #@! TO.C,Q1*
X-2860000Y61180000D02*
X-2860000Y64080000D01*
X-2860000Y64080000D02*
X-360000Y64080000D01*
X-360000Y64080000D02*
X-360000Y61180000D01*
X-360000Y61180000D02*
X-2860000Y61180000D01*
G04 #@! TO.C,Q3*
X32340000Y38400000D02*
X35240000Y38400000D01*
X35240000Y38400000D02*
X35240000Y35900000D01*
X35240000Y35900000D02*
X32340000Y35900000D01*
X32340000Y35900000D02*
X32340000Y38400000D01*
G04 #@! TO.C,LG1*
X35590000Y56360000D02*
X35590000Y53760000D01*
X32990000Y53760000D02*
X32990000Y56360000D01*
X32990000Y56360000D02*
X35590000Y56360000D01*
X35590000Y53760000D02*
X32990000Y53760000D01*
G04 #@! TO.C,FB1*
X28150000Y43550000D02*
X26250000Y43550000D01*
X26250000Y43550000D02*
X26250000Y42650000D01*
X28150000Y43550000D02*
X28150000Y42650000D01*
X28150000Y42650000D02*
X26250000Y42650000D01*
G04 #@! TO.C,C73*
X37010000Y63960000D02*
X37010000Y62060000D01*
X36110000Y63960000D02*
X37010000Y63960000D01*
X36110000Y62060000D02*
X37010000Y62060000D01*
X36110000Y63960000D02*
X36110000Y62060000D01*
G04 #@! TO.C,C72*
X1390000Y59910000D02*
X1390000Y58010000D01*
X490000Y59910000D02*
X1390000Y59910000D01*
X490000Y58010000D02*
X1390000Y58010000D01*
X490000Y59910000D02*
X490000Y58010000D01*
G04 #@! TO.C,C69*
X32510000Y63960000D02*
X32510000Y62060000D01*
X31610000Y63960000D02*
X32510000Y63960000D01*
X31610000Y62060000D02*
X32510000Y62060000D01*
X31610000Y63960000D02*
X31610000Y62060000D01*
G04 #@! TO.C,C65*
X33860000Y62060000D02*
X33860000Y63960000D01*
X34760000Y62060000D02*
X33860000Y62060000D01*
X34760000Y63960000D02*
X33860000Y63960000D01*
X34760000Y62060000D02*
X34760000Y63960000D01*
G04 #@! TO.C,C58*
X490000Y55950000D02*
X490000Y57850000D01*
X1390000Y55950000D02*
X490000Y55950000D01*
X1390000Y57850000D02*
X490000Y57850000D01*
X1390000Y55950000D02*
X1390000Y57850000D01*
G04 #@! TO.C,C47*
X16890000Y72360000D02*
X18790000Y72360000D01*
X16890000Y71460000D02*
X16890000Y72360000D01*
X18790000Y71460000D02*
X18790000Y72360000D01*
X16890000Y71460000D02*
X18790000Y71460000D01*
G04 #@! TO.C,C24*
X-3440000Y72360000D02*
X-1540000Y72360000D01*
X-3440000Y71460000D02*
X-3440000Y72360000D01*
X-1540000Y71460000D02*
X-1540000Y72360000D01*
X-3440000Y71460000D02*
X-1540000Y71460000D01*
G04 #@! TO.C,C29*
X27050000Y72360000D02*
X28950000Y72360000D01*
X27050000Y71460000D02*
X27050000Y72360000D01*
X28950000Y71460000D02*
X28950000Y72360000D01*
X27050000Y71460000D02*
X28950000Y71460000D01*
G04 #@! TO.C,C14*
X8640000Y42190000D02*
X10540000Y42190000D01*
X8640000Y41290000D02*
X8640000Y42190000D01*
X10540000Y41290000D02*
X10540000Y42190000D01*
X8640000Y41290000D02*
X10540000Y41290000D01*
G04 #@! TO.C,C11*
X28030000Y51710000D02*
X28030000Y53610000D01*
X28930000Y51710000D02*
X28030000Y51710000D01*
X28930000Y53610000D02*
X28030000Y53610000D01*
X28930000Y51710000D02*
X28930000Y53610000D01*
G04 #@! TO.C,C9*
X28040000Y61710000D02*
X28040000Y63610000D01*
X28940000Y61710000D02*
X28040000Y61710000D01*
X28940000Y63610000D02*
X28040000Y63610000D01*
X28940000Y61710000D02*
X28940000Y63610000D01*
G04 #@! TO.C,AS8*
X22430000Y74960000D02*
X22430000Y72360000D01*
X25830000Y74960000D02*
X22430000Y74960000D01*
X25830000Y74960000D02*
X25830000Y72360000D01*
X25830000Y72360000D02*
X22430000Y72360000D01*
G04 #@! TO.C,AS1*
X2110000Y74960000D02*
X2110000Y72360000D01*
X5510000Y74960000D02*
X2110000Y74960000D01*
X5510000Y74960000D02*
X5510000Y72360000D01*
X5510000Y72360000D02*
X2110000Y72360000D01*
G04 #@! TO.C,AS14*
X12270000Y74960000D02*
X12270000Y72360000D01*
X15670000Y74960000D02*
X12270000Y74960000D01*
X15670000Y74960000D02*
X15670000Y72360000D01*
X15670000Y72360000D02*
X12270000Y72360000D01*
G04 #@! TO.C,AS5*
X-2970000Y74960000D02*
X-2970000Y72360000D01*
X430000Y74960000D02*
X-2970000Y74960000D01*
X430000Y74960000D02*
X430000Y72360000D01*
X430000Y72360000D02*
X-2970000Y72360000D01*
G04 #@! TO.C,AS7*
X27510000Y74960000D02*
X27510000Y72360000D01*
X30910000Y74960000D02*
X27510000Y74960000D01*
X30910000Y74960000D02*
X30910000Y72360000D01*
X30910000Y72360000D02*
X27510000Y72360000D01*
G04 #@! TD*
M02*
