G04 #@! TF.GenerationSoftware,KiCad,Pcbnew,5.1.9*
G04 #@! TF.CreationDate,2021-03-03T13:13:51+01:00*
G04 #@! TF.ProjectId,board_sierra,626f6172-645f-4736-9965-7272612e6b69,v1.1*
G04 #@! TF.SameCoordinates,PX1903cf0PY6c69e80*
G04 #@! TF.FileFunction,Other,Fab,Top*
%FSLAX46Y46*%
G04 Gerber Fmt 4.6, Leading zero omitted, Abs format (unit mm)*
G04 Created by KiCad (PCBNEW 5.1.9) date 2021-03-03 13:13:51*
%MOMM*%
%LPD*%
G01*
G04 APERTURE LIST*
G04 #@! TA.AperFunction,Profile*
%ADD10C,0.100000*%
G04 #@! TD*
%ADD11C,0.100000*%
%ADD12C,0.150000*%
%ADD13C,0.062500*%
G04 APERTURE END LIST*
D10*
X50355500Y88900000D02*
G75*
G03*
X51308000Y89852500I0J952500D01*
G01*
X31940500Y88900000D02*
X50355500Y88900000D01*
X52260500Y90805000D02*
X84137500Y90805000D01*
X30988000Y89852500D02*
G75*
G03*
X30035500Y90805000I-952500J0D01*
G01*
X30988000Y89852500D02*
G75*
G03*
X31940500Y88900000I952500J0D01*
G01*
X-4127500Y90805000D02*
X30035500Y90805000D01*
X52260500Y90805000D02*
G75*
G03*
X51308000Y89852500I0J-952500D01*
G01*
X52260500Y-5080000D02*
X84137500Y-5080000D01*
X31940500Y-3175000D02*
X50355500Y-3175000D01*
X-4127500Y-5080000D02*
X30035500Y-5080000D01*
X52260500Y-5080000D02*
G75*
G02*
X51308000Y-4127500I0J952500D01*
G01*
X50355500Y-3175000D02*
G75*
G02*
X51308000Y-4127500I0J-952500D01*
G01*
X30988000Y-4127500D02*
G75*
G02*
X31940500Y-3175000I952500J0D01*
G01*
X30988000Y-4127500D02*
G75*
G02*
X30035500Y-5080000I-952500J0D01*
G01*
X84137500Y53009800D02*
G75*
G03*
X83185000Y52057300I0J-952500D01*
G01*
X85090000Y89852500D02*
X85090000Y53962300D01*
X83185000Y52057300D02*
X83185000Y33667700D01*
X85090000Y31762700D02*
X85090000Y-4127500D01*
X83185000Y33667700D02*
G75*
G03*
X84137500Y32715200I952500J0D01*
G01*
X85090000Y31762700D02*
G75*
G03*
X84137500Y32715200I-952500J0D01*
G01*
X84137500Y53009800D02*
G75*
G03*
X85090000Y53962300I0J952500D01*
G01*
X85090000Y-4127500D02*
G75*
G02*
X84137500Y-5080000I-952500J0D01*
G01*
X84137500Y90805000D02*
G75*
G02*
X85090000Y89852500I0J-952500D01*
G01*
X-5080000Y31762700D02*
X-5080000Y-4127500D01*
X-5080000Y89852500D02*
X-5080000Y53962300D01*
X-5080000Y89852500D02*
G75*
G02*
X-4127500Y90805000I952500J0D01*
G01*
X-3175000Y52057300D02*
X-3175000Y33667700D01*
X-4127500Y53009800D02*
G75*
G02*
X-5080000Y53962300I0J952500D01*
G01*
X-4127500Y53009800D02*
G75*
G02*
X-3175000Y52057300I0J-952500D01*
G01*
X-3175000Y33667700D02*
G75*
G02*
X-4127500Y32715200I-952500J0D01*
G01*
X-5080000Y31762700D02*
G75*
G02*
X-4127500Y32715200I952500J0D01*
G01*
X-4127500Y-5080000D02*
G75*
G02*
X-5080000Y-4127500I0J952500D01*
G01*
D11*
G04 #@! TO.C,L1*
X26450000Y42100000D02*
X26450000Y41300000D01*
X27950000Y42100000D02*
X26450000Y42100000D01*
X27950000Y41300000D02*
X27950000Y42100000D01*
X26450000Y41300000D02*
X27950000Y41300000D01*
G04 #@! TO.C,H2*
X7365000Y81980000D02*
X7365000Y86930000D01*
X7365000Y86930000D02*
X73915000Y86930000D01*
X73915000Y86930000D02*
X73915000Y81980000D01*
X73915000Y81980000D02*
X7365000Y81980000D01*
G04 #@! TO.C,H1*
X7365000Y76900000D02*
X7365000Y81850000D01*
X7365000Y81850000D02*
X73915000Y81850000D01*
X73915000Y81850000D02*
X73915000Y76900000D01*
X73915000Y76900000D02*
X7365000Y76900000D01*
G04 #@! TO.C,C57*
X28976000Y35103000D02*
X28976000Y38303000D01*
X31476000Y35103000D02*
X28976000Y35103000D01*
X31476000Y38303000D02*
X31476000Y35103000D01*
X28976000Y38303000D02*
X31476000Y38303000D01*
G04 #@! TO.C,C56*
X28976000Y44755000D02*
X28976000Y47955000D01*
X31476000Y44755000D02*
X28976000Y44755000D01*
X31476000Y47955000D02*
X31476000Y44755000D01*
X28976000Y47955000D02*
X31476000Y47955000D01*
G04 #@! TO.C,R53*
X36326000Y55253000D02*
X36826000Y55253000D01*
X36326000Y56253000D02*
X36326000Y55253000D01*
X36826000Y56253000D02*
X36826000Y55253000D01*
X36326000Y56253000D02*
X36826000Y56253000D01*
G04 #@! TO.C,U1*
X7336000Y44158000D02*
X6336000Y45158000D01*
X26336000Y44158000D02*
X7336000Y44158000D01*
X26336000Y64158000D02*
X26336000Y44158000D01*
X6336000Y64158000D02*
X26336000Y64158000D01*
X6336000Y45158000D02*
X6336000Y64158000D01*
G04 #@! TO.C,C34*
X7180000Y71660000D02*
X7180000Y72160000D01*
X7180000Y72160000D02*
X8180000Y72160000D01*
X7180000Y71660000D02*
X8180000Y71660000D01*
X8180000Y71660000D02*
X8180000Y72160000D01*
G04 #@! TO.C,C59*
X36810000Y60460000D02*
X36310000Y60460000D01*
X36310000Y60460000D02*
X36310000Y61460000D01*
X36810000Y60460000D02*
X36810000Y61460000D01*
X36810000Y61460000D02*
X36310000Y61460000D01*
G04 #@! TO.C,C68*
X-3810000Y59450000D02*
X-3310000Y59450000D01*
X-3310000Y59450000D02*
X-3310000Y58450000D01*
X-3810000Y59450000D02*
X-3810000Y58450000D01*
X-3810000Y58450000D02*
X-3310000Y58450000D01*
G04 #@! TO.C,C63*
X33810000Y57350000D02*
X33810000Y57850000D01*
X33810000Y57850000D02*
X34810000Y57850000D01*
X33810000Y57350000D02*
X34810000Y57350000D01*
X34810000Y57350000D02*
X34810000Y57850000D01*
G04 #@! TO.C,C62*
X-1810000Y53300000D02*
X-1810000Y53800000D01*
X-1810000Y53800000D02*
X-810000Y53800000D01*
X-1810000Y53300000D02*
X-810000Y53300000D01*
X-810000Y53300000D02*
X-810000Y53800000D01*
G04 #@! TO.C,C66*
X35690000Y46010000D02*
X35690000Y46510000D01*
X35690000Y46510000D02*
X36690000Y46510000D01*
X35690000Y46010000D02*
X36690000Y46010000D01*
X36690000Y46010000D02*
X36690000Y46510000D01*
G04 #@! TO.C,C70*
X37470000Y45920000D02*
X38270000Y45920000D01*
X37470000Y47420000D02*
X37470000Y45920000D01*
X38270000Y47420000D02*
X37470000Y47420000D01*
X38270000Y45920000D02*
X38270000Y47420000D01*
G04 #@! TO.C,C71*
X37470000Y36155000D02*
X38270000Y36155000D01*
X37470000Y37655000D02*
X37470000Y36155000D01*
X38270000Y37655000D02*
X37470000Y37655000D01*
X38270000Y36155000D02*
X38270000Y37655000D01*
G04 #@! TO.C,R70*
X-3810000Y54450000D02*
X-3310000Y54450000D01*
X-3810000Y55450000D02*
X-3810000Y54450000D01*
X-3310000Y55450000D02*
X-3310000Y54450000D01*
X-3810000Y55450000D02*
X-3310000Y55450000D01*
G04 #@! TO.C,R69*
X690000Y54450000D02*
X1190000Y54450000D01*
X690000Y55450000D02*
X690000Y54450000D01*
X1190000Y55450000D02*
X1190000Y54450000D01*
X690000Y55450000D02*
X1190000Y55450000D01*
G04 #@! TO.C,U3*
X35810000Y58560000D02*
X32810000Y58560000D01*
X35810000Y61560000D02*
X35810000Y58560000D01*
X32810000Y61560000D02*
X35810000Y61560000D01*
X32810000Y58560000D02*
X32810000Y61560000D01*
G04 #@! TO.C,M1*
X-1714000Y34592000D02*
X-1714000Y40592000D01*
X-1714000Y40592000D02*
X6286000Y40592000D01*
X6286000Y34592000D02*
X-1714000Y34592000D01*
X6286000Y40592000D02*
X6286000Y34592000D01*
G04 #@! TO.C,M3*
X19368000Y34592000D02*
X19368000Y40592000D01*
X19368000Y40592000D02*
X27368000Y40592000D01*
X27368000Y34592000D02*
X19368000Y34592000D01*
X27368000Y40592000D02*
X27368000Y34592000D01*
G04 #@! TO.C,M2*
X8827000Y34592000D02*
X8827000Y40592000D01*
X8827000Y40592000D02*
X16827000Y40592000D01*
X16827000Y34592000D02*
X8827000Y34592000D01*
X16827000Y40592000D02*
X16827000Y34592000D01*
G04 #@! TO.C,U2*
X190000Y54500000D02*
X-2810000Y54500000D01*
X190000Y57500000D02*
X190000Y54500000D01*
X-2810000Y57500000D02*
X190000Y57500000D01*
X-2810000Y54500000D02*
X-2810000Y57500000D01*
G04 #@! TO.C,EF2*
X32790000Y39030000D02*
X32790000Y43030000D01*
X35790000Y39030000D02*
X32790000Y39030000D01*
X32790000Y43030000D02*
X35790000Y43030000D01*
X35790000Y43030000D02*
X35790000Y39030000D01*
G04 #@! TO.C,JC1*
X2085000Y49665000D02*
X2085000Y44155000D01*
X2085000Y49665000D02*
X-965000Y49665000D01*
X-965000Y44155000D02*
X2085000Y44155000D01*
X-965000Y44155000D02*
X-965000Y49665000D01*
G04 #@! TO.C,C64*
X-1560000Y59450000D02*
X-1060000Y59450000D01*
X-1060000Y59450000D02*
X-1060000Y58450000D01*
X-1560000Y59450000D02*
X-1560000Y58450000D01*
X-1560000Y58450000D02*
X-1060000Y58450000D01*
G04 #@! TO.C,C18*
X3930000Y52660000D02*
X4430000Y52660000D01*
X4430000Y52660000D02*
X4430000Y51660000D01*
X3930000Y52660000D02*
X3930000Y51660000D01*
X3930000Y51660000D02*
X4430000Y51660000D01*
G04 #@! TO.C,C5*
X3930000Y46160000D02*
X4430000Y46160000D01*
X4430000Y46160000D02*
X4430000Y45160000D01*
X3930000Y46160000D02*
X3930000Y45160000D01*
X3930000Y45160000D02*
X4430000Y45160000D01*
G04 #@! TO.C,C1*
X22330000Y41490000D02*
X22330000Y41990000D01*
X22330000Y41990000D02*
X23330000Y41990000D01*
X22330000Y41490000D02*
X23330000Y41490000D01*
X23330000Y41490000D02*
X23330000Y41990000D01*
G04 #@! TO.C,R68*
X30840000Y39870000D02*
X30840000Y39370000D01*
X31840000Y39870000D02*
X30840000Y39870000D01*
X31840000Y39370000D02*
X30840000Y39370000D01*
X31840000Y39870000D02*
X31840000Y39370000D01*
G04 #@! TO.C,R15*
X-3670000Y79310000D02*
X-3170000Y79310000D01*
X-3670000Y80310000D02*
X-3670000Y79310000D01*
X-3170000Y80310000D02*
X-3170000Y79310000D01*
X-3670000Y80310000D02*
X-3170000Y80310000D01*
G04 #@! TO.C,C25*
X-2990000Y78010000D02*
X-2990000Y78510000D01*
X-2990000Y78510000D02*
X-1990000Y78510000D01*
X-2990000Y78010000D02*
X-1990000Y78010000D01*
X-1990000Y78010000D02*
X-1990000Y78510000D01*
G04 #@! TO.C,AS6*
X30000Y80910000D02*
X30000Y79110000D01*
X30000Y79110000D02*
X-2570000Y79110000D01*
X-2570000Y79110000D02*
X-2570000Y80910000D01*
X-2570000Y80910000D02*
X30000Y80910000D01*
G04 #@! TO.C,AS12*
X20350000Y74560000D02*
X20350000Y72760000D01*
X20350000Y72760000D02*
X17750000Y72760000D01*
X17750000Y72760000D02*
X17750000Y74560000D01*
X17750000Y74560000D02*
X20350000Y74560000D01*
G04 #@! TO.C,R16*
X26810000Y73160000D02*
X27310000Y73160000D01*
X26810000Y74160000D02*
X26810000Y73160000D01*
X27310000Y74160000D02*
X27310000Y73160000D01*
X26810000Y74160000D02*
X27310000Y74160000D01*
G04 #@! TO.C,R3*
X4990000Y71660000D02*
X4990000Y72160000D01*
X3990000Y71660000D02*
X4990000Y71660000D01*
X3990000Y72160000D02*
X4990000Y72160000D01*
X3990000Y71660000D02*
X3990000Y72160000D01*
G04 #@! TO.C,C3*
X2090000Y71660000D02*
X2090000Y72160000D01*
X2090000Y72160000D02*
X3090000Y72160000D01*
X2090000Y71660000D02*
X3090000Y71660000D01*
X3090000Y71660000D02*
X3090000Y72160000D01*
G04 #@! TO.C,C30*
X22410000Y71660000D02*
X22410000Y72160000D01*
X22410000Y72160000D02*
X23410000Y72160000D01*
X22410000Y71660000D02*
X23410000Y71660000D01*
X23410000Y71660000D02*
X23410000Y72160000D01*
G04 #@! TO.C,AS10*
X10190000Y74560000D02*
X10190000Y72760000D01*
X10190000Y72760000D02*
X7590000Y72760000D01*
X7590000Y72760000D02*
X7590000Y74560000D01*
X7590000Y74560000D02*
X10190000Y74560000D01*
G04 #@! TO.C,R25*
X6490000Y73160000D02*
X6990000Y73160000D01*
X6490000Y74160000D02*
X6490000Y73160000D01*
X6990000Y74160000D02*
X6990000Y73160000D01*
X6490000Y74160000D02*
X6990000Y74160000D01*
G04 #@! TO.C,R48*
X11570000Y73160000D02*
X12070000Y73160000D01*
X11570000Y74160000D02*
X11570000Y73160000D01*
X12070000Y74160000D02*
X12070000Y73160000D01*
X11570000Y74160000D02*
X12070000Y74160000D01*
G04 #@! TO.C,C53*
X12250000Y71660000D02*
X12250000Y72160000D01*
X12250000Y72160000D02*
X13250000Y72160000D01*
X12250000Y71660000D02*
X13250000Y71660000D01*
X13250000Y71660000D02*
X13250000Y72160000D01*
G04 #@! TO.C,R72*
X31810000Y58510000D02*
X32310000Y58510000D01*
X31810000Y59510000D02*
X31810000Y58510000D01*
X32310000Y59510000D02*
X32310000Y58510000D01*
X31810000Y59510000D02*
X32310000Y59510000D01*
G04 #@! TO.C,R71*
X36310000Y58510000D02*
X36810000Y58510000D01*
X36310000Y59510000D02*
X36310000Y58510000D01*
X36810000Y59510000D02*
X36810000Y58510000D01*
X36310000Y59510000D02*
X36810000Y59510000D01*
G04 #@! TO.C,EF1*
X32790000Y48670000D02*
X32790000Y52670000D01*
X35790000Y48670000D02*
X32790000Y48670000D01*
X32790000Y52670000D02*
X35790000Y52670000D01*
X35790000Y52670000D02*
X35790000Y48670000D01*
G04 #@! TO.C,Q2*
X32790000Y47790000D02*
X34790000Y47790000D01*
X34790000Y47790000D02*
X34790000Y45790000D01*
X34790000Y45790000D02*
X32790000Y45790000D01*
X32790000Y45790000D02*
X32790000Y47790000D01*
G04 #@! TO.C,R67*
X30840000Y49500000D02*
X30840000Y49000000D01*
X31840000Y49500000D02*
X30840000Y49500000D01*
X31840000Y49000000D02*
X30840000Y49000000D01*
X31840000Y49500000D02*
X31840000Y49000000D01*
G04 #@! TO.C,R62*
X31840000Y42230000D02*
X31840000Y42730000D01*
X30840000Y42230000D02*
X31840000Y42230000D01*
X30840000Y42730000D02*
X31840000Y42730000D01*
X30840000Y42230000D02*
X30840000Y42730000D01*
G04 #@! TO.C,R60*
X36740000Y43680000D02*
X36740000Y43180000D01*
X37740000Y43680000D02*
X36740000Y43680000D01*
X37740000Y43180000D02*
X36740000Y43180000D01*
X37740000Y43680000D02*
X37740000Y43180000D01*
G04 #@! TO.C,D1*
X470000Y63820000D02*
X-30000Y63820000D01*
X470000Y62820000D02*
X470000Y63820000D01*
X-30000Y62820000D02*
X-30000Y63820000D01*
X470000Y62820000D02*
X-30000Y62820000D01*
G04 #@! TO.C,D3*
X32774000Y35580000D02*
X32774000Y35080000D01*
X33774000Y35580000D02*
X32774000Y35580000D01*
X33774000Y35080000D02*
X32774000Y35080000D01*
X33774000Y35580000D02*
X33774000Y35080000D01*
G04 #@! TO.C,D2*
X32774000Y45220700D02*
X32774000Y44720700D01*
X33774000Y45220700D02*
X32774000Y45220700D01*
X33774000Y44720700D02*
X32774000Y44720700D01*
X33774000Y45220700D02*
X33774000Y44720700D01*
G04 #@! TO.C,C28*
X-2110000Y64520000D02*
X-2110000Y65020000D01*
X-2110000Y65020000D02*
X-1110000Y65020000D01*
X-2110000Y64520000D02*
X-1110000Y64520000D01*
X-1110000Y64520000D02*
X-1110000Y65020000D01*
G04 #@! TO.C,C27*
X-30000Y61730000D02*
X470000Y61730000D01*
X470000Y61730000D02*
X470000Y60730000D01*
X-30000Y61730000D02*
X-30000Y60730000D01*
X-30000Y60730000D02*
X470000Y60730000D01*
G04 #@! TO.C,C67*
X35690000Y36380000D02*
X35690000Y36880000D01*
X35690000Y36880000D02*
X36690000Y36880000D01*
X35690000Y36380000D02*
X36690000Y36380000D01*
X36690000Y36380000D02*
X36690000Y36880000D01*
G04 #@! TO.C,C61*
X34806000Y35080000D02*
X34806000Y35580000D01*
X34806000Y35580000D02*
X35806000Y35580000D01*
X34806000Y35080000D02*
X35806000Y35080000D01*
X35806000Y35080000D02*
X35806000Y35580000D01*
G04 #@! TO.C,C60*
X34806000Y44720700D02*
X34806000Y45220700D01*
X34806000Y45220700D02*
X35806000Y45220700D01*
X34806000Y44720700D02*
X35806000Y44720700D01*
X35806000Y44720700D02*
X35806000Y45220700D01*
G04 #@! TO.C,C52*
X31840000Y43680000D02*
X31840000Y43180000D01*
X31840000Y43180000D02*
X30840000Y43180000D01*
X31840000Y43680000D02*
X30840000Y43680000D01*
X30840000Y43680000D02*
X30840000Y43180000D01*
G04 #@! TO.C,C51*
X31840000Y53310000D02*
X31840000Y52810000D01*
X31840000Y52810000D02*
X30840000Y52810000D01*
X31840000Y53310000D02*
X30840000Y53310000D01*
X30840000Y53310000D02*
X30840000Y52810000D01*
G04 #@! TO.C,R80*
X35740000Y63510000D02*
X35240000Y63510000D01*
X35740000Y62510000D02*
X35740000Y63510000D01*
X35240000Y62510000D02*
X35240000Y63510000D01*
X35740000Y62510000D02*
X35240000Y62510000D01*
G04 #@! TO.C,R79*
X120000Y59450000D02*
X-380000Y59450000D01*
X120000Y58450000D02*
X120000Y59450000D01*
X-380000Y58450000D02*
X-380000Y59450000D01*
X120000Y58450000D02*
X-380000Y58450000D01*
G04 #@! TO.C,R78*
X33370000Y63510000D02*
X32870000Y63510000D01*
X33370000Y62510000D02*
X33370000Y63510000D01*
X32870000Y62510000D02*
X32870000Y63510000D01*
X33370000Y62510000D02*
X32870000Y62510000D01*
G04 #@! TO.C,R77*
X-2250000Y59450000D02*
X-2750000Y59450000D01*
X-2250000Y58450000D02*
X-2250000Y59450000D01*
X-2750000Y58450000D02*
X-2750000Y59450000D01*
X-2250000Y58450000D02*
X-2750000Y58450000D01*
G04 #@! TO.C,R74*
X31810000Y60460000D02*
X32310000Y60460000D01*
X31810000Y61460000D02*
X31810000Y60460000D01*
X32310000Y61460000D02*
X32310000Y60460000D01*
X31810000Y61460000D02*
X32310000Y61460000D01*
G04 #@! TO.C,R73*
X-3810000Y56400000D02*
X-3310000Y56400000D01*
X-3810000Y57400000D02*
X-3810000Y56400000D01*
X-3310000Y57400000D02*
X-3310000Y56400000D01*
X-3810000Y57400000D02*
X-3310000Y57400000D01*
G04 #@! TO.C,R22*
X-1240000Y60370000D02*
X-1240000Y60870000D01*
X-2240000Y60370000D02*
X-1240000Y60370000D01*
X-2240000Y60870000D02*
X-1240000Y60870000D01*
X-2240000Y60370000D02*
X-2240000Y60870000D01*
G04 #@! TO.C,R33*
X16650000Y73160000D02*
X17150000Y73160000D01*
X16650000Y74160000D02*
X16650000Y73160000D01*
X17150000Y74160000D02*
X17150000Y73160000D01*
X16650000Y74160000D02*
X17150000Y74160000D01*
G04 #@! TO.C,R76*
X31750000Y55253000D02*
X32250000Y55253000D01*
X31750000Y56253000D02*
X31750000Y55253000D01*
X32250000Y56253000D02*
X32250000Y55253000D01*
X31750000Y56253000D02*
X32250000Y56253000D01*
G04 #@! TO.C,R17*
X21730000Y73160000D02*
X22230000Y73160000D01*
X21730000Y74160000D02*
X21730000Y73160000D01*
X22230000Y74160000D02*
X22230000Y73160000D01*
X21730000Y74160000D02*
X22230000Y74160000D01*
G04 #@! TO.C,R1*
X1910000Y73960000D02*
X1410000Y73960000D01*
X1910000Y72960000D02*
X1910000Y73960000D01*
X1410000Y72960000D02*
X1410000Y73960000D01*
X1910000Y72960000D02*
X1410000Y72960000D01*
G04 #@! TO.C,R66*
X30840000Y41670000D02*
X30840000Y41170000D01*
X31840000Y41670000D02*
X30840000Y41670000D01*
X31840000Y41170000D02*
X30840000Y41170000D01*
X31840000Y41670000D02*
X31840000Y41170000D01*
G04 #@! TO.C,R65*
X30840000Y40770000D02*
X30840000Y40270000D01*
X31840000Y40770000D02*
X30840000Y40770000D01*
X31840000Y40270000D02*
X30840000Y40270000D01*
X31840000Y40770000D02*
X31840000Y40270000D01*
G04 #@! TO.C,R64*
X30840000Y51300000D02*
X30840000Y50800000D01*
X31840000Y51300000D02*
X30840000Y51300000D01*
X31840000Y50800000D02*
X30840000Y50800000D01*
X31840000Y51300000D02*
X31840000Y50800000D01*
G04 #@! TO.C,R63*
X30840000Y50400000D02*
X30840000Y49900000D01*
X31840000Y50400000D02*
X30840000Y50400000D01*
X31840000Y49900000D02*
X30840000Y49900000D01*
X31840000Y50400000D02*
X31840000Y49900000D01*
G04 #@! TO.C,R61*
X31840000Y51860000D02*
X31840000Y52360000D01*
X30840000Y51860000D02*
X31840000Y51860000D01*
X30840000Y52360000D02*
X31840000Y52360000D01*
X30840000Y51860000D02*
X30840000Y52360000D01*
G04 #@! TO.C,R59*
X36740000Y53310000D02*
X36740000Y52810000D01*
X37740000Y53310000D02*
X36740000Y53310000D01*
X37740000Y52810000D02*
X36740000Y52810000D01*
X37740000Y53310000D02*
X37740000Y52810000D01*
G04 #@! TO.C,R56*
X37740000Y42230000D02*
X37740000Y42730000D01*
X36740000Y42230000D02*
X37740000Y42230000D01*
X36740000Y42730000D02*
X37740000Y42730000D01*
X36740000Y42230000D02*
X36740000Y42730000D01*
G04 #@! TO.C,R55*
X36740000Y41780000D02*
X36740000Y41280000D01*
X37740000Y41780000D02*
X36740000Y41780000D01*
X37740000Y41280000D02*
X36740000Y41280000D01*
X37740000Y41780000D02*
X37740000Y41280000D01*
G04 #@! TO.C,R54*
X37740000Y40220000D02*
X37740000Y40720000D01*
X36740000Y40220000D02*
X37740000Y40220000D01*
X36740000Y40720000D02*
X37740000Y40720000D01*
X36740000Y40220000D02*
X36740000Y40720000D01*
G04 #@! TO.C,R52*
X37740000Y51860000D02*
X37740000Y52360000D01*
X36740000Y51860000D02*
X37740000Y51860000D01*
X36740000Y52360000D02*
X37740000Y52360000D01*
X36740000Y51860000D02*
X36740000Y52360000D01*
G04 #@! TO.C,R51*
X36740000Y51410000D02*
X36740000Y50910000D01*
X37740000Y51410000D02*
X36740000Y51410000D01*
X37740000Y50910000D02*
X36740000Y50910000D01*
X37740000Y51410000D02*
X37740000Y50910000D01*
G04 #@! TO.C,R50*
X37740000Y49850000D02*
X37740000Y50350000D01*
X36740000Y49850000D02*
X37740000Y49850000D01*
X36740000Y50350000D02*
X37740000Y50350000D01*
X36740000Y49850000D02*
X36740000Y50350000D01*
G04 #@! TO.C,R14*
X-3670000Y72960000D02*
X-3170000Y72960000D01*
X-3670000Y73960000D02*
X-3670000Y72960000D01*
X-3170000Y73960000D02*
X-3170000Y72960000D01*
X-3670000Y73960000D02*
X-3170000Y73960000D01*
G04 #@! TO.C,R19*
X31110000Y72460000D02*
X31610000Y72460000D01*
X31110000Y73460000D02*
X31110000Y72460000D01*
X31610000Y73460000D02*
X31610000Y72460000D01*
X31110000Y73460000D02*
X31610000Y73460000D01*
G04 #@! TO.C,Q1*
X-2610000Y61630000D02*
X-2610000Y63630000D01*
X-2610000Y63630000D02*
X-610000Y63630000D01*
X-610000Y63630000D02*
X-610000Y61630000D01*
X-610000Y61630000D02*
X-2610000Y61630000D01*
G04 #@! TO.C,Q3*
X32790000Y38150000D02*
X34790000Y38150000D01*
X34790000Y38150000D02*
X34790000Y36150000D01*
X34790000Y36150000D02*
X32790000Y36150000D01*
X32790000Y36150000D02*
X32790000Y38150000D01*
G04 #@! TO.C,LG1*
X34915000Y56060000D02*
X34915000Y54060000D01*
X33665000Y54060000D02*
X33665000Y56060000D01*
X33665000Y56060000D02*
X34915000Y56060000D01*
X34915000Y54060000D02*
X33665000Y54060000D01*
G04 #@! TO.C,FB1*
X26700000Y43350000D02*
X26700000Y42850000D01*
X27700000Y43350000D02*
X26700000Y43350000D01*
X27700000Y42850000D02*
X26700000Y42850000D01*
X27700000Y43350000D02*
X27700000Y42850000D01*
G04 #@! TO.C,C73*
X36310000Y63510000D02*
X36810000Y63510000D01*
X36810000Y63510000D02*
X36810000Y62510000D01*
X36310000Y63510000D02*
X36310000Y62510000D01*
X36310000Y62510000D02*
X36810000Y62510000D01*
G04 #@! TO.C,C72*
X690000Y59460000D02*
X1190000Y59460000D01*
X1190000Y59460000D02*
X1190000Y58460000D01*
X690000Y59460000D02*
X690000Y58460000D01*
X690000Y58460000D02*
X1190000Y58460000D01*
G04 #@! TO.C,C69*
X31810000Y63510000D02*
X32310000Y63510000D01*
X32310000Y63510000D02*
X32310000Y62510000D01*
X31810000Y63510000D02*
X31810000Y62510000D01*
X31810000Y62510000D02*
X32310000Y62510000D01*
G04 #@! TO.C,C65*
X34560000Y62510000D02*
X34060000Y62510000D01*
X34060000Y62510000D02*
X34060000Y63510000D01*
X34560000Y62510000D02*
X34560000Y63510000D01*
X34560000Y63510000D02*
X34060000Y63510000D01*
G04 #@! TO.C,C58*
X1190000Y56400000D02*
X690000Y56400000D01*
X690000Y56400000D02*
X690000Y57400000D01*
X1190000Y56400000D02*
X1190000Y57400000D01*
X1190000Y57400000D02*
X690000Y57400000D01*
G04 #@! TO.C,C47*
X17340000Y71660000D02*
X17340000Y72160000D01*
X17340000Y72160000D02*
X18340000Y72160000D01*
X17340000Y71660000D02*
X18340000Y71660000D01*
X18340000Y71660000D02*
X18340000Y72160000D01*
G04 #@! TO.C,C24*
X-2990000Y71660000D02*
X-2990000Y72160000D01*
X-2990000Y72160000D02*
X-1990000Y72160000D01*
X-2990000Y71660000D02*
X-1990000Y71660000D01*
X-1990000Y71660000D02*
X-1990000Y72160000D01*
G04 #@! TO.C,C29*
X27500000Y71660000D02*
X27500000Y72160000D01*
X27500000Y72160000D02*
X28500000Y72160000D01*
X27500000Y71660000D02*
X28500000Y71660000D01*
X28500000Y71660000D02*
X28500000Y72160000D01*
G04 #@! TO.C,C14*
X9090000Y41490000D02*
X9090000Y41990000D01*
X9090000Y41990000D02*
X10090000Y41990000D01*
X9090000Y41490000D02*
X10090000Y41490000D01*
X10090000Y41490000D02*
X10090000Y41990000D01*
G04 #@! TO.C,C11*
X28730000Y52160000D02*
X28230000Y52160000D01*
X28230000Y52160000D02*
X28230000Y53160000D01*
X28730000Y52160000D02*
X28730000Y53160000D01*
X28730000Y53160000D02*
X28230000Y53160000D01*
G04 #@! TO.C,C9*
X28740000Y62160000D02*
X28240000Y62160000D01*
X28240000Y62160000D02*
X28240000Y63160000D01*
X28740000Y62160000D02*
X28740000Y63160000D01*
X28740000Y63160000D02*
X28240000Y63160000D01*
G04 #@! TO.C,AS8*
X25430000Y74560000D02*
X25430000Y72760000D01*
X25430000Y72760000D02*
X22830000Y72760000D01*
X22830000Y72760000D02*
X22830000Y74560000D01*
X22830000Y74560000D02*
X25430000Y74560000D01*
G04 #@! TO.C,AS1*
X5110000Y74560000D02*
X5110000Y72760000D01*
X5110000Y72760000D02*
X2510000Y72760000D01*
X2510000Y72760000D02*
X2510000Y74560000D01*
X2510000Y74560000D02*
X5110000Y74560000D01*
G04 #@! TO.C,AS14*
X15270000Y74560000D02*
X15270000Y72760000D01*
X15270000Y72760000D02*
X12670000Y72760000D01*
X12670000Y72760000D02*
X12670000Y74560000D01*
X12670000Y74560000D02*
X15270000Y74560000D01*
G04 #@! TO.C,AS5*
X30000Y74560000D02*
X30000Y72760000D01*
X30000Y72760000D02*
X-2570000Y72760000D01*
X-2570000Y72760000D02*
X-2570000Y74560000D01*
X-2570000Y74560000D02*
X30000Y74560000D01*
G04 #@! TO.C,AS7*
X30510000Y74560000D02*
X30510000Y72760000D01*
X30510000Y72760000D02*
X27910000Y72760000D01*
X27910000Y72760000D02*
X27910000Y74560000D01*
X27910000Y74560000D02*
X30510000Y74560000D01*
G04 #@! TD*
G04 #@! TO.C,RH1*
X14895523Y50673810D02*
X14728857Y50911905D01*
X14609809Y50673810D02*
X14609809Y51173810D01*
X14800285Y51173810D01*
X14847904Y51150000D01*
X14871714Y51126191D01*
X14895523Y51078572D01*
X14895523Y51007143D01*
X14871714Y50959524D01*
X14847904Y50935715D01*
X14800285Y50911905D01*
X14609809Y50911905D01*
X15300285Y50697620D02*
X15252666Y50673810D01*
X15157428Y50673810D01*
X15109809Y50697620D01*
X15086000Y50745239D01*
X15086000Y50935715D01*
X15109809Y50983334D01*
X15157428Y51007143D01*
X15252666Y51007143D01*
X15300285Y50983334D01*
X15324095Y50935715D01*
X15324095Y50888096D01*
X15086000Y50840477D01*
X15514571Y50697620D02*
X15562190Y50673810D01*
X15657428Y50673810D01*
X15705047Y50697620D01*
X15728857Y50745239D01*
X15728857Y50769048D01*
X15705047Y50816667D01*
X15657428Y50840477D01*
X15586000Y50840477D01*
X15538380Y50864286D01*
X15514571Y50911905D01*
X15514571Y50935715D01*
X15538380Y50983334D01*
X15586000Y51007143D01*
X15657428Y51007143D01*
X15705047Y50983334D01*
X15943142Y50673810D02*
X15943142Y51007143D01*
X15943142Y51173810D02*
X15919333Y51150000D01*
X15943142Y51126191D01*
X15966952Y51150000D01*
X15943142Y51173810D01*
X15943142Y51126191D01*
X16181238Y51007143D02*
X16181238Y50673810D01*
X16181238Y50959524D02*
X16205047Y50983334D01*
X16252666Y51007143D01*
X16324095Y51007143D01*
X16371714Y50983334D01*
X16395523Y50935715D01*
X16395523Y50673810D01*
X16633619Y50673810D02*
X16633619Y51173810D01*
X16633619Y50935715D02*
X16919333Y50935715D01*
X16919333Y50673810D02*
X16919333Y51173810D01*
X17228857Y50673810D02*
X17181238Y50697620D01*
X17157428Y50721429D01*
X17133619Y50769048D01*
X17133619Y50911905D01*
X17157428Y50959524D01*
X17181238Y50983334D01*
X17228857Y51007143D01*
X17300285Y51007143D01*
X17347904Y50983334D01*
X17371714Y50959524D01*
X17395523Y50911905D01*
X17395523Y50769048D01*
X17371714Y50721429D01*
X17347904Y50697620D01*
X17300285Y50673810D01*
X17228857Y50673810D01*
X17681238Y50673810D02*
X17633619Y50697620D01*
X17609809Y50745239D01*
X17609809Y51173810D01*
X18062190Y50697620D02*
X18014571Y50673810D01*
X17919333Y50673810D01*
X17871714Y50697620D01*
X17847904Y50745239D01*
X17847904Y50935715D01*
X17871714Y50983334D01*
X17919333Y51007143D01*
X18014571Y51007143D01*
X18062190Y50983334D01*
X18086000Y50935715D01*
X18086000Y50888096D01*
X17847904Y50840477D01*
G04 #@! TO.C,H2*
X6338571Y84276429D02*
X6314761Y84252620D01*
X6243333Y84228810D01*
X6195714Y84228810D01*
X6124285Y84252620D01*
X6076666Y84300239D01*
X6052857Y84347858D01*
X6029047Y84443096D01*
X6029047Y84514524D01*
X6052857Y84609762D01*
X6076666Y84657381D01*
X6124285Y84705000D01*
X6195714Y84728810D01*
X6243333Y84728810D01*
X6314761Y84705000D01*
X6338571Y84681191D01*
X6624285Y84228810D02*
X6576666Y84252620D01*
X6552857Y84276429D01*
X6529047Y84324048D01*
X6529047Y84466905D01*
X6552857Y84514524D01*
X6576666Y84538334D01*
X6624285Y84562143D01*
X6695714Y84562143D01*
X6743333Y84538334D01*
X6767142Y84514524D01*
X6790952Y84466905D01*
X6790952Y84324048D01*
X6767142Y84276429D01*
X6743333Y84252620D01*
X6695714Y84228810D01*
X6624285Y84228810D01*
X7005238Y84562143D02*
X7005238Y84228810D01*
X7005238Y84514524D02*
X7029047Y84538334D01*
X7076666Y84562143D01*
X7148095Y84562143D01*
X7195714Y84538334D01*
X7219523Y84490715D01*
X7219523Y84228810D01*
X7457619Y84562143D02*
X7457619Y84228810D01*
X7457619Y84514524D02*
X7481428Y84538334D01*
X7529047Y84562143D01*
X7600476Y84562143D01*
X7648095Y84538334D01*
X7671904Y84490715D01*
X7671904Y84228810D01*
X7790952Y84181191D02*
X8171904Y84181191D01*
X8386190Y84728810D02*
X8433809Y84728810D01*
X8481428Y84705000D01*
X8505238Y84681191D01*
X8529047Y84633572D01*
X8552857Y84538334D01*
X8552857Y84419286D01*
X8529047Y84324048D01*
X8505238Y84276429D01*
X8481428Y84252620D01*
X8433809Y84228810D01*
X8386190Y84228810D01*
X8338571Y84252620D01*
X8314761Y84276429D01*
X8290952Y84324048D01*
X8267142Y84419286D01*
X8267142Y84538334D01*
X8290952Y84633572D01*
X8314761Y84681191D01*
X8338571Y84705000D01*
X8386190Y84728810D01*
X8743333Y84681191D02*
X8767142Y84705000D01*
X8814761Y84728810D01*
X8933809Y84728810D01*
X8981428Y84705000D01*
X9005238Y84681191D01*
X9029047Y84633572D01*
X9029047Y84585953D01*
X9005238Y84514524D01*
X8719523Y84228810D01*
X9029047Y84228810D01*
X9195714Y84228810D02*
X9457619Y84562143D01*
X9195714Y84562143D02*
X9457619Y84228810D01*
X9624285Y84681191D02*
X9648095Y84705000D01*
X9695714Y84728810D01*
X9814761Y84728810D01*
X9862380Y84705000D01*
X9886190Y84681191D01*
X9910000Y84633572D01*
X9910000Y84585953D01*
X9886190Y84514524D01*
X9600476Y84228810D01*
X9910000Y84228810D01*
X10338571Y84728810D02*
X10243333Y84728810D01*
X10195714Y84705000D01*
X10171904Y84681191D01*
X10124285Y84609762D01*
X10100476Y84514524D01*
X10100476Y84324048D01*
X10124285Y84276429D01*
X10148095Y84252620D01*
X10195714Y84228810D01*
X10290952Y84228810D01*
X10338571Y84252620D01*
X10362380Y84276429D01*
X10386190Y84324048D01*
X10386190Y84443096D01*
X10362380Y84490715D01*
X10338571Y84514524D01*
X10290952Y84538334D01*
X10195714Y84538334D01*
X10148095Y84514524D01*
X10124285Y84490715D01*
X10100476Y84443096D01*
X10481428Y84181191D02*
X10862380Y84181191D01*
X11076666Y84728810D02*
X11171904Y84728810D01*
X11219523Y84705000D01*
X11267142Y84657381D01*
X11290952Y84562143D01*
X11290952Y84395477D01*
X11267142Y84300239D01*
X11219523Y84252620D01*
X11171904Y84228810D01*
X11076666Y84228810D01*
X11029047Y84252620D01*
X10981428Y84300239D01*
X10957619Y84395477D01*
X10957619Y84562143D01*
X10981428Y84657381D01*
X11029047Y84705000D01*
X11076666Y84728810D01*
X11719523Y84228810D02*
X11719523Y84728810D01*
X11719523Y84252620D02*
X11671904Y84228810D01*
X11576666Y84228810D01*
X11529047Y84252620D01*
X11505238Y84276429D01*
X11481428Y84324048D01*
X11481428Y84466905D01*
X11505238Y84514524D01*
X11529047Y84538334D01*
X11576666Y84562143D01*
X11671904Y84562143D01*
X11719523Y84538334D01*
X12171904Y84228810D02*
X12171904Y84728810D01*
X12171904Y84252620D02*
X12124285Y84228810D01*
X12029047Y84228810D01*
X11981428Y84252620D01*
X11957619Y84276429D01*
X11933809Y84324048D01*
X11933809Y84466905D01*
X11957619Y84514524D01*
X11981428Y84538334D01*
X12029047Y84562143D01*
X12124285Y84562143D01*
X12171904Y84538334D01*
X12290952Y84181191D02*
X12671904Y84181191D01*
X12790952Y84490715D02*
X12957619Y84490715D01*
X13029047Y84228810D02*
X12790952Y84228810D01*
X12790952Y84728810D01*
X13029047Y84728810D01*
X13195714Y84562143D02*
X13314761Y84228810D01*
X13433809Y84562143D01*
X13814761Y84252620D02*
X13767142Y84228810D01*
X13671904Y84228810D01*
X13624285Y84252620D01*
X13600476Y84300239D01*
X13600476Y84490715D01*
X13624285Y84538334D01*
X13671904Y84562143D01*
X13767142Y84562143D01*
X13814761Y84538334D01*
X13838571Y84490715D01*
X13838571Y84443096D01*
X13600476Y84395477D01*
X14052857Y84562143D02*
X14052857Y84228810D01*
X14052857Y84514524D02*
X14076666Y84538334D01*
X14124285Y84562143D01*
X14195714Y84562143D01*
X14243333Y84538334D01*
X14267142Y84490715D01*
X14267142Y84228810D01*
G04 #@! TO.C,H1*
X6338571Y79196429D02*
X6314761Y79172620D01*
X6243333Y79148810D01*
X6195714Y79148810D01*
X6124285Y79172620D01*
X6076666Y79220239D01*
X6052857Y79267858D01*
X6029047Y79363096D01*
X6029047Y79434524D01*
X6052857Y79529762D01*
X6076666Y79577381D01*
X6124285Y79625000D01*
X6195714Y79648810D01*
X6243333Y79648810D01*
X6314761Y79625000D01*
X6338571Y79601191D01*
X6624285Y79148810D02*
X6576666Y79172620D01*
X6552857Y79196429D01*
X6529047Y79244048D01*
X6529047Y79386905D01*
X6552857Y79434524D01*
X6576666Y79458334D01*
X6624285Y79482143D01*
X6695714Y79482143D01*
X6743333Y79458334D01*
X6767142Y79434524D01*
X6790952Y79386905D01*
X6790952Y79244048D01*
X6767142Y79196429D01*
X6743333Y79172620D01*
X6695714Y79148810D01*
X6624285Y79148810D01*
X7005238Y79482143D02*
X7005238Y79148810D01*
X7005238Y79434524D02*
X7029047Y79458334D01*
X7076666Y79482143D01*
X7148095Y79482143D01*
X7195714Y79458334D01*
X7219523Y79410715D01*
X7219523Y79148810D01*
X7457619Y79482143D02*
X7457619Y79148810D01*
X7457619Y79434524D02*
X7481428Y79458334D01*
X7529047Y79482143D01*
X7600476Y79482143D01*
X7648095Y79458334D01*
X7671904Y79410715D01*
X7671904Y79148810D01*
X7790952Y79101191D02*
X8171904Y79101191D01*
X8386190Y79648810D02*
X8433809Y79648810D01*
X8481428Y79625000D01*
X8505238Y79601191D01*
X8529047Y79553572D01*
X8552857Y79458334D01*
X8552857Y79339286D01*
X8529047Y79244048D01*
X8505238Y79196429D01*
X8481428Y79172620D01*
X8433809Y79148810D01*
X8386190Y79148810D01*
X8338571Y79172620D01*
X8314761Y79196429D01*
X8290952Y79244048D01*
X8267142Y79339286D01*
X8267142Y79458334D01*
X8290952Y79553572D01*
X8314761Y79601191D01*
X8338571Y79625000D01*
X8386190Y79648810D01*
X8743333Y79601191D02*
X8767142Y79625000D01*
X8814761Y79648810D01*
X8933809Y79648810D01*
X8981428Y79625000D01*
X9005238Y79601191D01*
X9029047Y79553572D01*
X9029047Y79505953D01*
X9005238Y79434524D01*
X8719523Y79148810D01*
X9029047Y79148810D01*
X9195714Y79148810D02*
X9457619Y79482143D01*
X9195714Y79482143D02*
X9457619Y79148810D01*
X9624285Y79601191D02*
X9648095Y79625000D01*
X9695714Y79648810D01*
X9814761Y79648810D01*
X9862380Y79625000D01*
X9886190Y79601191D01*
X9910000Y79553572D01*
X9910000Y79505953D01*
X9886190Y79434524D01*
X9600476Y79148810D01*
X9910000Y79148810D01*
X10338571Y79648810D02*
X10243333Y79648810D01*
X10195714Y79625000D01*
X10171904Y79601191D01*
X10124285Y79529762D01*
X10100476Y79434524D01*
X10100476Y79244048D01*
X10124285Y79196429D01*
X10148095Y79172620D01*
X10195714Y79148810D01*
X10290952Y79148810D01*
X10338571Y79172620D01*
X10362380Y79196429D01*
X10386190Y79244048D01*
X10386190Y79363096D01*
X10362380Y79410715D01*
X10338571Y79434524D01*
X10290952Y79458334D01*
X10195714Y79458334D01*
X10148095Y79434524D01*
X10124285Y79410715D01*
X10100476Y79363096D01*
X10481428Y79101191D02*
X10862380Y79101191D01*
X11076666Y79648810D02*
X11171904Y79648810D01*
X11219523Y79625000D01*
X11267142Y79577381D01*
X11290952Y79482143D01*
X11290952Y79315477D01*
X11267142Y79220239D01*
X11219523Y79172620D01*
X11171904Y79148810D01*
X11076666Y79148810D01*
X11029047Y79172620D01*
X10981428Y79220239D01*
X10957619Y79315477D01*
X10957619Y79482143D01*
X10981428Y79577381D01*
X11029047Y79625000D01*
X11076666Y79648810D01*
X11719523Y79148810D02*
X11719523Y79648810D01*
X11719523Y79172620D02*
X11671904Y79148810D01*
X11576666Y79148810D01*
X11529047Y79172620D01*
X11505238Y79196429D01*
X11481428Y79244048D01*
X11481428Y79386905D01*
X11505238Y79434524D01*
X11529047Y79458334D01*
X11576666Y79482143D01*
X11671904Y79482143D01*
X11719523Y79458334D01*
X12171904Y79148810D02*
X12171904Y79648810D01*
X12171904Y79172620D02*
X12124285Y79148810D01*
X12029047Y79148810D01*
X11981428Y79172620D01*
X11957619Y79196429D01*
X11933809Y79244048D01*
X11933809Y79386905D01*
X11957619Y79434524D01*
X11981428Y79458334D01*
X12029047Y79482143D01*
X12124285Y79482143D01*
X12171904Y79458334D01*
X12290952Y79101191D02*
X12671904Y79101191D01*
X12790952Y79410715D02*
X12957619Y79410715D01*
X13029047Y79148810D02*
X12790952Y79148810D01*
X12790952Y79648810D01*
X13029047Y79648810D01*
X13195714Y79482143D02*
X13314761Y79148810D01*
X13433809Y79482143D01*
X13814761Y79172620D02*
X13767142Y79148810D01*
X13671904Y79148810D01*
X13624285Y79172620D01*
X13600476Y79220239D01*
X13600476Y79410715D01*
X13624285Y79458334D01*
X13671904Y79482143D01*
X13767142Y79482143D01*
X13814761Y79458334D01*
X13838571Y79410715D01*
X13838571Y79363096D01*
X13600476Y79315477D01*
X14052857Y79482143D02*
X14052857Y79148810D01*
X14052857Y79434524D02*
X14076666Y79458334D01*
X14124285Y79482143D01*
X14195714Y79482143D01*
X14243333Y79458334D01*
X14267142Y79410715D01*
X14267142Y79148810D01*
G04 #@! TO.C,UA5*
D12*
X30551904Y31392858D02*
X30504285Y31345239D01*
X30361428Y31297620D01*
X30266190Y31297620D01*
X30123333Y31345239D01*
X30028095Y31440477D01*
X29980476Y31535715D01*
X29932857Y31726191D01*
X29932857Y31869048D01*
X29980476Y32059524D01*
X30028095Y32154762D01*
X30123333Y32250000D01*
X30266190Y32297620D01*
X30361428Y32297620D01*
X30504285Y32250000D01*
X30551904Y32202381D01*
X31123333Y31297620D02*
X31028095Y31345239D01*
X30980476Y31392858D01*
X30932857Y31488096D01*
X30932857Y31773810D01*
X30980476Y31869048D01*
X31028095Y31916667D01*
X31123333Y31964286D01*
X31266190Y31964286D01*
X31361428Y31916667D01*
X31409047Y31869048D01*
X31456666Y31773810D01*
X31456666Y31488096D01*
X31409047Y31392858D01*
X31361428Y31345239D01*
X31266190Y31297620D01*
X31123333Y31297620D01*
X31885238Y31964286D02*
X31885238Y31297620D01*
X31885238Y31869048D02*
X31932857Y31916667D01*
X32028095Y31964286D01*
X32170952Y31964286D01*
X32266190Y31916667D01*
X32313809Y31821429D01*
X32313809Y31297620D01*
X32790000Y31964286D02*
X32790000Y31297620D01*
X32790000Y31869048D02*
X32837619Y31916667D01*
X32932857Y31964286D01*
X33075714Y31964286D01*
X33170952Y31916667D01*
X33218571Y31821429D01*
X33218571Y31297620D01*
X33456666Y31202381D02*
X34218571Y31202381D01*
X34647142Y32297620D02*
X34742380Y32297620D01*
X34837619Y32250000D01*
X34885238Y32202381D01*
X34932857Y32107143D01*
X34980476Y31916667D01*
X34980476Y31678572D01*
X34932857Y31488096D01*
X34885238Y31392858D01*
X34837619Y31345239D01*
X34742380Y31297620D01*
X34647142Y31297620D01*
X34551904Y31345239D01*
X34504285Y31392858D01*
X34456666Y31488096D01*
X34409047Y31678572D01*
X34409047Y31916667D01*
X34456666Y32107143D01*
X34504285Y32202381D01*
X34551904Y32250000D01*
X34647142Y32297620D01*
X35932857Y31297620D02*
X35361428Y31297620D01*
X35647142Y31297620D02*
X35647142Y32297620D01*
X35551904Y32154762D01*
X35456666Y32059524D01*
X35361428Y32011905D01*
X36266190Y31297620D02*
X36790000Y31964286D01*
X36266190Y31964286D02*
X36790000Y31297620D01*
X37361428Y32297620D02*
X37456666Y32297620D01*
X37551904Y32250000D01*
X37599523Y32202381D01*
X37647142Y32107143D01*
X37694761Y31916667D01*
X37694761Y31678572D01*
X37647142Y31488096D01*
X37599523Y31392858D01*
X37551904Y31345239D01*
X37456666Y31297620D01*
X37361428Y31297620D01*
X37266190Y31345239D01*
X37218571Y31392858D01*
X37170952Y31488096D01*
X37123333Y31678572D01*
X37123333Y31916667D01*
X37170952Y32107143D01*
X37218571Y32202381D01*
X37266190Y32250000D01*
X37361428Y32297620D01*
X38028095Y32297620D02*
X38647142Y32297620D01*
X38313809Y31916667D01*
X38456666Y31916667D01*
X38551904Y31869048D01*
X38599523Y31821429D01*
X38647142Y31726191D01*
X38647142Y31488096D01*
X38599523Y31392858D01*
X38551904Y31345239D01*
X38456666Y31297620D01*
X38170952Y31297620D01*
X38075714Y31345239D01*
X38028095Y31392858D01*
G04 #@! TO.C,UA3*
D11*
X45712619Y3583810D02*
X45712619Y4083810D01*
X45903095Y4083810D01*
X45950714Y4060000D01*
X45974523Y4036191D01*
X45998333Y3988572D01*
X45998333Y3917143D01*
X45974523Y3869524D01*
X45950714Y3845715D01*
X45903095Y3821905D01*
X45712619Y3821905D01*
X46498333Y3631429D02*
X46474523Y3607620D01*
X46403095Y3583810D01*
X46355476Y3583810D01*
X46284047Y3607620D01*
X46236428Y3655239D01*
X46212619Y3702858D01*
X46188809Y3798096D01*
X46188809Y3869524D01*
X46212619Y3964762D01*
X46236428Y4012381D01*
X46284047Y4060000D01*
X46355476Y4083810D01*
X46403095Y4083810D01*
X46474523Y4060000D01*
X46498333Y4036191D01*
X46974523Y3583810D02*
X46688809Y3583810D01*
X46831666Y3583810D02*
X46831666Y4083810D01*
X46784047Y4012381D01*
X46736428Y3964762D01*
X46688809Y3940953D01*
X47284047Y4083810D02*
X47331666Y4083810D01*
X47379285Y4060000D01*
X47403095Y4036191D01*
X47426904Y3988572D01*
X47450714Y3893334D01*
X47450714Y3774286D01*
X47426904Y3679048D01*
X47403095Y3631429D01*
X47379285Y3607620D01*
X47331666Y3583810D01*
X47284047Y3583810D01*
X47236428Y3607620D01*
X47212619Y3631429D01*
X47188809Y3679048D01*
X47165000Y3774286D01*
X47165000Y3893334D01*
X47188809Y3988572D01*
X47212619Y4036191D01*
X47236428Y4060000D01*
X47284047Y4083810D01*
X47879285Y3917143D02*
X47879285Y3583810D01*
X47760238Y4107620D02*
X47641190Y3750477D01*
X47950714Y3750477D01*
X48022142Y3536191D02*
X48403095Y3536191D01*
X48498333Y3607620D02*
X48569761Y3583810D01*
X48688809Y3583810D01*
X48736428Y3607620D01*
X48760238Y3631429D01*
X48784047Y3679048D01*
X48784047Y3726667D01*
X48760238Y3774286D01*
X48736428Y3798096D01*
X48688809Y3821905D01*
X48593571Y3845715D01*
X48545952Y3869524D01*
X48522142Y3893334D01*
X48498333Y3940953D01*
X48498333Y3988572D01*
X48522142Y4036191D01*
X48545952Y4060000D01*
X48593571Y4083810D01*
X48712619Y4083810D01*
X48784047Y4060000D01*
X49093571Y4083810D02*
X49188809Y4083810D01*
X49236428Y4060000D01*
X49284047Y4012381D01*
X49307857Y3917143D01*
X49307857Y3750477D01*
X49284047Y3655239D01*
X49236428Y3607620D01*
X49188809Y3583810D01*
X49093571Y3583810D01*
X49045952Y3607620D01*
X48998333Y3655239D01*
X48974523Y3750477D01*
X48974523Y3917143D01*
X48998333Y4012381D01*
X49045952Y4060000D01*
X49093571Y4083810D01*
X49522142Y3774286D02*
X49903095Y3774286D01*
X50117380Y4036191D02*
X50141190Y4060000D01*
X50188809Y4083810D01*
X50307857Y4083810D01*
X50355476Y4060000D01*
X50379285Y4036191D01*
X50403095Y3988572D01*
X50403095Y3940953D01*
X50379285Y3869524D01*
X50093571Y3583810D01*
X50403095Y3583810D01*
X50831666Y3917143D02*
X50831666Y3583810D01*
X50712619Y4107620D02*
X50593571Y3750477D01*
X50903095Y3750477D01*
X50974523Y3536191D02*
X51355476Y3536191D01*
X51688809Y3917143D02*
X51688809Y3583810D01*
X51474523Y3917143D02*
X51474523Y3655239D01*
X51498333Y3607620D01*
X51545952Y3583810D01*
X51617380Y3583810D01*
X51665000Y3607620D01*
X51688809Y3631429D01*
X51926904Y3917143D02*
X51926904Y3583810D01*
X51926904Y3869524D02*
X51950714Y3893334D01*
X51998333Y3917143D01*
X52069761Y3917143D01*
X52117380Y3893334D01*
X52141190Y3845715D01*
X52141190Y3583810D01*
X52379285Y3583810D02*
X52379285Y3917143D01*
X52379285Y4083810D02*
X52355476Y4060000D01*
X52379285Y4036191D01*
X52403095Y4060000D01*
X52379285Y4083810D01*
X52379285Y4036191D01*
X52569761Y3917143D02*
X52688809Y3583810D01*
X52807857Y3917143D01*
X53188809Y3607620D02*
X53141190Y3583810D01*
X53045952Y3583810D01*
X52998333Y3607620D01*
X52974523Y3655239D01*
X52974523Y3845715D01*
X52998333Y3893334D01*
X53045952Y3917143D01*
X53141190Y3917143D01*
X53188809Y3893334D01*
X53212619Y3845715D01*
X53212619Y3798096D01*
X52974523Y3750477D01*
X53426904Y3583810D02*
X53426904Y3917143D01*
X53426904Y3821905D02*
X53450714Y3869524D01*
X53474523Y3893334D01*
X53522142Y3917143D01*
X53569761Y3917143D01*
X53712619Y3607620D02*
X53760238Y3583810D01*
X53855476Y3583810D01*
X53903095Y3607620D01*
X53926904Y3655239D01*
X53926904Y3679048D01*
X53903095Y3726667D01*
X53855476Y3750477D01*
X53784047Y3750477D01*
X53736428Y3774286D01*
X53712619Y3821905D01*
X53712619Y3845715D01*
X53736428Y3893334D01*
X53784047Y3917143D01*
X53855476Y3917143D01*
X53903095Y3893334D01*
X54355476Y3583810D02*
X54355476Y3845715D01*
X54331666Y3893334D01*
X54284047Y3917143D01*
X54188809Y3917143D01*
X54141190Y3893334D01*
X54355476Y3607620D02*
X54307857Y3583810D01*
X54188809Y3583810D01*
X54141190Y3607620D01*
X54117380Y3655239D01*
X54117380Y3702858D01*
X54141190Y3750477D01*
X54188809Y3774286D01*
X54307857Y3774286D01*
X54355476Y3798096D01*
X54665000Y3583810D02*
X54617380Y3607620D01*
X54593571Y3655239D01*
X54593571Y4083810D01*
G04 #@! TO.C,UA1*
X7612619Y3583810D02*
X7612619Y4083810D01*
X7803095Y4083810D01*
X7850714Y4060000D01*
X7874523Y4036191D01*
X7898333Y3988572D01*
X7898333Y3917143D01*
X7874523Y3869524D01*
X7850714Y3845715D01*
X7803095Y3821905D01*
X7612619Y3821905D01*
X8398333Y3631429D02*
X8374523Y3607620D01*
X8303095Y3583810D01*
X8255476Y3583810D01*
X8184047Y3607620D01*
X8136428Y3655239D01*
X8112619Y3702858D01*
X8088809Y3798096D01*
X8088809Y3869524D01*
X8112619Y3964762D01*
X8136428Y4012381D01*
X8184047Y4060000D01*
X8255476Y4083810D01*
X8303095Y4083810D01*
X8374523Y4060000D01*
X8398333Y4036191D01*
X8874523Y3583810D02*
X8588809Y3583810D01*
X8731666Y3583810D02*
X8731666Y4083810D01*
X8684047Y4012381D01*
X8636428Y3964762D01*
X8588809Y3940953D01*
X9184047Y4083810D02*
X9231666Y4083810D01*
X9279285Y4060000D01*
X9303095Y4036191D01*
X9326904Y3988572D01*
X9350714Y3893334D01*
X9350714Y3774286D01*
X9326904Y3679048D01*
X9303095Y3631429D01*
X9279285Y3607620D01*
X9231666Y3583810D01*
X9184047Y3583810D01*
X9136428Y3607620D01*
X9112619Y3631429D01*
X9088809Y3679048D01*
X9065000Y3774286D01*
X9065000Y3893334D01*
X9088809Y3988572D01*
X9112619Y4036191D01*
X9136428Y4060000D01*
X9184047Y4083810D01*
X9779285Y3917143D02*
X9779285Y3583810D01*
X9660238Y4107620D02*
X9541190Y3750477D01*
X9850714Y3750477D01*
X9922142Y3536191D02*
X10303095Y3536191D01*
X10398333Y3607620D02*
X10469761Y3583810D01*
X10588809Y3583810D01*
X10636428Y3607620D01*
X10660238Y3631429D01*
X10684047Y3679048D01*
X10684047Y3726667D01*
X10660238Y3774286D01*
X10636428Y3798096D01*
X10588809Y3821905D01*
X10493571Y3845715D01*
X10445952Y3869524D01*
X10422142Y3893334D01*
X10398333Y3940953D01*
X10398333Y3988572D01*
X10422142Y4036191D01*
X10445952Y4060000D01*
X10493571Y4083810D01*
X10612619Y4083810D01*
X10684047Y4060000D01*
X10993571Y4083810D02*
X11088809Y4083810D01*
X11136428Y4060000D01*
X11184047Y4012381D01*
X11207857Y3917143D01*
X11207857Y3750477D01*
X11184047Y3655239D01*
X11136428Y3607620D01*
X11088809Y3583810D01*
X10993571Y3583810D01*
X10945952Y3607620D01*
X10898333Y3655239D01*
X10874523Y3750477D01*
X10874523Y3917143D01*
X10898333Y4012381D01*
X10945952Y4060000D01*
X10993571Y4083810D01*
X11422142Y3774286D02*
X11803095Y3774286D01*
X12017380Y4036191D02*
X12041190Y4060000D01*
X12088809Y4083810D01*
X12207857Y4083810D01*
X12255476Y4060000D01*
X12279285Y4036191D01*
X12303095Y3988572D01*
X12303095Y3940953D01*
X12279285Y3869524D01*
X11993571Y3583810D01*
X12303095Y3583810D01*
X12731666Y3917143D02*
X12731666Y3583810D01*
X12612619Y4107620D02*
X12493571Y3750477D01*
X12803095Y3750477D01*
X12874523Y3536191D02*
X13255476Y3536191D01*
X13588809Y3917143D02*
X13588809Y3583810D01*
X13374523Y3917143D02*
X13374523Y3655239D01*
X13398333Y3607620D01*
X13445952Y3583810D01*
X13517380Y3583810D01*
X13565000Y3607620D01*
X13588809Y3631429D01*
X13826904Y3917143D02*
X13826904Y3583810D01*
X13826904Y3869524D02*
X13850714Y3893334D01*
X13898333Y3917143D01*
X13969761Y3917143D01*
X14017380Y3893334D01*
X14041190Y3845715D01*
X14041190Y3583810D01*
X14279285Y3583810D02*
X14279285Y3917143D01*
X14279285Y4083810D02*
X14255476Y4060000D01*
X14279285Y4036191D01*
X14303095Y4060000D01*
X14279285Y4083810D01*
X14279285Y4036191D01*
X14469761Y3917143D02*
X14588809Y3583810D01*
X14707857Y3917143D01*
X15088809Y3607620D02*
X15041190Y3583810D01*
X14945952Y3583810D01*
X14898333Y3607620D01*
X14874523Y3655239D01*
X14874523Y3845715D01*
X14898333Y3893334D01*
X14945952Y3917143D01*
X15041190Y3917143D01*
X15088809Y3893334D01*
X15112619Y3845715D01*
X15112619Y3798096D01*
X14874523Y3750477D01*
X15326904Y3583810D02*
X15326904Y3917143D01*
X15326904Y3821905D02*
X15350714Y3869524D01*
X15374523Y3893334D01*
X15422142Y3917143D01*
X15469761Y3917143D01*
X15612619Y3607620D02*
X15660238Y3583810D01*
X15755476Y3583810D01*
X15803095Y3607620D01*
X15826904Y3655239D01*
X15826904Y3679048D01*
X15803095Y3726667D01*
X15755476Y3750477D01*
X15684047Y3750477D01*
X15636428Y3774286D01*
X15612619Y3821905D01*
X15612619Y3845715D01*
X15636428Y3893334D01*
X15684047Y3917143D01*
X15755476Y3917143D01*
X15803095Y3893334D01*
X16255476Y3583810D02*
X16255476Y3845715D01*
X16231666Y3893334D01*
X16184047Y3917143D01*
X16088809Y3917143D01*
X16041190Y3893334D01*
X16255476Y3607620D02*
X16207857Y3583810D01*
X16088809Y3583810D01*
X16041190Y3607620D01*
X16017380Y3655239D01*
X16017380Y3702858D01*
X16041190Y3750477D01*
X16088809Y3774286D01*
X16207857Y3774286D01*
X16255476Y3798096D01*
X16564999Y3583810D02*
X16517380Y3607620D01*
X16493571Y3655239D01*
X16493571Y4083810D01*
G04 #@! TO.C,TP18*
X-3010953Y85110000D02*
X-3058572Y85133810D01*
X-3130000Y85133810D01*
X-3201429Y85110000D01*
X-3249048Y85062381D01*
X-3272858Y85014762D01*
X-3296667Y84919524D01*
X-3296667Y84848096D01*
X-3272858Y84752858D01*
X-3249048Y84705239D01*
X-3201429Y84657620D01*
X-3130000Y84633810D01*
X-3082381Y84633810D01*
X-3010953Y84657620D01*
X-2987143Y84681429D01*
X-2987143Y84848096D01*
X-3082381Y84848096D01*
X-2772858Y84633810D02*
X-2772858Y85133810D01*
X-2487143Y84633810D01*
X-2487143Y85133810D01*
X-2249048Y84633810D02*
X-2249048Y85133810D01*
X-2130000Y85133810D01*
X-2058572Y85110000D01*
X-2010953Y85062381D01*
X-1987143Y85014762D01*
X-1963334Y84919524D01*
X-1963334Y84848096D01*
X-1987143Y84752858D01*
X-2010953Y84705239D01*
X-2058572Y84657620D01*
X-2130000Y84633810D01*
X-2249048Y84633810D01*
G04 #@! TO.C,TP17*
X-3010953Y88610000D02*
X-3058572Y88633810D01*
X-3130000Y88633810D01*
X-3201429Y88610000D01*
X-3249048Y88562381D01*
X-3272858Y88514762D01*
X-3296667Y88419524D01*
X-3296667Y88348096D01*
X-3272858Y88252858D01*
X-3249048Y88205239D01*
X-3201429Y88157620D01*
X-3130000Y88133810D01*
X-3082381Y88133810D01*
X-3010953Y88157620D01*
X-2987143Y88181429D01*
X-2987143Y88348096D01*
X-3082381Y88348096D01*
X-2772858Y88133810D02*
X-2772858Y88633810D01*
X-2487143Y88133810D01*
X-2487143Y88633810D01*
X-2249048Y88133810D02*
X-2249048Y88633810D01*
X-2130000Y88633810D01*
X-2058572Y88610000D01*
X-2010953Y88562381D01*
X-1987143Y88514762D01*
X-1963334Y88419524D01*
X-1963334Y88348096D01*
X-1987143Y88252858D01*
X-2010953Y88205239D01*
X-2058572Y88157620D01*
X-2130000Y88133810D01*
X-2249048Y88133810D01*
G04 #@! TO.C,TP20*
X36414285Y57127143D02*
X36604761Y57127143D01*
X36485714Y57293810D02*
X36485714Y56865239D01*
X36509523Y56817620D01*
X36557142Y56793810D01*
X36604761Y56793810D01*
X36961904Y56817620D02*
X36914285Y56793810D01*
X36819047Y56793810D01*
X36771428Y56817620D01*
X36747619Y56865239D01*
X36747619Y57055715D01*
X36771428Y57103334D01*
X36819047Y57127143D01*
X36914285Y57127143D01*
X36961904Y57103334D01*
X36985714Y57055715D01*
X36985714Y57008096D01*
X36747619Y56960477D01*
X37176190Y56817620D02*
X37223809Y56793810D01*
X37319047Y56793810D01*
X37366666Y56817620D01*
X37390476Y56865239D01*
X37390476Y56889048D01*
X37366666Y56936667D01*
X37319047Y56960477D01*
X37247619Y56960477D01*
X37200000Y56984286D01*
X37176190Y57031905D01*
X37176190Y57055715D01*
X37200000Y57103334D01*
X37247619Y57127143D01*
X37319047Y57127143D01*
X37366666Y57103334D01*
X37533333Y57127143D02*
X37723809Y57127143D01*
X37604761Y57293810D02*
X37604761Y56865239D01*
X37628571Y56817620D01*
X37676190Y56793810D01*
X37723809Y56793810D01*
X37771428Y56746191D02*
X38152380Y56746191D01*
X38271428Y57127143D02*
X38271428Y56627143D01*
X38271428Y57103334D02*
X38319047Y57127143D01*
X38414285Y57127143D01*
X38461904Y57103334D01*
X38485714Y57079524D01*
X38509523Y57031905D01*
X38509523Y56889048D01*
X38485714Y56841429D01*
X38461904Y56817620D01*
X38414285Y56793810D01*
X38319047Y56793810D01*
X38271428Y56817620D01*
X38795238Y56793810D02*
X38747619Y56817620D01*
X38723809Y56841429D01*
X38700000Y56889048D01*
X38700000Y57031905D01*
X38723809Y57079524D01*
X38747619Y57103334D01*
X38795238Y57127143D01*
X38866666Y57127143D01*
X38914285Y57103334D01*
X38938095Y57079524D01*
X38961904Y57031905D01*
X38961904Y56889048D01*
X38938095Y56841429D01*
X38914285Y56817620D01*
X38866666Y56793810D01*
X38795238Y56793810D01*
X39176190Y56793810D02*
X39176190Y57127143D01*
X39176190Y57293810D02*
X39152380Y57270000D01*
X39176190Y57246191D01*
X39200000Y57270000D01*
X39176190Y57293810D01*
X39176190Y57246191D01*
X39414285Y57127143D02*
X39414285Y56793810D01*
X39414285Y57079524D02*
X39438095Y57103334D01*
X39485714Y57127143D01*
X39557142Y57127143D01*
X39604761Y57103334D01*
X39628571Y57055715D01*
X39628571Y56793810D01*
X39795238Y57127143D02*
X39985714Y57127143D01*
X39866666Y57293810D02*
X39866666Y56865239D01*
X39890476Y56817620D01*
X39938095Y56793810D01*
X39985714Y56793810D01*
G04 #@! TO.C,TP19*
X36394285Y63687143D02*
X36584761Y63687143D01*
X36465714Y63853810D02*
X36465714Y63425239D01*
X36489523Y63377620D01*
X36537142Y63353810D01*
X36584761Y63353810D01*
X36941904Y63377620D02*
X36894285Y63353810D01*
X36799047Y63353810D01*
X36751428Y63377620D01*
X36727619Y63425239D01*
X36727619Y63615715D01*
X36751428Y63663334D01*
X36799047Y63687143D01*
X36894285Y63687143D01*
X36941904Y63663334D01*
X36965714Y63615715D01*
X36965714Y63568096D01*
X36727619Y63520477D01*
X37156190Y63377620D02*
X37203809Y63353810D01*
X37299047Y63353810D01*
X37346666Y63377620D01*
X37370476Y63425239D01*
X37370476Y63449048D01*
X37346666Y63496667D01*
X37299047Y63520477D01*
X37227619Y63520477D01*
X37180000Y63544286D01*
X37156190Y63591905D01*
X37156190Y63615715D01*
X37180000Y63663334D01*
X37227619Y63687143D01*
X37299047Y63687143D01*
X37346666Y63663334D01*
X37513333Y63687143D02*
X37703809Y63687143D01*
X37584761Y63853810D02*
X37584761Y63425239D01*
X37608571Y63377620D01*
X37656190Y63353810D01*
X37703809Y63353810D01*
X37751428Y63306191D02*
X38132380Y63306191D01*
X38251428Y63687143D02*
X38251428Y63187143D01*
X38251428Y63663334D02*
X38299047Y63687143D01*
X38394285Y63687143D01*
X38441904Y63663334D01*
X38465714Y63639524D01*
X38489523Y63591905D01*
X38489523Y63449048D01*
X38465714Y63401429D01*
X38441904Y63377620D01*
X38394285Y63353810D01*
X38299047Y63353810D01*
X38251428Y63377620D01*
X38775238Y63353810D02*
X38727619Y63377620D01*
X38703809Y63401429D01*
X38680000Y63449048D01*
X38680000Y63591905D01*
X38703809Y63639524D01*
X38727619Y63663334D01*
X38775238Y63687143D01*
X38846666Y63687143D01*
X38894285Y63663334D01*
X38918095Y63639524D01*
X38941904Y63591905D01*
X38941904Y63449048D01*
X38918095Y63401429D01*
X38894285Y63377620D01*
X38846666Y63353810D01*
X38775238Y63353810D01*
X39156190Y63353810D02*
X39156190Y63687143D01*
X39156190Y63853810D02*
X39132380Y63830000D01*
X39156190Y63806191D01*
X39180000Y63830000D01*
X39156190Y63853810D01*
X39156190Y63806191D01*
X39394285Y63687143D02*
X39394285Y63353810D01*
X39394285Y63639524D02*
X39418095Y63663334D01*
X39465714Y63687143D01*
X39537142Y63687143D01*
X39584761Y63663334D01*
X39608571Y63615715D01*
X39608571Y63353810D01*
X39775238Y63687143D02*
X39965714Y63687143D01*
X39846666Y63853810D02*
X39846666Y63425239D01*
X39870476Y63377620D01*
X39918095Y63353810D01*
X39965714Y63353810D01*
G04 #@! TO.C,TP14*
X-3665715Y51227143D02*
X-3475239Y51227143D01*
X-3594286Y51393810D02*
X-3594286Y50965239D01*
X-3570477Y50917620D01*
X-3522858Y50893810D01*
X-3475239Y50893810D01*
X-3118096Y50917620D02*
X-3165715Y50893810D01*
X-3260953Y50893810D01*
X-3308572Y50917620D01*
X-3332381Y50965239D01*
X-3332381Y51155715D01*
X-3308572Y51203334D01*
X-3260953Y51227143D01*
X-3165715Y51227143D01*
X-3118096Y51203334D01*
X-3094286Y51155715D01*
X-3094286Y51108096D01*
X-3332381Y51060477D01*
X-2903810Y50917620D02*
X-2856191Y50893810D01*
X-2760953Y50893810D01*
X-2713334Y50917620D01*
X-2689524Y50965239D01*
X-2689524Y50989048D01*
X-2713334Y51036667D01*
X-2760953Y51060477D01*
X-2832381Y51060477D01*
X-2880000Y51084286D01*
X-2903810Y51131905D01*
X-2903810Y51155715D01*
X-2880000Y51203334D01*
X-2832381Y51227143D01*
X-2760953Y51227143D01*
X-2713334Y51203334D01*
X-2546667Y51227143D02*
X-2356191Y51227143D01*
X-2475239Y51393810D02*
X-2475239Y50965239D01*
X-2451429Y50917620D01*
X-2403810Y50893810D01*
X-2356191Y50893810D01*
X-2308572Y50846191D02*
X-1927620Y50846191D01*
X-1808572Y51227143D02*
X-1808572Y50727143D01*
X-1808572Y51203334D02*
X-1760953Y51227143D01*
X-1665715Y51227143D01*
X-1618096Y51203334D01*
X-1594286Y51179524D01*
X-1570477Y51131905D01*
X-1570477Y50989048D01*
X-1594286Y50941429D01*
X-1618096Y50917620D01*
X-1665715Y50893810D01*
X-1760953Y50893810D01*
X-1808572Y50917620D01*
X-1284762Y50893810D02*
X-1332381Y50917620D01*
X-1356191Y50941429D01*
X-1380000Y50989048D01*
X-1380000Y51131905D01*
X-1356191Y51179524D01*
X-1332381Y51203334D01*
X-1284762Y51227143D01*
X-1213334Y51227143D01*
X-1165715Y51203334D01*
X-1141905Y51179524D01*
X-1118096Y51131905D01*
X-1118096Y50989048D01*
X-1141905Y50941429D01*
X-1165715Y50917620D01*
X-1213334Y50893810D01*
X-1284762Y50893810D01*
X-903810Y50893810D02*
X-903810Y51227143D01*
X-903810Y51393810D02*
X-927620Y51370000D01*
X-903810Y51346191D01*
X-880000Y51370000D01*
X-903810Y51393810D01*
X-903810Y51346191D01*
X-665715Y51227143D02*
X-665715Y50893810D01*
X-665715Y51179524D02*
X-641905Y51203334D01*
X-594286Y51227143D01*
X-522858Y51227143D01*
X-475239Y51203334D01*
X-451429Y51155715D01*
X-451429Y50893810D01*
X-284762Y51227143D02*
X-94286Y51227143D01*
X-213334Y51393810D02*
X-213334Y50965239D01*
X-189524Y50917620D01*
X-141905Y50893810D01*
X-94286Y50893810D01*
G04 #@! TO.C,TP13*
X-905715Y51227143D02*
X-715239Y51227143D01*
X-834286Y51393810D02*
X-834286Y50965239D01*
X-810477Y50917620D01*
X-762858Y50893810D01*
X-715239Y50893810D01*
X-358096Y50917620D02*
X-405715Y50893810D01*
X-500953Y50893810D01*
X-548572Y50917620D01*
X-572381Y50965239D01*
X-572381Y51155715D01*
X-548572Y51203334D01*
X-500953Y51227143D01*
X-405715Y51227143D01*
X-358096Y51203334D01*
X-334286Y51155715D01*
X-334286Y51108096D01*
X-572381Y51060477D01*
X-143810Y50917620D02*
X-96191Y50893810D01*
X-953Y50893810D01*
X46666Y50917620D01*
X70476Y50965239D01*
X70476Y50989048D01*
X46666Y51036667D01*
X-953Y51060477D01*
X-72381Y51060477D01*
X-120000Y51084286D01*
X-143810Y51131905D01*
X-143810Y51155715D01*
X-120000Y51203334D01*
X-72381Y51227143D01*
X-953Y51227143D01*
X46666Y51203334D01*
X213333Y51227143D02*
X403809Y51227143D01*
X284761Y51393810D02*
X284761Y50965239D01*
X308571Y50917620D01*
X356190Y50893810D01*
X403809Y50893810D01*
X451428Y50846191D02*
X832380Y50846191D01*
X951428Y51227143D02*
X951428Y50727143D01*
X951428Y51203334D02*
X999047Y51227143D01*
X1094285Y51227143D01*
X1141904Y51203334D01*
X1165714Y51179524D01*
X1189523Y51131905D01*
X1189523Y50989048D01*
X1165714Y50941429D01*
X1141904Y50917620D01*
X1094285Y50893810D01*
X999047Y50893810D01*
X951428Y50917620D01*
X1475238Y50893810D02*
X1427619Y50917620D01*
X1403809Y50941429D01*
X1380000Y50989048D01*
X1380000Y51131905D01*
X1403809Y51179524D01*
X1427619Y51203334D01*
X1475238Y51227143D01*
X1546666Y51227143D01*
X1594285Y51203334D01*
X1618095Y51179524D01*
X1641904Y51131905D01*
X1641904Y50989048D01*
X1618095Y50941429D01*
X1594285Y50917620D01*
X1546666Y50893810D01*
X1475238Y50893810D01*
X1856190Y50893810D02*
X1856190Y51227143D01*
X1856190Y51393810D02*
X1832380Y51370000D01*
X1856190Y51346191D01*
X1880000Y51370000D01*
X1856190Y51393810D01*
X1856190Y51346191D01*
X2094285Y51227143D02*
X2094285Y50893810D01*
X2094285Y51179524D02*
X2118095Y51203334D01*
X2165714Y51227143D01*
X2237142Y51227143D01*
X2284761Y51203334D01*
X2308571Y51155715D01*
X2308571Y50893810D01*
X2475238Y51227143D02*
X2665714Y51227143D01*
X2546666Y51393810D02*
X2546666Y50965239D01*
X2570476Y50917620D01*
X2618095Y50893810D01*
X2665714Y50893810D01*
G04 #@! TO.C,C57*
X30452190Y36143477D02*
X30452190Y35857762D01*
X30452190Y36000620D02*
X29952190Y36000620D01*
X30023619Y35953000D01*
X30071238Y35905381D01*
X30095047Y35857762D01*
X29952190Y36453000D02*
X29952190Y36500620D01*
X29976000Y36548239D01*
X29999809Y36572048D01*
X30047428Y36595858D01*
X30142666Y36619667D01*
X30261714Y36619667D01*
X30356952Y36595858D01*
X30404571Y36572048D01*
X30428380Y36548239D01*
X30452190Y36500620D01*
X30452190Y36453000D01*
X30428380Y36405381D01*
X30404571Y36381572D01*
X30356952Y36357762D01*
X30261714Y36333953D01*
X30142666Y36333953D01*
X30047428Y36357762D01*
X29999809Y36381572D01*
X29976000Y36405381D01*
X29952190Y36453000D01*
X29952190Y36929191D02*
X29952190Y36976810D01*
X29976000Y37024429D01*
X29999809Y37048239D01*
X30047428Y37072048D01*
X30142666Y37095858D01*
X30261714Y37095858D01*
X30356952Y37072048D01*
X30404571Y37048239D01*
X30428380Y37024429D01*
X30452190Y36976810D01*
X30452190Y36929191D01*
X30428380Y36881572D01*
X30404571Y36857762D01*
X30356952Y36833953D01*
X30261714Y36810143D01*
X30142666Y36810143D01*
X30047428Y36833953D01*
X29999809Y36857762D01*
X29976000Y36881572D01*
X29952190Y36929191D01*
X30118857Y37524429D02*
X30452190Y37524429D01*
X30118857Y37310143D02*
X30380761Y37310143D01*
X30428380Y37333953D01*
X30452190Y37381572D01*
X30452190Y37453000D01*
X30428380Y37500620D01*
X30404571Y37524429D01*
G04 #@! TO.C,C56*
X30452190Y45795477D02*
X30452190Y45509762D01*
X30452190Y45652620D02*
X29952190Y45652620D01*
X30023619Y45605000D01*
X30071238Y45557381D01*
X30095047Y45509762D01*
X29952190Y46105000D02*
X29952190Y46152620D01*
X29976000Y46200239D01*
X29999809Y46224048D01*
X30047428Y46247858D01*
X30142666Y46271667D01*
X30261714Y46271667D01*
X30356952Y46247858D01*
X30404571Y46224048D01*
X30428380Y46200239D01*
X30452190Y46152620D01*
X30452190Y46105000D01*
X30428380Y46057381D01*
X30404571Y46033572D01*
X30356952Y46009762D01*
X30261714Y45985953D01*
X30142666Y45985953D01*
X30047428Y46009762D01*
X29999809Y46033572D01*
X29976000Y46057381D01*
X29952190Y46105000D01*
X29952190Y46581191D02*
X29952190Y46628810D01*
X29976000Y46676429D01*
X29999809Y46700239D01*
X30047428Y46724048D01*
X30142666Y46747858D01*
X30261714Y46747858D01*
X30356952Y46724048D01*
X30404571Y46700239D01*
X30428380Y46676429D01*
X30452190Y46628810D01*
X30452190Y46581191D01*
X30428380Y46533572D01*
X30404571Y46509762D01*
X30356952Y46485953D01*
X30261714Y46462143D01*
X30142666Y46462143D01*
X30047428Y46485953D01*
X29999809Y46509762D01*
X29976000Y46533572D01*
X29952190Y46581191D01*
X30118857Y47176429D02*
X30452190Y47176429D01*
X30118857Y46962143D02*
X30380761Y46962143D01*
X30428380Y46985953D01*
X30452190Y47033572D01*
X30452190Y47105000D01*
X30428380Y47152620D01*
X30404571Y47176429D01*
G04 #@! TO.C,U1*
X16538380Y51265143D02*
X16562190Y51336572D01*
X16562190Y51455620D01*
X16538380Y51503239D01*
X16514571Y51527048D01*
X16466952Y51550858D01*
X16419333Y51550858D01*
X16371714Y51527048D01*
X16347904Y51503239D01*
X16324095Y51455620D01*
X16300285Y51360381D01*
X16276476Y51312762D01*
X16252666Y51288953D01*
X16205047Y51265143D01*
X16157428Y51265143D01*
X16109809Y51288953D01*
X16086000Y51312762D01*
X16062190Y51360381D01*
X16062190Y51479429D01*
X16086000Y51550858D01*
X16062190Y51693715D02*
X16062190Y51979429D01*
X16562190Y51836572D02*
X16062190Y51836572D01*
X16562190Y52146096D02*
X16062190Y52146096D01*
X16419333Y52312762D01*
X16062190Y52479429D01*
X16562190Y52479429D01*
X16062190Y52669905D02*
X16062190Y52979429D01*
X16252666Y52812762D01*
X16252666Y52884191D01*
X16276476Y52931810D01*
X16300285Y52955620D01*
X16347904Y52979429D01*
X16466952Y52979429D01*
X16514571Y52955620D01*
X16538380Y52931810D01*
X16562190Y52884191D01*
X16562190Y52741334D01*
X16538380Y52693715D01*
X16514571Y52669905D01*
X16109809Y53169905D02*
X16086000Y53193715D01*
X16062190Y53241334D01*
X16062190Y53360381D01*
X16086000Y53408000D01*
X16109809Y53431810D01*
X16157428Y53455620D01*
X16205047Y53455620D01*
X16276476Y53431810D01*
X16562190Y53146096D01*
X16562190Y53455620D01*
X16562190Y53908000D02*
X16562190Y53669905D01*
X16062190Y53669905D01*
X16228857Y54288953D02*
X16562190Y54288953D01*
X16038380Y54169905D02*
X16395523Y54050858D01*
X16395523Y54360381D01*
X16562190Y54574667D02*
X16562190Y54669905D01*
X16538380Y54717524D01*
X16514571Y54741334D01*
X16443142Y54788953D01*
X16347904Y54812762D01*
X16157428Y54812762D01*
X16109809Y54788953D01*
X16086000Y54765143D01*
X16062190Y54717524D01*
X16062190Y54622286D01*
X16086000Y54574667D01*
X16109809Y54550858D01*
X16157428Y54527048D01*
X16276476Y54527048D01*
X16324095Y54550858D01*
X16347904Y54574667D01*
X16371714Y54622286D01*
X16371714Y54717524D01*
X16347904Y54765143D01*
X16324095Y54788953D01*
X16276476Y54812762D01*
X16062190Y55241334D02*
X16062190Y55146096D01*
X16086000Y55098477D01*
X16109809Y55074667D01*
X16181238Y55027048D01*
X16276476Y55003239D01*
X16466952Y55003239D01*
X16514571Y55027048D01*
X16538380Y55050858D01*
X16562190Y55098477D01*
X16562190Y55193715D01*
X16538380Y55241334D01*
X16514571Y55265143D01*
X16466952Y55288953D01*
X16347904Y55288953D01*
X16300285Y55265143D01*
X16276476Y55241334D01*
X16252666Y55193715D01*
X16252666Y55098477D01*
X16276476Y55050858D01*
X16300285Y55027048D01*
X16347904Y55003239D01*
X16062190Y55455620D02*
X16062190Y55788953D01*
X16562190Y55455620D01*
X16562190Y55788953D01*
X16086000Y56241334D02*
X16062190Y56193715D01*
X16062190Y56122286D01*
X16086000Y56050858D01*
X16133619Y56003239D01*
X16181238Y55979429D01*
X16276476Y55955620D01*
X16347904Y55955620D01*
X16443142Y55979429D01*
X16490761Y56003239D01*
X16538380Y56050858D01*
X16562190Y56122286D01*
X16562190Y56169905D01*
X16538380Y56241334D01*
X16514571Y56265143D01*
X16347904Y56265143D01*
X16347904Y56169905D01*
X16062190Y56408000D02*
X16062190Y56693715D01*
X16562190Y56550858D02*
X16062190Y56550858D01*
X16562190Y56812762D02*
X16228857Y57074667D01*
X16228857Y56812762D02*
X16562190Y57074667D01*
G04 #@! TO.C,U3*
X34036190Y57429048D02*
X34036190Y57714762D01*
X34536190Y57571905D02*
X34036190Y57571905D01*
X34488571Y58167143D02*
X34512380Y58143334D01*
X34536190Y58071905D01*
X34536190Y58024286D01*
X34512380Y57952858D01*
X34464761Y57905239D01*
X34417142Y57881429D01*
X34321904Y57857620D01*
X34250476Y57857620D01*
X34155238Y57881429D01*
X34107619Y57905239D01*
X34060000Y57952858D01*
X34036190Y58024286D01*
X34036190Y58071905D01*
X34060000Y58143334D01*
X34083809Y58167143D01*
X34393333Y58357620D02*
X34393333Y58595715D01*
X34536190Y58310000D02*
X34036190Y58476667D01*
X34536190Y58643334D01*
X34536190Y58810000D02*
X34036190Y58810000D01*
X34536190Y59095715D01*
X34036190Y59095715D01*
X34536190Y59595715D02*
X34536190Y59310000D01*
X34536190Y59452858D02*
X34036190Y59452858D01*
X34107619Y59405239D01*
X34155238Y59357620D01*
X34179047Y59310000D01*
X34036190Y59905239D02*
X34036190Y59952858D01*
X34060000Y60000477D01*
X34083809Y60024286D01*
X34131428Y60048096D01*
X34226666Y60071905D01*
X34345714Y60071905D01*
X34440952Y60048096D01*
X34488571Y60024286D01*
X34512380Y60000477D01*
X34536190Y59952858D01*
X34536190Y59905239D01*
X34512380Y59857620D01*
X34488571Y59833810D01*
X34440952Y59810000D01*
X34345714Y59786191D01*
X34226666Y59786191D01*
X34131428Y59810000D01*
X34083809Y59833810D01*
X34060000Y59857620D01*
X34036190Y59905239D01*
X34036190Y60524286D02*
X34036190Y60286191D01*
X34274285Y60262381D01*
X34250476Y60286191D01*
X34226666Y60333810D01*
X34226666Y60452858D01*
X34250476Y60500477D01*
X34274285Y60524286D01*
X34321904Y60548096D01*
X34440952Y60548096D01*
X34488571Y60524286D01*
X34512380Y60500477D01*
X34536190Y60452858D01*
X34536190Y60333810D01*
X34512380Y60286191D01*
X34488571Y60262381D01*
X34536190Y61024286D02*
X34536190Y60738572D01*
X34536190Y60881429D02*
X34036190Y60881429D01*
X34107619Y60833810D01*
X34155238Y60786191D01*
X34179047Y60738572D01*
X34345714Y61238572D02*
X34345714Y61619524D01*
X34583809Y62190953D02*
X34560000Y62143334D01*
X34512380Y62095715D01*
X34440952Y62024286D01*
X34417142Y61976667D01*
X34417142Y61929048D01*
X34536190Y61952858D02*
X34512380Y61905239D01*
X34464761Y61857620D01*
X34369523Y61833810D01*
X34202857Y61833810D01*
X34107619Y61857620D01*
X34060000Y61905239D01*
X34036190Y61952858D01*
X34036190Y62048096D01*
X34060000Y62095715D01*
X34107619Y62143334D01*
X34202857Y62167143D01*
X34369523Y62167143D01*
X34464761Y62143334D01*
X34512380Y62095715D01*
X34536190Y62048096D01*
X34536190Y61952858D01*
X34536190Y62643334D02*
X34536190Y62357620D01*
X34536190Y62500477D02*
X34036190Y62500477D01*
X34107619Y62452858D01*
X34155238Y62405239D01*
X34179047Y62357620D01*
G04 #@! TO.C,M1*
D13*
X1309809Y37490810D02*
X1345523Y37478905D01*
X1405047Y37478905D01*
X1428857Y37490810D01*
X1440761Y37502715D01*
X1452666Y37526524D01*
X1452666Y37550334D01*
X1440761Y37574143D01*
X1428857Y37586048D01*
X1405047Y37597953D01*
X1357428Y37609858D01*
X1333619Y37621762D01*
X1321714Y37633667D01*
X1309809Y37657477D01*
X1309809Y37681286D01*
X1321714Y37705096D01*
X1333619Y37717000D01*
X1357428Y37728905D01*
X1416952Y37728905D01*
X1452666Y37717000D01*
X1547904Y37705096D02*
X1559809Y37717000D01*
X1583619Y37728905D01*
X1643142Y37728905D01*
X1666952Y37717000D01*
X1678857Y37705096D01*
X1690761Y37681286D01*
X1690761Y37657477D01*
X1678857Y37621762D01*
X1536000Y37478905D01*
X1690761Y37478905D01*
X1916952Y37728905D02*
X1797904Y37728905D01*
X1786000Y37609858D01*
X1797904Y37621762D01*
X1821714Y37633667D01*
X1881238Y37633667D01*
X1905047Y37621762D01*
X1916952Y37609858D01*
X1928857Y37586048D01*
X1928857Y37526524D01*
X1916952Y37502715D01*
X1905047Y37490810D01*
X1881238Y37478905D01*
X1821714Y37478905D01*
X1797904Y37490810D01*
X1786000Y37502715D01*
X2119333Y37609858D02*
X2036000Y37609858D01*
X2036000Y37478905D02*
X2036000Y37728905D01*
X2155047Y37728905D01*
X2369333Y37478905D02*
X2250285Y37478905D01*
X2250285Y37728905D01*
X2440761Y37705096D02*
X2452666Y37717000D01*
X2476476Y37728905D01*
X2536000Y37728905D01*
X2559809Y37717000D01*
X2571714Y37705096D01*
X2583619Y37681286D01*
X2583619Y37657477D01*
X2571714Y37621762D01*
X2428857Y37478905D01*
X2583619Y37478905D01*
X2809809Y37728905D02*
X2690761Y37728905D01*
X2678857Y37609858D01*
X2690761Y37621762D01*
X2714571Y37633667D01*
X2774095Y37633667D01*
X2797904Y37621762D01*
X2809809Y37609858D01*
X2821714Y37586048D01*
X2821714Y37526524D01*
X2809809Y37502715D01*
X2797904Y37490810D01*
X2774095Y37478905D01*
X2714571Y37478905D01*
X2690761Y37490810D01*
X2678857Y37502715D01*
X3036000Y37728905D02*
X2988380Y37728905D01*
X2964571Y37717000D01*
X2952666Y37705096D01*
X2928857Y37669381D01*
X2916952Y37621762D01*
X2916952Y37526524D01*
X2928857Y37502715D01*
X2940761Y37490810D01*
X2964571Y37478905D01*
X3012190Y37478905D01*
X3036000Y37490810D01*
X3047904Y37502715D01*
X3059809Y37526524D01*
X3059809Y37586048D01*
X3047904Y37609858D01*
X3036000Y37621762D01*
X3012190Y37633667D01*
X2964571Y37633667D01*
X2940761Y37621762D01*
X2928857Y37609858D01*
X2916952Y37586048D01*
X3286000Y37478905D02*
X3166952Y37478905D01*
X3166952Y37728905D01*
G04 #@! TO.C,M3*
X22391809Y37490810D02*
X22427523Y37478905D01*
X22487047Y37478905D01*
X22510857Y37490810D01*
X22522761Y37502715D01*
X22534666Y37526524D01*
X22534666Y37550334D01*
X22522761Y37574143D01*
X22510857Y37586048D01*
X22487047Y37597953D01*
X22439428Y37609858D01*
X22415619Y37621762D01*
X22403714Y37633667D01*
X22391809Y37657477D01*
X22391809Y37681286D01*
X22403714Y37705096D01*
X22415619Y37717000D01*
X22439428Y37728905D01*
X22498952Y37728905D01*
X22534666Y37717000D01*
X22629904Y37705096D02*
X22641809Y37717000D01*
X22665619Y37728905D01*
X22725142Y37728905D01*
X22748952Y37717000D01*
X22760857Y37705096D01*
X22772761Y37681286D01*
X22772761Y37657477D01*
X22760857Y37621762D01*
X22618000Y37478905D01*
X22772761Y37478905D01*
X22998952Y37728905D02*
X22879904Y37728905D01*
X22868000Y37609858D01*
X22879904Y37621762D01*
X22903714Y37633667D01*
X22963238Y37633667D01*
X22987047Y37621762D01*
X22998952Y37609858D01*
X23010857Y37586048D01*
X23010857Y37526524D01*
X22998952Y37502715D01*
X22987047Y37490810D01*
X22963238Y37478905D01*
X22903714Y37478905D01*
X22879904Y37490810D01*
X22868000Y37502715D01*
X23201333Y37609858D02*
X23118000Y37609858D01*
X23118000Y37478905D02*
X23118000Y37728905D01*
X23237047Y37728905D01*
X23451333Y37478905D02*
X23332285Y37478905D01*
X23332285Y37728905D01*
X23522761Y37705096D02*
X23534666Y37717000D01*
X23558476Y37728905D01*
X23618000Y37728905D01*
X23641809Y37717000D01*
X23653714Y37705096D01*
X23665619Y37681286D01*
X23665619Y37657477D01*
X23653714Y37621762D01*
X23510857Y37478905D01*
X23665619Y37478905D01*
X23891809Y37728905D02*
X23772761Y37728905D01*
X23760857Y37609858D01*
X23772761Y37621762D01*
X23796571Y37633667D01*
X23856095Y37633667D01*
X23879904Y37621762D01*
X23891809Y37609858D01*
X23903714Y37586048D01*
X23903714Y37526524D01*
X23891809Y37502715D01*
X23879904Y37490810D01*
X23856095Y37478905D01*
X23796571Y37478905D01*
X23772761Y37490810D01*
X23760857Y37502715D01*
X24118000Y37728905D02*
X24070380Y37728905D01*
X24046571Y37717000D01*
X24034666Y37705096D01*
X24010857Y37669381D01*
X23998952Y37621762D01*
X23998952Y37526524D01*
X24010857Y37502715D01*
X24022761Y37490810D01*
X24046571Y37478905D01*
X24094190Y37478905D01*
X24118000Y37490810D01*
X24129904Y37502715D01*
X24141809Y37526524D01*
X24141809Y37586048D01*
X24129904Y37609858D01*
X24118000Y37621762D01*
X24094190Y37633667D01*
X24046571Y37633667D01*
X24022761Y37621762D01*
X24010857Y37609858D01*
X23998952Y37586048D01*
X24368000Y37478905D02*
X24248952Y37478905D01*
X24248952Y37728905D01*
G04 #@! TO.C,M2*
X11850809Y37490810D02*
X11886523Y37478905D01*
X11946047Y37478905D01*
X11969857Y37490810D01*
X11981761Y37502715D01*
X11993666Y37526524D01*
X11993666Y37550334D01*
X11981761Y37574143D01*
X11969857Y37586048D01*
X11946047Y37597953D01*
X11898428Y37609858D01*
X11874619Y37621762D01*
X11862714Y37633667D01*
X11850809Y37657477D01*
X11850809Y37681286D01*
X11862714Y37705096D01*
X11874619Y37717000D01*
X11898428Y37728905D01*
X11957952Y37728905D01*
X11993666Y37717000D01*
X12088904Y37705096D02*
X12100809Y37717000D01*
X12124619Y37728905D01*
X12184142Y37728905D01*
X12207952Y37717000D01*
X12219857Y37705096D01*
X12231761Y37681286D01*
X12231761Y37657477D01*
X12219857Y37621762D01*
X12077000Y37478905D01*
X12231761Y37478905D01*
X12457952Y37728905D02*
X12338904Y37728905D01*
X12327000Y37609858D01*
X12338904Y37621762D01*
X12362714Y37633667D01*
X12422238Y37633667D01*
X12446047Y37621762D01*
X12457952Y37609858D01*
X12469857Y37586048D01*
X12469857Y37526524D01*
X12457952Y37502715D01*
X12446047Y37490810D01*
X12422238Y37478905D01*
X12362714Y37478905D01*
X12338904Y37490810D01*
X12327000Y37502715D01*
X12660333Y37609858D02*
X12577000Y37609858D01*
X12577000Y37478905D02*
X12577000Y37728905D01*
X12696047Y37728905D01*
X12910333Y37478905D02*
X12791285Y37478905D01*
X12791285Y37728905D01*
X12981761Y37705096D02*
X12993666Y37717000D01*
X13017476Y37728905D01*
X13077000Y37728905D01*
X13100809Y37717000D01*
X13112714Y37705096D01*
X13124619Y37681286D01*
X13124619Y37657477D01*
X13112714Y37621762D01*
X12969857Y37478905D01*
X13124619Y37478905D01*
X13350809Y37728905D02*
X13231761Y37728905D01*
X13219857Y37609858D01*
X13231761Y37621762D01*
X13255571Y37633667D01*
X13315095Y37633667D01*
X13338904Y37621762D01*
X13350809Y37609858D01*
X13362714Y37586048D01*
X13362714Y37526524D01*
X13350809Y37502715D01*
X13338904Y37490810D01*
X13315095Y37478905D01*
X13255571Y37478905D01*
X13231761Y37490810D01*
X13219857Y37502715D01*
X13577000Y37728905D02*
X13529380Y37728905D01*
X13505571Y37717000D01*
X13493666Y37705096D01*
X13469857Y37669381D01*
X13457952Y37621762D01*
X13457952Y37526524D01*
X13469857Y37502715D01*
X13481761Y37490810D01*
X13505571Y37478905D01*
X13553190Y37478905D01*
X13577000Y37490810D01*
X13588904Y37502715D01*
X13600809Y37526524D01*
X13600809Y37586048D01*
X13588904Y37609858D01*
X13577000Y37621762D01*
X13553190Y37633667D01*
X13505571Y37633667D01*
X13481761Y37621762D01*
X13469857Y37609858D01*
X13457952Y37586048D01*
X13827000Y37478905D02*
X13707952Y37478905D01*
X13707952Y37728905D01*
G04 #@! TO.C,U2*
D11*
X-1583810Y53369048D02*
X-1583810Y53654762D01*
X-1083810Y53511905D02*
X-1583810Y53511905D01*
X-1131429Y54107143D02*
X-1107620Y54083334D01*
X-1083810Y54011905D01*
X-1083810Y53964286D01*
X-1107620Y53892858D01*
X-1155239Y53845239D01*
X-1202858Y53821429D01*
X-1298096Y53797620D01*
X-1369524Y53797620D01*
X-1464762Y53821429D01*
X-1512381Y53845239D01*
X-1560000Y53892858D01*
X-1583810Y53964286D01*
X-1583810Y54011905D01*
X-1560000Y54083334D01*
X-1536191Y54107143D01*
X-1226667Y54297620D02*
X-1226667Y54535715D01*
X-1083810Y54250000D02*
X-1583810Y54416667D01*
X-1083810Y54583334D01*
X-1083810Y54750000D02*
X-1583810Y54750000D01*
X-1083810Y55035715D01*
X-1583810Y55035715D01*
X-1083810Y55535715D02*
X-1083810Y55250000D01*
X-1083810Y55392858D02*
X-1583810Y55392858D01*
X-1512381Y55345239D01*
X-1464762Y55297620D01*
X-1440953Y55250000D01*
X-1583810Y55845239D02*
X-1583810Y55892858D01*
X-1560000Y55940477D01*
X-1536191Y55964286D01*
X-1488572Y55988096D01*
X-1393334Y56011905D01*
X-1274286Y56011905D01*
X-1179048Y55988096D01*
X-1131429Y55964286D01*
X-1107620Y55940477D01*
X-1083810Y55892858D01*
X-1083810Y55845239D01*
X-1107620Y55797620D01*
X-1131429Y55773810D01*
X-1179048Y55750000D01*
X-1274286Y55726191D01*
X-1393334Y55726191D01*
X-1488572Y55750000D01*
X-1536191Y55773810D01*
X-1560000Y55797620D01*
X-1583810Y55845239D01*
X-1583810Y56464286D02*
X-1583810Y56226191D01*
X-1345715Y56202381D01*
X-1369524Y56226191D01*
X-1393334Y56273810D01*
X-1393334Y56392858D01*
X-1369524Y56440477D01*
X-1345715Y56464286D01*
X-1298096Y56488096D01*
X-1179048Y56488096D01*
X-1131429Y56464286D01*
X-1107620Y56440477D01*
X-1083810Y56392858D01*
X-1083810Y56273810D01*
X-1107620Y56226191D01*
X-1131429Y56202381D01*
X-1083810Y56964286D02*
X-1083810Y56678572D01*
X-1083810Y56821429D02*
X-1583810Y56821429D01*
X-1512381Y56773810D01*
X-1464762Y56726191D01*
X-1440953Y56678572D01*
X-1274286Y57178572D02*
X-1274286Y57559524D01*
X-1036191Y58130953D02*
X-1060000Y58083334D01*
X-1107620Y58035715D01*
X-1179048Y57964286D01*
X-1202858Y57916667D01*
X-1202858Y57869048D01*
X-1083810Y57892858D02*
X-1107620Y57845239D01*
X-1155239Y57797620D01*
X-1250477Y57773810D01*
X-1417143Y57773810D01*
X-1512381Y57797620D01*
X-1560000Y57845239D01*
X-1583810Y57892858D01*
X-1583810Y57988096D01*
X-1560000Y58035715D01*
X-1512381Y58083334D01*
X-1417143Y58107143D01*
X-1250477Y58107143D01*
X-1155239Y58083334D01*
X-1107620Y58035715D01*
X-1083810Y57988096D01*
X-1083810Y57892858D01*
X-1083810Y58583334D02*
X-1083810Y58297620D01*
X-1083810Y58440477D02*
X-1583810Y58440477D01*
X-1512381Y58392858D01*
X-1464762Y58345239D01*
X-1440953Y58297620D01*
G04 #@! TO.C,EF2*
X31659047Y41303810D02*
X31944761Y41303810D01*
X31801904Y40803810D02*
X31801904Y41303810D01*
X32111428Y40803810D02*
X32111428Y41303810D01*
X32301904Y41303810D01*
X32349523Y41280000D01*
X32373333Y41256191D01*
X32397142Y41208572D01*
X32397142Y41137143D01*
X32373333Y41089524D01*
X32349523Y41065715D01*
X32301904Y41041905D01*
X32111428Y41041905D01*
X32587619Y40827620D02*
X32659047Y40803810D01*
X32778095Y40803810D01*
X32825714Y40827620D01*
X32849523Y40851429D01*
X32873333Y40899048D01*
X32873333Y40946667D01*
X32849523Y40994286D01*
X32825714Y41018096D01*
X32778095Y41041905D01*
X32682857Y41065715D01*
X32635238Y41089524D01*
X32611428Y41113334D01*
X32587619Y41160953D01*
X32587619Y41208572D01*
X32611428Y41256191D01*
X32635238Y41280000D01*
X32682857Y41303810D01*
X32801904Y41303810D01*
X32873333Y41280000D01*
X33063809Y41256191D02*
X33087619Y41280000D01*
X33135238Y41303810D01*
X33254285Y41303810D01*
X33301904Y41280000D01*
X33325714Y41256191D01*
X33349523Y41208572D01*
X33349523Y41160953D01*
X33325714Y41089524D01*
X33040000Y40803810D01*
X33349523Y40803810D01*
X33801904Y41303810D02*
X33563809Y41303810D01*
X33540000Y41065715D01*
X33563809Y41089524D01*
X33611428Y41113334D01*
X33730476Y41113334D01*
X33778095Y41089524D01*
X33801904Y41065715D01*
X33825714Y41018096D01*
X33825714Y40899048D01*
X33801904Y40851429D01*
X33778095Y40827620D01*
X33730476Y40803810D01*
X33611428Y40803810D01*
X33563809Y40827620D01*
X33540000Y40851429D01*
X34063809Y40803810D02*
X34159047Y40803810D01*
X34206666Y40827620D01*
X34230476Y40851429D01*
X34278095Y40922858D01*
X34301904Y41018096D01*
X34301904Y41208572D01*
X34278095Y41256191D01*
X34254285Y41280000D01*
X34206666Y41303810D01*
X34111428Y41303810D01*
X34063809Y41280000D01*
X34040000Y41256191D01*
X34016190Y41208572D01*
X34016190Y41089524D01*
X34040000Y41041905D01*
X34063809Y41018096D01*
X34111428Y40994286D01*
X34206666Y40994286D01*
X34254285Y41018096D01*
X34278095Y41041905D01*
X34301904Y41089524D01*
X34730476Y41137143D02*
X34730476Y40803810D01*
X34611428Y41327620D02*
X34492380Y40970477D01*
X34801904Y40970477D01*
X35087619Y41303810D02*
X35135238Y41303810D01*
X35182857Y41280000D01*
X35206666Y41256191D01*
X35230476Y41208572D01*
X35254285Y41113334D01*
X35254285Y40994286D01*
X35230476Y40899048D01*
X35206666Y40851429D01*
X35182857Y40827620D01*
X35135238Y40803810D01*
X35087619Y40803810D01*
X35040000Y40827620D01*
X35016190Y40851429D01*
X34992380Y40899048D01*
X34968571Y40994286D01*
X34968571Y41113334D01*
X34992380Y41208572D01*
X35016190Y41256191D01*
X35040000Y41280000D01*
X35087619Y41303810D01*
X35468571Y40994286D02*
X35849523Y40994286D01*
X36420952Y40756191D02*
X36373333Y40780000D01*
X36325714Y40827620D01*
X36254285Y40899048D01*
X36206666Y40922858D01*
X36159047Y40922858D01*
X36182857Y40803810D02*
X36135238Y40827620D01*
X36087619Y40875239D01*
X36063809Y40970477D01*
X36063809Y41137143D01*
X36087619Y41232381D01*
X36135238Y41280000D01*
X36182857Y41303810D01*
X36278095Y41303810D01*
X36325714Y41280000D01*
X36373333Y41232381D01*
X36397142Y41137143D01*
X36397142Y40970477D01*
X36373333Y40875239D01*
X36325714Y40827620D01*
X36278095Y40803810D01*
X36182857Y40803810D01*
X36873333Y40803810D02*
X36587619Y40803810D01*
X36730476Y40803810D02*
X36730476Y41303810D01*
X36682857Y41232381D01*
X36635238Y41184762D01*
X36587619Y41160953D01*
G04 #@! TO.C,JC1*
X762380Y45255239D02*
X786190Y45326667D01*
X786190Y45445715D01*
X762380Y45493334D01*
X738571Y45517143D01*
X690952Y45540953D01*
X643333Y45540953D01*
X595714Y45517143D01*
X571904Y45493334D01*
X548095Y45445715D01*
X524285Y45350477D01*
X500476Y45302858D01*
X476666Y45279048D01*
X429047Y45255239D01*
X381428Y45255239D01*
X333809Y45279048D01*
X310000Y45302858D01*
X286190Y45350477D01*
X286190Y45469524D01*
X310000Y45540953D01*
X286190Y45707620D02*
X786190Y45826667D01*
X429047Y45921905D01*
X786190Y46017143D01*
X286190Y46136191D01*
X786190Y46731429D02*
X786190Y46707620D01*
X762380Y46660000D01*
X690952Y46588572D01*
X548095Y46469524D01*
X476666Y46421905D01*
X405238Y46398096D01*
X357619Y46398096D01*
X310000Y46421905D01*
X286190Y46469524D01*
X286190Y46493334D01*
X310000Y46540953D01*
X357619Y46564762D01*
X381428Y46564762D01*
X429047Y46540953D01*
X452857Y46517143D01*
X548095Y46374286D01*
X571904Y46350477D01*
X619523Y46326667D01*
X690952Y46326667D01*
X738571Y46350477D01*
X762380Y46374286D01*
X786190Y46421905D01*
X786190Y46493334D01*
X762380Y46540953D01*
X738571Y46564762D01*
X643333Y46636191D01*
X571904Y46660000D01*
X524285Y46660000D01*
X286190Y46945715D02*
X690952Y46945715D01*
X738571Y46969524D01*
X762380Y46993334D01*
X786190Y47040953D01*
X786190Y47136191D01*
X762380Y47183810D01*
X738571Y47207620D01*
X690952Y47231429D01*
X286190Y47231429D01*
X643333Y47445715D02*
X643333Y47683810D01*
X786190Y47398096D02*
X286190Y47564762D01*
X786190Y47731429D01*
X786190Y48183810D02*
X548095Y48017143D01*
X786190Y47898096D02*
X286190Y47898096D01*
X286190Y48088572D01*
X310000Y48136191D01*
X333809Y48160000D01*
X381428Y48183810D01*
X452857Y48183810D01*
X500476Y48160000D01*
X524285Y48136191D01*
X548095Y48088572D01*
X548095Y47898096D01*
X286190Y48326667D02*
X286190Y48612381D01*
X786190Y48469524D02*
X286190Y48469524D01*
G04 #@! TO.C,EF1*
X31659047Y50943810D02*
X31944761Y50943810D01*
X31801904Y50443810D02*
X31801904Y50943810D01*
X32111428Y50443810D02*
X32111428Y50943810D01*
X32301904Y50943810D01*
X32349523Y50920000D01*
X32373333Y50896191D01*
X32397142Y50848572D01*
X32397142Y50777143D01*
X32373333Y50729524D01*
X32349523Y50705715D01*
X32301904Y50681905D01*
X32111428Y50681905D01*
X32587619Y50467620D02*
X32659047Y50443810D01*
X32778095Y50443810D01*
X32825714Y50467620D01*
X32849523Y50491429D01*
X32873333Y50539048D01*
X32873333Y50586667D01*
X32849523Y50634286D01*
X32825714Y50658096D01*
X32778095Y50681905D01*
X32682857Y50705715D01*
X32635238Y50729524D01*
X32611428Y50753334D01*
X32587619Y50800953D01*
X32587619Y50848572D01*
X32611428Y50896191D01*
X32635238Y50920000D01*
X32682857Y50943810D01*
X32801904Y50943810D01*
X32873333Y50920000D01*
X33063809Y50896191D02*
X33087619Y50920000D01*
X33135238Y50943810D01*
X33254285Y50943810D01*
X33301904Y50920000D01*
X33325714Y50896191D01*
X33349523Y50848572D01*
X33349523Y50800953D01*
X33325714Y50729524D01*
X33040000Y50443810D01*
X33349523Y50443810D01*
X33801904Y50943810D02*
X33563809Y50943810D01*
X33540000Y50705715D01*
X33563809Y50729524D01*
X33611428Y50753334D01*
X33730476Y50753334D01*
X33778095Y50729524D01*
X33801904Y50705715D01*
X33825714Y50658096D01*
X33825714Y50539048D01*
X33801904Y50491429D01*
X33778095Y50467620D01*
X33730476Y50443810D01*
X33611428Y50443810D01*
X33563809Y50467620D01*
X33540000Y50491429D01*
X34063809Y50443810D02*
X34159047Y50443810D01*
X34206666Y50467620D01*
X34230476Y50491429D01*
X34278095Y50562858D01*
X34301904Y50658096D01*
X34301904Y50848572D01*
X34278095Y50896191D01*
X34254285Y50920000D01*
X34206666Y50943810D01*
X34111428Y50943810D01*
X34063809Y50920000D01*
X34040000Y50896191D01*
X34016190Y50848572D01*
X34016190Y50729524D01*
X34040000Y50681905D01*
X34063809Y50658096D01*
X34111428Y50634286D01*
X34206666Y50634286D01*
X34254285Y50658096D01*
X34278095Y50681905D01*
X34301904Y50729524D01*
X34730476Y50777143D02*
X34730476Y50443810D01*
X34611428Y50967620D02*
X34492380Y50610477D01*
X34801904Y50610477D01*
X35087619Y50943810D02*
X35135238Y50943810D01*
X35182857Y50920000D01*
X35206666Y50896191D01*
X35230476Y50848572D01*
X35254285Y50753334D01*
X35254285Y50634286D01*
X35230476Y50539048D01*
X35206666Y50491429D01*
X35182857Y50467620D01*
X35135238Y50443810D01*
X35087619Y50443810D01*
X35040000Y50467620D01*
X35016190Y50491429D01*
X34992380Y50539048D01*
X34968571Y50634286D01*
X34968571Y50753334D01*
X34992380Y50848572D01*
X35016190Y50896191D01*
X35040000Y50920000D01*
X35087619Y50943810D01*
X35468571Y50634286D02*
X35849523Y50634286D01*
X36420952Y50396191D02*
X36373333Y50420000D01*
X36325714Y50467620D01*
X36254285Y50539048D01*
X36206666Y50562858D01*
X36159047Y50562858D01*
X36182857Y50443810D02*
X36135238Y50467620D01*
X36087619Y50515239D01*
X36063809Y50610477D01*
X36063809Y50777143D01*
X36087619Y50872381D01*
X36135238Y50920000D01*
X36182857Y50943810D01*
X36278095Y50943810D01*
X36325714Y50920000D01*
X36373333Y50872381D01*
X36397142Y50777143D01*
X36397142Y50610477D01*
X36373333Y50515239D01*
X36325714Y50467620D01*
X36278095Y50443810D01*
X36182857Y50443810D01*
X36873333Y50443810D02*
X36587619Y50443810D01*
X36730476Y50443810D02*
X36730476Y50943810D01*
X36682857Y50872381D01*
X36635238Y50824762D01*
X36587619Y50800953D01*
G04 #@! TO.C,Q2*
X30873333Y47063810D02*
X31159047Y47063810D01*
X31016190Y46563810D02*
X31016190Y47063810D01*
X31325714Y46563810D02*
X31325714Y47063810D01*
X31516190Y47063810D01*
X31563809Y47040000D01*
X31587619Y47016191D01*
X31611428Y46968572D01*
X31611428Y46897143D01*
X31587619Y46849524D01*
X31563809Y46825715D01*
X31516190Y46801905D01*
X31325714Y46801905D01*
X31801904Y46587620D02*
X31873333Y46563810D01*
X31992380Y46563810D01*
X32040000Y46587620D01*
X32063809Y46611429D01*
X32087619Y46659048D01*
X32087619Y46706667D01*
X32063809Y46754286D01*
X32040000Y46778096D01*
X31992380Y46801905D01*
X31897142Y46825715D01*
X31849523Y46849524D01*
X31825714Y46873334D01*
X31801904Y46920953D01*
X31801904Y46968572D01*
X31825714Y47016191D01*
X31849523Y47040000D01*
X31897142Y47063810D01*
X32016190Y47063810D01*
X32087619Y47040000D01*
X32278095Y47016191D02*
X32301904Y47040000D01*
X32349523Y47063810D01*
X32468571Y47063810D01*
X32516190Y47040000D01*
X32540000Y47016191D01*
X32563809Y46968572D01*
X32563809Y46920953D01*
X32540000Y46849524D01*
X32254285Y46563810D01*
X32563809Y46563810D01*
X32754285Y47016191D02*
X32778095Y47040000D01*
X32825714Y47063810D01*
X32944761Y47063810D01*
X32992380Y47040000D01*
X33016190Y47016191D01*
X33040000Y46968572D01*
X33040000Y46920953D01*
X33016190Y46849524D01*
X32730476Y46563810D01*
X33040000Y46563810D01*
X33278095Y46563810D02*
X33373333Y46563810D01*
X33420952Y46587620D01*
X33444761Y46611429D01*
X33492380Y46682858D01*
X33516190Y46778096D01*
X33516190Y46968572D01*
X33492380Y47016191D01*
X33468571Y47040000D01*
X33420952Y47063810D01*
X33325714Y47063810D01*
X33278095Y47040000D01*
X33254285Y47016191D01*
X33230476Y46968572D01*
X33230476Y46849524D01*
X33254285Y46801905D01*
X33278095Y46778096D01*
X33325714Y46754286D01*
X33420952Y46754286D01*
X33468571Y46778096D01*
X33492380Y46801905D01*
X33516190Y46849524D01*
X33944761Y47063810D02*
X33849523Y47063810D01*
X33801904Y47040000D01*
X33778095Y47016191D01*
X33730476Y46944762D01*
X33706666Y46849524D01*
X33706666Y46659048D01*
X33730476Y46611429D01*
X33754285Y46587620D01*
X33801904Y46563810D01*
X33897142Y46563810D01*
X33944761Y46587620D01*
X33968571Y46611429D01*
X33992380Y46659048D01*
X33992380Y46778096D01*
X33968571Y46825715D01*
X33944761Y46849524D01*
X33897142Y46873334D01*
X33801904Y46873334D01*
X33754285Y46849524D01*
X33730476Y46825715D01*
X33706666Y46778096D01*
X34444761Y47063810D02*
X34206666Y47063810D01*
X34182857Y46825715D01*
X34206666Y46849524D01*
X34254285Y46873334D01*
X34373333Y46873334D01*
X34420952Y46849524D01*
X34444761Y46825715D01*
X34468571Y46778096D01*
X34468571Y46659048D01*
X34444761Y46611429D01*
X34420952Y46587620D01*
X34373333Y46563810D01*
X34254285Y46563810D01*
X34206666Y46587620D01*
X34182857Y46611429D01*
X34635238Y47063810D02*
X34754285Y46563810D01*
X34849523Y46920953D01*
X34944761Y46563810D01*
X35063809Y47063810D01*
X35254285Y46754286D02*
X35635238Y46754286D01*
X36206666Y46516191D02*
X36159047Y46540000D01*
X36111428Y46587620D01*
X36040000Y46659048D01*
X35992380Y46682858D01*
X35944761Y46682858D01*
X35968571Y46563810D02*
X35920952Y46587620D01*
X35873333Y46635239D01*
X35849523Y46730477D01*
X35849523Y46897143D01*
X35873333Y46992381D01*
X35920952Y47040000D01*
X35968571Y47063810D01*
X36063809Y47063810D01*
X36111428Y47040000D01*
X36159047Y46992381D01*
X36182857Y46897143D01*
X36182857Y46730477D01*
X36159047Y46635239D01*
X36111428Y46587620D01*
X36063809Y46563810D01*
X35968571Y46563810D01*
X36659047Y46563810D02*
X36373333Y46563810D01*
X36516190Y46563810D02*
X36516190Y47063810D01*
X36468571Y46992381D01*
X36420952Y46944762D01*
X36373333Y46920953D01*
G04 #@! TO.C,Q1*
X-1883810Y59999048D02*
X-1883810Y60284762D01*
X-1383810Y60141905D02*
X-1883810Y60141905D01*
X-1383810Y60451429D02*
X-1883810Y60451429D01*
X-1883810Y60641905D01*
X-1860000Y60689524D01*
X-1836191Y60713334D01*
X-1788572Y60737143D01*
X-1717143Y60737143D01*
X-1669524Y60713334D01*
X-1645715Y60689524D01*
X-1621905Y60641905D01*
X-1621905Y60451429D01*
X-1407620Y60927620D02*
X-1383810Y60999048D01*
X-1383810Y61118096D01*
X-1407620Y61165715D01*
X-1431429Y61189524D01*
X-1479048Y61213334D01*
X-1526667Y61213334D01*
X-1574286Y61189524D01*
X-1598096Y61165715D01*
X-1621905Y61118096D01*
X-1645715Y61022858D01*
X-1669524Y60975239D01*
X-1693334Y60951429D01*
X-1740953Y60927620D01*
X-1788572Y60927620D01*
X-1836191Y60951429D01*
X-1860000Y60975239D01*
X-1883810Y61022858D01*
X-1883810Y61141905D01*
X-1860000Y61213334D01*
X-1836191Y61403810D02*
X-1860000Y61427620D01*
X-1883810Y61475239D01*
X-1883810Y61594286D01*
X-1860000Y61641905D01*
X-1836191Y61665715D01*
X-1788572Y61689524D01*
X-1740953Y61689524D01*
X-1669524Y61665715D01*
X-1383810Y61380000D01*
X-1383810Y61689524D01*
X-1836191Y61880000D02*
X-1860000Y61903810D01*
X-1883810Y61951429D01*
X-1883810Y62070477D01*
X-1860000Y62118096D01*
X-1836191Y62141905D01*
X-1788572Y62165715D01*
X-1740953Y62165715D01*
X-1669524Y62141905D01*
X-1383810Y61856191D01*
X-1383810Y62165715D01*
X-1383810Y62403810D02*
X-1383810Y62499048D01*
X-1407620Y62546667D01*
X-1431429Y62570477D01*
X-1502858Y62618096D01*
X-1598096Y62641905D01*
X-1788572Y62641905D01*
X-1836191Y62618096D01*
X-1860000Y62594286D01*
X-1883810Y62546667D01*
X-1883810Y62451429D01*
X-1860000Y62403810D01*
X-1836191Y62380000D01*
X-1788572Y62356191D01*
X-1669524Y62356191D01*
X-1621905Y62380000D01*
X-1598096Y62403810D01*
X-1574286Y62451429D01*
X-1574286Y62546667D01*
X-1598096Y62594286D01*
X-1621905Y62618096D01*
X-1669524Y62641905D01*
X-1883810Y63070477D02*
X-1883810Y62975239D01*
X-1860000Y62927620D01*
X-1836191Y62903810D01*
X-1764762Y62856191D01*
X-1669524Y62832381D01*
X-1479048Y62832381D01*
X-1431429Y62856191D01*
X-1407620Y62880000D01*
X-1383810Y62927620D01*
X-1383810Y63022858D01*
X-1407620Y63070477D01*
X-1431429Y63094286D01*
X-1479048Y63118096D01*
X-1598096Y63118096D01*
X-1645715Y63094286D01*
X-1669524Y63070477D01*
X-1693334Y63022858D01*
X-1693334Y62927620D01*
X-1669524Y62880000D01*
X-1645715Y62856191D01*
X-1598096Y62832381D01*
X-1883810Y63570477D02*
X-1883810Y63332381D01*
X-1645715Y63308572D01*
X-1669524Y63332381D01*
X-1693334Y63380000D01*
X-1693334Y63499048D01*
X-1669524Y63546667D01*
X-1645715Y63570477D01*
X-1598096Y63594286D01*
X-1479048Y63594286D01*
X-1431429Y63570477D01*
X-1407620Y63546667D01*
X-1383810Y63499048D01*
X-1383810Y63380000D01*
X-1407620Y63332381D01*
X-1431429Y63308572D01*
X-1574286Y63808572D02*
X-1574286Y64189524D01*
X-1336191Y64760953D02*
X-1360000Y64713334D01*
X-1407620Y64665715D01*
X-1479048Y64594286D01*
X-1502858Y64546667D01*
X-1502858Y64499048D01*
X-1383810Y64522858D02*
X-1407620Y64475239D01*
X-1455239Y64427620D01*
X-1550477Y64403810D01*
X-1717143Y64403810D01*
X-1812381Y64427620D01*
X-1860000Y64475239D01*
X-1883810Y64522858D01*
X-1883810Y64618096D01*
X-1860000Y64665715D01*
X-1812381Y64713334D01*
X-1717143Y64737143D01*
X-1550477Y64737143D01*
X-1455239Y64713334D01*
X-1407620Y64665715D01*
X-1383810Y64618096D01*
X-1383810Y64522858D01*
X-1383810Y65213334D02*
X-1383810Y64927620D01*
X-1383810Y65070477D02*
X-1883810Y65070477D01*
X-1812381Y65022858D01*
X-1764762Y64975239D01*
X-1740953Y64927620D01*
G04 #@! TO.C,Q3*
X30873333Y37423810D02*
X31159047Y37423810D01*
X31016190Y36923810D02*
X31016190Y37423810D01*
X31325714Y36923810D02*
X31325714Y37423810D01*
X31516190Y37423810D01*
X31563809Y37400000D01*
X31587619Y37376191D01*
X31611428Y37328572D01*
X31611428Y37257143D01*
X31587619Y37209524D01*
X31563809Y37185715D01*
X31516190Y37161905D01*
X31325714Y37161905D01*
X31801904Y36947620D02*
X31873333Y36923810D01*
X31992380Y36923810D01*
X32040000Y36947620D01*
X32063809Y36971429D01*
X32087619Y37019048D01*
X32087619Y37066667D01*
X32063809Y37114286D01*
X32040000Y37138096D01*
X31992380Y37161905D01*
X31897142Y37185715D01*
X31849523Y37209524D01*
X31825714Y37233334D01*
X31801904Y37280953D01*
X31801904Y37328572D01*
X31825714Y37376191D01*
X31849523Y37400000D01*
X31897142Y37423810D01*
X32016190Y37423810D01*
X32087619Y37400000D01*
X32278095Y37376191D02*
X32301904Y37400000D01*
X32349523Y37423810D01*
X32468571Y37423810D01*
X32516190Y37400000D01*
X32540000Y37376191D01*
X32563809Y37328572D01*
X32563809Y37280953D01*
X32540000Y37209524D01*
X32254285Y36923810D01*
X32563809Y36923810D01*
X32754285Y37376191D02*
X32778095Y37400000D01*
X32825714Y37423810D01*
X32944761Y37423810D01*
X32992380Y37400000D01*
X33016190Y37376191D01*
X33040000Y37328572D01*
X33040000Y37280953D01*
X33016190Y37209524D01*
X32730476Y36923810D01*
X33040000Y36923810D01*
X33278095Y36923810D02*
X33373333Y36923810D01*
X33420952Y36947620D01*
X33444761Y36971429D01*
X33492380Y37042858D01*
X33516190Y37138096D01*
X33516190Y37328572D01*
X33492380Y37376191D01*
X33468571Y37400000D01*
X33420952Y37423810D01*
X33325714Y37423810D01*
X33278095Y37400000D01*
X33254285Y37376191D01*
X33230476Y37328572D01*
X33230476Y37209524D01*
X33254285Y37161905D01*
X33278095Y37138096D01*
X33325714Y37114286D01*
X33420952Y37114286D01*
X33468571Y37138096D01*
X33492380Y37161905D01*
X33516190Y37209524D01*
X33944761Y37423810D02*
X33849523Y37423810D01*
X33801904Y37400000D01*
X33778095Y37376191D01*
X33730476Y37304762D01*
X33706666Y37209524D01*
X33706666Y37019048D01*
X33730476Y36971429D01*
X33754285Y36947620D01*
X33801904Y36923810D01*
X33897142Y36923810D01*
X33944761Y36947620D01*
X33968571Y36971429D01*
X33992380Y37019048D01*
X33992380Y37138096D01*
X33968571Y37185715D01*
X33944761Y37209524D01*
X33897142Y37233334D01*
X33801904Y37233334D01*
X33754285Y37209524D01*
X33730476Y37185715D01*
X33706666Y37138096D01*
X34444761Y37423810D02*
X34206666Y37423810D01*
X34182857Y37185715D01*
X34206666Y37209524D01*
X34254285Y37233334D01*
X34373333Y37233334D01*
X34420952Y37209524D01*
X34444761Y37185715D01*
X34468571Y37138096D01*
X34468571Y37019048D01*
X34444761Y36971429D01*
X34420952Y36947620D01*
X34373333Y36923810D01*
X34254285Y36923810D01*
X34206666Y36947620D01*
X34182857Y36971429D01*
X34635238Y37423810D02*
X34754285Y36923810D01*
X34849523Y37280953D01*
X34944761Y36923810D01*
X35063809Y37423810D01*
X35254285Y37114286D02*
X35635238Y37114286D01*
X36206666Y36876191D02*
X36159047Y36900000D01*
X36111428Y36947620D01*
X36040000Y37019048D01*
X35992380Y37042858D01*
X35944761Y37042858D01*
X35968571Y36923810D02*
X35920952Y36947620D01*
X35873333Y36995239D01*
X35849523Y37090477D01*
X35849523Y37257143D01*
X35873333Y37352381D01*
X35920952Y37400000D01*
X35968571Y37423810D01*
X36063809Y37423810D01*
X36111428Y37400000D01*
X36159047Y37352381D01*
X36182857Y37257143D01*
X36182857Y37090477D01*
X36159047Y36995239D01*
X36111428Y36947620D01*
X36063809Y36923810D01*
X35968571Y36923810D01*
X36659047Y36923810D02*
X36373333Y36923810D01*
X36516190Y36923810D02*
X36516190Y37423810D01*
X36468571Y37352381D01*
X36420952Y37304762D01*
X36373333Y37280953D01*
G04 #@! TO.C,LG1*
X30968571Y55333810D02*
X31301904Y55333810D01*
X31087619Y54833810D01*
X31706666Y55167143D02*
X31706666Y54833810D01*
X31587619Y55357620D02*
X31468571Y55000477D01*
X31778095Y55000477D01*
X32206666Y54833810D02*
X31968571Y54833810D01*
X31968571Y55333810D01*
X32301904Y55333810D02*
X32468571Y54833810D01*
X32635238Y55333810D01*
X33087619Y54881429D02*
X33063809Y54857620D01*
X32992380Y54833810D01*
X32944761Y54833810D01*
X32873333Y54857620D01*
X32825714Y54905239D01*
X32801904Y54952858D01*
X32778095Y55048096D01*
X32778095Y55119524D01*
X32801904Y55214762D01*
X32825714Y55262381D01*
X32873333Y55310000D01*
X32944761Y55333810D01*
X32992380Y55333810D01*
X33063809Y55310000D01*
X33087619Y55286191D01*
X33563809Y54833810D02*
X33278095Y54833810D01*
X33420952Y54833810D02*
X33420952Y55333810D01*
X33373333Y55262381D01*
X33325714Y55214762D01*
X33278095Y55190953D01*
X34040000Y55310000D02*
X33992380Y55333810D01*
X33920952Y55333810D01*
X33849523Y55310000D01*
X33801904Y55262381D01*
X33778095Y55214762D01*
X33754285Y55119524D01*
X33754285Y55048096D01*
X33778095Y54952858D01*
X33801904Y54905239D01*
X33849523Y54857620D01*
X33920952Y54833810D01*
X33968571Y54833810D01*
X34040000Y54857620D01*
X34063809Y54881429D01*
X34063809Y55048096D01*
X33968571Y55048096D01*
X34540000Y54833810D02*
X34254285Y54833810D01*
X34397142Y54833810D02*
X34397142Y55333810D01*
X34349523Y55262381D01*
X34301904Y55214762D01*
X34254285Y55190953D01*
X35016190Y54833810D02*
X34730476Y54833810D01*
X34873333Y54833810D02*
X34873333Y55333810D01*
X34825714Y55262381D01*
X34778095Y55214762D01*
X34730476Y55190953D01*
X35230476Y55024286D02*
X35611428Y55024286D01*
X36182857Y54786191D02*
X36135238Y54810000D01*
X36087619Y54857620D01*
X36016190Y54929048D01*
X35968571Y54952858D01*
X35920952Y54952858D01*
X35944761Y54833810D02*
X35897142Y54857620D01*
X35849523Y54905239D01*
X35825714Y55000477D01*
X35825714Y55167143D01*
X35849523Y55262381D01*
X35897142Y55310000D01*
X35944761Y55333810D01*
X36040000Y55333810D01*
X36087619Y55310000D01*
X36135238Y55262381D01*
X36159047Y55167143D01*
X36159047Y55000477D01*
X36135238Y54905239D01*
X36087619Y54857620D01*
X36040000Y54833810D01*
X35944761Y54833810D01*
X36635238Y54833810D02*
X36349523Y54833810D01*
X36492380Y54833810D02*
X36492380Y55333810D01*
X36444761Y55262381D01*
X36397142Y55214762D01*
X36349523Y55190953D01*
X36944761Y55333810D02*
X36992380Y55333810D01*
X37040000Y55310000D01*
X37063809Y55286191D01*
X37087619Y55238572D01*
X37111428Y55143334D01*
X37111428Y55024286D01*
X37087619Y54929048D01*
X37063809Y54881429D01*
X37040000Y54857620D01*
X36992380Y54833810D01*
X36944761Y54833810D01*
X36897142Y54857620D01*
X36873333Y54881429D01*
X36849523Y54929048D01*
X36825714Y55024286D01*
X36825714Y55143334D01*
X36849523Y55238572D01*
X36873333Y55286191D01*
X36897142Y55310000D01*
X36944761Y55333810D01*
X37420952Y55333810D02*
X37468571Y55333810D01*
X37516190Y55310000D01*
X37540000Y55286191D01*
X37563809Y55238572D01*
X37587619Y55143334D01*
X37587619Y55024286D01*
X37563809Y54929048D01*
X37540000Y54881429D01*
X37516190Y54857620D01*
X37468571Y54833810D01*
X37420952Y54833810D01*
X37373333Y54857620D01*
X37349523Y54881429D01*
X37325714Y54929048D01*
X37301904Y55024286D01*
X37301904Y55143334D01*
X37325714Y55238572D01*
X37349523Y55286191D01*
X37373333Y55310000D01*
X37420952Y55333810D01*
G04 #@! TD*
M02*
