G04 #@! TF.GenerationSoftware,KiCad,Pcbnew,5.1.9*
G04 #@! TF.CreationDate,2021-03-03T13:13:51+01:00*
G04 #@! TF.ProjectId,board_sierra,626f6172-645f-4736-9965-7272612e6b69,v1.1*
G04 #@! TF.SameCoordinates,PX1903cf0PY6c69e80*
G04 #@! TF.FileFunction,Other,User*
%FSLAX46Y46*%
G04 Gerber Fmt 4.6, Leading zero omitted, Abs format (unit mm)*
G04 Created by KiCad (PCBNEW 5.1.9) date 2021-03-03 13:13:51*
%MOMM*%
%LPD*%
G01*
G04 APERTURE LIST*
G04 #@! TA.AperFunction,Profile*
%ADD10C,0.100000*%
G04 #@! TD*
%ADD11C,0.050000*%
G04 APERTURE END LIST*
D10*
X50355500Y88900000D02*
G75*
G03*
X51308000Y89852500I0J952500D01*
G01*
X31940500Y88900000D02*
X50355500Y88900000D01*
X52260500Y90805000D02*
X84137500Y90805000D01*
X30988000Y89852500D02*
G75*
G03*
X30035500Y90805000I-952500J0D01*
G01*
X30988000Y89852500D02*
G75*
G03*
X31940500Y88900000I952500J0D01*
G01*
X-4127500Y90805000D02*
X30035500Y90805000D01*
X52260500Y90805000D02*
G75*
G03*
X51308000Y89852500I0J-952500D01*
G01*
X52260500Y-5080000D02*
X84137500Y-5080000D01*
X31940500Y-3175000D02*
X50355500Y-3175000D01*
X-4127500Y-5080000D02*
X30035500Y-5080000D01*
X52260500Y-5080000D02*
G75*
G02*
X51308000Y-4127500I0J952500D01*
G01*
X50355500Y-3175000D02*
G75*
G02*
X51308000Y-4127500I0J-952500D01*
G01*
X30988000Y-4127500D02*
G75*
G02*
X31940500Y-3175000I952500J0D01*
G01*
X30988000Y-4127500D02*
G75*
G02*
X30035500Y-5080000I-952500J0D01*
G01*
X84137500Y53009800D02*
G75*
G03*
X83185000Y52057300I0J-952500D01*
G01*
X85090000Y89852500D02*
X85090000Y53962300D01*
X83185000Y52057300D02*
X83185000Y33667700D01*
X85090000Y31762700D02*
X85090000Y-4127500D01*
X83185000Y33667700D02*
G75*
G03*
X84137500Y32715200I952500J0D01*
G01*
X85090000Y31762700D02*
G75*
G03*
X84137500Y32715200I-952500J0D01*
G01*
X84137500Y53009800D02*
G75*
G03*
X85090000Y53962300I0J952500D01*
G01*
X85090000Y-4127500D02*
G75*
G02*
X84137500Y-5080000I-952500J0D01*
G01*
X84137500Y90805000D02*
G75*
G02*
X85090000Y89852500I0J-952500D01*
G01*
X-5080000Y31762700D02*
X-5080000Y-4127500D01*
X-5080000Y89852500D02*
X-5080000Y53962300D01*
X-5080000Y89852500D02*
G75*
G02*
X-4127500Y90805000I952500J0D01*
G01*
X-3175000Y52057300D02*
X-3175000Y33667700D01*
X-4127500Y53009800D02*
G75*
G02*
X-5080000Y53962300I0J952500D01*
G01*
X-4127500Y53009800D02*
G75*
G02*
X-3175000Y52057300I0J-952500D01*
G01*
X-3175000Y33667700D02*
G75*
G02*
X-4127500Y32715200I-952500J0D01*
G01*
X-5080000Y31762700D02*
G75*
G02*
X-4127500Y32715200I952500J0D01*
G01*
X-4127500Y-5080000D02*
G75*
G02*
X-5080000Y-4127500I0J952500D01*
G01*
D11*
G04 #@! TO.C,ESD1*
X85000Y48660000D02*
X-2065000Y48660000D01*
X85000Y44660000D02*
X85000Y48660000D01*
X-2065000Y44660000D02*
X85000Y44660000D01*
X-2065000Y48660000D02*
X-2065000Y44660000D01*
G04 #@! TO.C,UA5*
X74930000Y4445000D02*
X74930000Y0D01*
X-1905000Y4445000D02*
X-1905000Y30480000D01*
X5080000Y0D02*
X5080000Y4445000D01*
X46355000Y30480000D02*
X46355000Y73660000D01*
X5080000Y4445000D02*
X-1905000Y4445000D01*
X74930000Y0D02*
X5080000Y0D01*
X-1905000Y30480000D02*
X46355000Y30480000D01*
X81915000Y73660000D02*
X81915000Y4445000D01*
X81915000Y4445000D02*
X74930000Y4445000D01*
X46355000Y73660000D02*
X81915000Y73660000D01*
G04 #@! TO.C,C21*
X12890000Y64435000D02*
X15790000Y64435000D01*
X15790000Y65885000D02*
X15790000Y64435000D01*
X12890000Y64435000D02*
X12890000Y65885000D01*
X15790000Y65885000D02*
X12890000Y65885000D01*
G04 #@! TO.C,C17*
X8390000Y64375000D02*
X5490000Y64375000D01*
X5490000Y62925000D02*
X5490000Y64375000D01*
X8390000Y64375000D02*
X8390000Y62925000D01*
X5490000Y62925000D02*
X8390000Y62925000D01*
G04 #@! TO.C,C26*
X-4105000Y61450000D02*
X-4105000Y59550000D01*
X-4105000Y61450000D02*
X-755000Y61450000D01*
X-755000Y59550000D02*
X-755000Y61450000D01*
X-755000Y59550000D02*
X-4105000Y59550000D01*
G04 #@! TO.C,C15*
X13655000Y45460000D02*
X13655000Y43560000D01*
X13655000Y45460000D02*
X17005000Y45460000D01*
X17005000Y43560000D02*
X17005000Y45460000D01*
X17005000Y43560000D02*
X13655000Y43560000D01*
G04 #@! TO.C,C2*
X24290000Y43965000D02*
X21390000Y43965000D01*
X21390000Y42515000D02*
X21390000Y43965000D01*
X24290000Y43965000D02*
X24290000Y42515000D01*
X21390000Y42515000D02*
X24290000Y42515000D01*
G04 #@! TO.C,C42*
X15722000Y39950000D02*
X13822000Y39950000D01*
X15722000Y39050000D02*
X15722000Y39950000D01*
X13822000Y39050000D02*
X13822000Y39950000D01*
X15722000Y39050000D02*
X13822000Y39050000D01*
G04 #@! TO.C,C41*
X5196000Y39950000D02*
X3296000Y39950000D01*
X5196000Y39050000D02*
X5196000Y39950000D01*
X3296000Y39050000D02*
X3296000Y39950000D01*
X5196000Y39050000D02*
X3296000Y39050000D01*
G04 #@! TO.C,R58*
X-942000Y42201000D02*
X1958000Y42201000D01*
X1958000Y43651000D02*
X1958000Y42201000D01*
X-942000Y42201000D02*
X-942000Y43651000D01*
X1958000Y43651000D02*
X-942000Y43651000D01*
G04 #@! TO.C,F1*
X45420000Y72595000D02*
X45420000Y74845000D01*
X40920000Y72595000D02*
X45420000Y72595000D01*
X45420000Y74845000D02*
X40920000Y74845000D01*
X40920000Y72595000D02*
X40920000Y74845000D01*
G04 #@! TO.C,F2*
X45420000Y70345000D02*
X45420000Y72595000D01*
X40920000Y70345000D02*
X45420000Y70345000D01*
X45420000Y72595000D02*
X40920000Y72595000D01*
X40920000Y70345000D02*
X40920000Y72595000D01*
G04 #@! TO.C,R40*
X23840000Y61750000D02*
X25740000Y61750000D01*
X25740000Y61750000D02*
X25740000Y60850000D01*
X23840000Y61750000D02*
X23840000Y60850000D01*
X23840000Y60850000D02*
X25740000Y60850000D01*
G04 #@! TO.C,R24*
X10410000Y42120000D02*
X12310000Y42120000D01*
X12310000Y42120000D02*
X12310000Y41220000D01*
X10410000Y42120000D02*
X10410000Y41220000D01*
X10410000Y41220000D02*
X12310000Y41220000D01*
G04 #@! TO.C,R29*
X23198000Y39050000D02*
X21298000Y39050000D01*
X21298000Y39050000D02*
X21298000Y39950000D01*
X23198000Y39050000D02*
X23198000Y39950000D01*
X23198000Y39950000D02*
X21298000Y39950000D01*
G04 #@! TO.C,R28*
X12652000Y39050000D02*
X10752000Y39050000D01*
X10752000Y39050000D02*
X10752000Y39950000D01*
X12652000Y39050000D02*
X12652000Y39950000D01*
X12652000Y39950000D02*
X10752000Y39950000D01*
G04 #@! TO.C,R27*
X2116000Y39050000D02*
X216000Y39050000D01*
X216000Y39050000D02*
X216000Y39950000D01*
X2116000Y39050000D02*
X2116000Y39950000D01*
X2116000Y39950000D02*
X216000Y39950000D01*
G04 #@! TO.C,M4*
X38940000Y51608000D02*
X29640000Y51608000D01*
X29640000Y57358000D02*
X38940000Y57358000D01*
X38940000Y51608000D02*
X38940000Y57358000D01*
X29640000Y57358000D02*
X29640000Y51608000D01*
G04 #@! TO.C,M6*
X38940000Y34336000D02*
X29640000Y34336000D01*
X29640000Y40086000D02*
X38940000Y40086000D01*
X38940000Y34336000D02*
X38940000Y40086000D01*
X29640000Y40086000D02*
X29640000Y34336000D01*
G04 #@! TO.C,M5*
X38940000Y42972000D02*
X29640000Y42972000D01*
X29640000Y48722000D02*
X38940000Y48722000D01*
X38940000Y42972000D02*
X38940000Y48722000D01*
X29640000Y48722000D02*
X29640000Y42972000D01*
G04 #@! TO.C,TS7*
X-60000Y53930000D02*
X-60000Y58070000D01*
X-60000Y58070000D02*
X-2560000Y58070000D01*
X-2560000Y53930000D02*
X-60000Y53930000D01*
X-2560000Y58070000D02*
X-2560000Y53930000D01*
G04 #@! TO.C,TS6*
X32220000Y48915000D02*
X36360000Y48915000D01*
X36360000Y48915000D02*
X36360000Y51415000D01*
X32220000Y51415000D02*
X32220000Y48915000D01*
X36360000Y51415000D02*
X32220000Y51415000D01*
G04 #@! TO.C,TS5*
X33060000Y62130000D02*
X33060000Y57990000D01*
X33060000Y57990000D02*
X35560000Y57990000D01*
X35560000Y62130000D02*
X33060000Y62130000D01*
X35560000Y57990000D02*
X35560000Y62130000D01*
G04 #@! TO.C,TS4*
X19520000Y58160000D02*
X23660000Y58160000D01*
X23660000Y58160000D02*
X23660000Y60660000D01*
X19520000Y60660000D02*
X19520000Y58160000D01*
X23660000Y60660000D02*
X19520000Y60660000D01*
G04 #@! TO.C,TS3*
X32220000Y40279000D02*
X36360000Y40279000D01*
X36360000Y40279000D02*
X36360000Y42779000D01*
X32220000Y42779000D02*
X32220000Y40279000D01*
X36360000Y42779000D02*
X32220000Y42779000D01*
G04 #@! TO.C,TS2*
X10290000Y50560000D02*
X14430000Y50560000D01*
X14430000Y50560000D02*
X14430000Y53060000D01*
X10290000Y53060000D02*
X10290000Y50560000D01*
X14430000Y53060000D02*
X10290000Y53060000D01*
G04 #@! TO.C,TS1*
X10757000Y36342000D02*
X14897000Y36342000D01*
X14897000Y36342000D02*
X14897000Y38842000D01*
X10757000Y38842000D02*
X10757000Y36342000D01*
X14897000Y38842000D02*
X10757000Y38842000D01*
G04 #@! TO.C,C19*
X5745000Y50710000D02*
X5745000Y53610000D01*
X4295000Y53610000D02*
X5745000Y53610000D01*
X5745000Y50710000D02*
X4295000Y50710000D01*
X4295000Y53610000D02*
X4295000Y50710000D01*
G04 #@! TO.C,R9*
X28270000Y59860000D02*
X30170000Y59860000D01*
X30170000Y59860000D02*
X30170000Y58960000D01*
X28270000Y59860000D02*
X28270000Y58960000D01*
X28270000Y58960000D02*
X30170000Y58960000D01*
G04 #@! TO.C,R8*
X28270000Y58870000D02*
X30170000Y58870000D01*
X30170000Y58870000D02*
X30170000Y57970000D01*
X28270000Y58870000D02*
X28270000Y57970000D01*
X28270000Y57970000D02*
X30170000Y57970000D01*
G04 #@! TO.C,C13*
X14380000Y42660000D02*
X16280000Y42660000D01*
X14380000Y43560000D02*
X14380000Y42660000D01*
X16280000Y43560000D02*
X16280000Y42660000D01*
X14380000Y43560000D02*
X16280000Y43560000D01*
G04 #@! TO.C,R42*
X1040000Y48720000D02*
X2940000Y48720000D01*
X2940000Y48720000D02*
X2940000Y47820000D01*
X1040000Y48720000D02*
X1040000Y47820000D01*
X1040000Y47820000D02*
X2940000Y47820000D01*
G04 #@! TO.C,C20*
X15290000Y64430000D02*
X13390000Y64430000D01*
X15290000Y63530000D02*
X15290000Y64430000D01*
X13390000Y63530000D02*
X13390000Y64430000D01*
X15290000Y63530000D02*
X13390000Y63530000D01*
G04 #@! TO.C,R13*
X22500000Y64170000D02*
X24400000Y64170000D01*
X24400000Y64170000D02*
X24400000Y63270000D01*
X22500000Y64170000D02*
X22500000Y63270000D01*
X22500000Y63270000D02*
X24400000Y63270000D01*
G04 #@! TO.C,R12*
X28330000Y45880000D02*
X28330000Y47780000D01*
X28330000Y47780000D02*
X29230000Y47780000D01*
X28330000Y45880000D02*
X29230000Y45880000D01*
X29230000Y45880000D02*
X29230000Y47780000D01*
G04 #@! TO.C,R7*
X17640000Y42120000D02*
X19540000Y42120000D01*
X19540000Y42120000D02*
X19540000Y41220000D01*
X17640000Y42120000D02*
X17640000Y41220000D01*
X17640000Y41220000D02*
X19540000Y41220000D01*
G04 #@! TO.C,R6*
X6930000Y55860000D02*
X8830000Y55860000D01*
X8830000Y55860000D02*
X8830000Y54960000D01*
X6930000Y55860000D02*
X6930000Y54960000D01*
X6930000Y54960000D02*
X8830000Y54960000D01*
G04 #@! TO.C,R5*
X6680000Y46610000D02*
X6680000Y44710000D01*
X6680000Y44710000D02*
X5780000Y44710000D01*
X6680000Y46610000D02*
X5780000Y46610000D01*
X5780000Y46610000D02*
X5780000Y44710000D01*
G04 #@! TO.C,C16*
X7350000Y65280000D02*
X9250000Y65280000D01*
X7350000Y66180000D02*
X7350000Y65280000D01*
X9250000Y66180000D02*
X9250000Y65280000D01*
X7350000Y66180000D02*
X9250000Y66180000D01*
G04 #@! TO.C,C7*
X7350000Y64380000D02*
X9250000Y64380000D01*
X7350000Y65280000D02*
X7350000Y64380000D01*
X9250000Y65280000D02*
X9250000Y64380000D01*
X7350000Y65280000D02*
X9250000Y65280000D01*
G04 #@! TO.C,C6*
X4840000Y58110000D02*
X4840000Y56210000D01*
X5740000Y58110000D02*
X4840000Y58110000D01*
X5740000Y56210000D02*
X4840000Y56210000D01*
X5740000Y58110000D02*
X5740000Y56210000D01*
G04 #@! TO.C,R20*
X23290000Y66868000D02*
X23290000Y68768000D01*
X23290000Y68768000D02*
X24190000Y68768000D01*
X23290000Y66868000D02*
X24190000Y66868000D01*
X24190000Y66868000D02*
X24190000Y68768000D01*
G04 #@! TO.C,R18*
X25120000Y67850000D02*
X27020000Y67850000D01*
X27020000Y67850000D02*
X27020000Y66950000D01*
X25120000Y67850000D02*
X25120000Y66950000D01*
X25120000Y66950000D02*
X27020000Y66950000D01*
G04 #@! TO.C,R2*
X3750000Y68400000D02*
X3750000Y70300000D01*
X3750000Y70300000D02*
X4650000Y70300000D01*
X3750000Y68400000D02*
X4650000Y68400000D01*
X4650000Y68400000D02*
X4650000Y70300000D01*
G04 #@! TO.C,R11*
X3870000Y77840000D02*
X3870000Y75940000D01*
X3870000Y75940000D02*
X2970000Y75940000D01*
X3870000Y77840000D02*
X2970000Y77840000D01*
X2970000Y77840000D02*
X2970000Y75940000D01*
G04 #@! TO.C,R26*
X13130000Y68900000D02*
X13130000Y70800000D01*
X13130000Y70800000D02*
X14030000Y70800000D01*
X13130000Y68900000D02*
X14030000Y68900000D01*
X14030000Y68900000D02*
X14030000Y70800000D01*
G04 #@! TO.C,C35*
X12580000Y71350000D02*
X10680000Y71350000D01*
X12580000Y70450000D02*
X12580000Y71350000D01*
X10680000Y70450000D02*
X10680000Y71350000D01*
X12580000Y70450000D02*
X10680000Y70450000D01*
G04 #@! TO.C,AS11*
X9730000Y67850000D02*
X9730000Y70450000D01*
X13130000Y67850000D02*
X9730000Y67850000D01*
X13130000Y67850000D02*
X13130000Y70450000D01*
X13130000Y70450000D02*
X9730000Y70450000D01*
G04 #@! TO.C,C55*
X20140000Y48990000D02*
X18240000Y48990000D01*
X20140000Y48090000D02*
X20140000Y48990000D01*
X18240000Y48090000D02*
X18240000Y48990000D01*
X20140000Y48090000D02*
X18240000Y48090000D01*
G04 #@! TO.C,C50*
X12386000Y48938000D02*
X14286000Y48938000D01*
X12386000Y49838000D02*
X12386000Y48938000D01*
X14286000Y49838000D02*
X14286000Y48938000D01*
X12386000Y49838000D02*
X14286000Y49838000D01*
G04 #@! TO.C,R39*
X23840000Y62710000D02*
X25740000Y62710000D01*
X25740000Y62710000D02*
X25740000Y61810000D01*
X23840000Y62710000D02*
X23840000Y61810000D01*
X23840000Y61810000D02*
X25740000Y61810000D01*
G04 #@! TO.C,R38*
X23790000Y61810000D02*
X21890000Y61810000D01*
X21890000Y61810000D02*
X21890000Y62710000D01*
X23790000Y61810000D02*
X23790000Y62710000D01*
X23790000Y62710000D02*
X21890000Y62710000D01*
G04 #@! TO.C,R37*
X23790000Y60850000D02*
X21890000Y60850000D01*
X21890000Y60850000D02*
X21890000Y61750000D01*
X23790000Y60850000D02*
X23790000Y61750000D01*
X23790000Y61750000D02*
X21890000Y61750000D01*
G04 #@! TO.C,R46*
X1040000Y45110000D02*
X2940000Y45110000D01*
X2940000Y45110000D02*
X2940000Y44210000D01*
X1040000Y45110000D02*
X1040000Y44210000D01*
X1040000Y44210000D02*
X2940000Y44210000D01*
G04 #@! TO.C,R45*
X1040000Y46020000D02*
X2940000Y46020000D01*
X2940000Y46020000D02*
X2940000Y45120000D01*
X1040000Y46020000D02*
X1040000Y45120000D01*
X1040000Y45120000D02*
X2940000Y45120000D01*
G04 #@! TO.C,R44*
X1040000Y46920000D02*
X2940000Y46920000D01*
X2940000Y46920000D02*
X2940000Y46020000D01*
X1040000Y46920000D02*
X1040000Y46020000D01*
X1040000Y46020000D02*
X2940000Y46020000D01*
G04 #@! TO.C,R43*
X1040000Y47820000D02*
X2940000Y47820000D01*
X2940000Y47820000D02*
X2940000Y46920000D01*
X1040000Y47820000D02*
X1040000Y46920000D01*
X1040000Y46920000D02*
X2940000Y46920000D01*
G04 #@! TO.C,R41*
X1040000Y49620000D02*
X2940000Y49620000D01*
X2940000Y49620000D02*
X2940000Y48720000D01*
X1040000Y49620000D02*
X1040000Y48720000D01*
X1040000Y48720000D02*
X2940000Y48720000D01*
G04 #@! TO.C,FB2*
X1458000Y40952000D02*
X-442000Y40952000D01*
X-442000Y40952000D02*
X-442000Y41852000D01*
X1458000Y40952000D02*
X1458000Y41852000D01*
X1458000Y41852000D02*
X-442000Y41852000D01*
G04 #@! TO.C,R36*
X23850000Y47760000D02*
X25750000Y47760000D01*
X25750000Y47760000D02*
X25750000Y46860000D01*
X23850000Y47760000D02*
X23850000Y46860000D01*
X23850000Y46860000D02*
X25750000Y46860000D01*
G04 #@! TO.C,R35*
X23850000Y48700000D02*
X25750000Y48700000D01*
X25750000Y48700000D02*
X25750000Y47800000D01*
X23850000Y48700000D02*
X23850000Y47800000D01*
X23850000Y47800000D02*
X25750000Y47800000D01*
G04 #@! TO.C,Y2*
X20690000Y44690000D02*
X20690000Y48090000D01*
X20690000Y48090000D02*
X17690000Y48090000D01*
X17690000Y48090000D02*
X17690000Y44690000D01*
X17690000Y44690000D02*
X20690000Y44690000D01*
G04 #@! TO.C,Y1*
X14676000Y48888000D02*
X10056000Y48888000D01*
X10056000Y48888000D02*
X10056000Y46008000D01*
X10056000Y46008000D02*
X14676000Y46008000D01*
X14676000Y46008000D02*
X14676000Y48888000D01*
G04 #@! TO.C,R4*
X8050000Y68900000D02*
X8050000Y70800000D01*
X8050000Y70800000D02*
X8950000Y70800000D01*
X8050000Y68900000D02*
X8950000Y68900000D01*
X8950000Y68900000D02*
X8950000Y70800000D01*
G04 #@! TO.C,R23*
X14260000Y41220000D02*
X12360000Y41220000D01*
X12360000Y41220000D02*
X12360000Y42120000D01*
X14260000Y41220000D02*
X14260000Y42120000D01*
X14260000Y42120000D02*
X12360000Y42120000D01*
G04 #@! TO.C,R49*
X18210000Y68900000D02*
X18210000Y70800000D01*
X18210000Y70800000D02*
X19110000Y70800000D01*
X18210000Y68900000D02*
X19110000Y68900000D01*
X19110000Y68900000D02*
X19110000Y70800000D01*
G04 #@! TO.C,R34*
X23290000Y68900000D02*
X23290000Y70800000D01*
X23290000Y70800000D02*
X24190000Y70800000D01*
X23290000Y68900000D02*
X24190000Y68900000D01*
X24190000Y68900000D02*
X24190000Y70800000D01*
G04 #@! TO.C,R32*
X23850000Y45860000D02*
X25750000Y45860000D01*
X25750000Y45860000D02*
X25750000Y44960000D01*
X23850000Y45860000D02*
X23850000Y44960000D01*
X23850000Y44960000D02*
X25750000Y44960000D01*
G04 #@! TO.C,R31*
X23850000Y46810000D02*
X25750000Y46810000D01*
X25750000Y46810000D02*
X25750000Y45910000D01*
X23850000Y46810000D02*
X23850000Y45910000D01*
X23850000Y45910000D02*
X25750000Y45910000D01*
G04 #@! TO.C,R30*
X23850000Y49650000D02*
X25750000Y49650000D01*
X25750000Y49650000D02*
X25750000Y48750000D01*
X23850000Y49650000D02*
X23850000Y48750000D01*
X23850000Y48750000D02*
X25750000Y48750000D01*
G04 #@! TO.C,R57*
X20690000Y45690000D02*
X20690000Y47590000D01*
X20690000Y47590000D02*
X21590000Y47590000D01*
X20690000Y45690000D02*
X21590000Y45690000D01*
X21590000Y45690000D02*
X21590000Y47590000D01*
G04 #@! TO.C,R47*
X13036000Y45058000D02*
X11136000Y45058000D01*
X11136000Y45058000D02*
X11136000Y45958000D01*
X13036000Y45058000D02*
X13036000Y45958000D01*
X13036000Y45958000D02*
X11136000Y45958000D01*
G04 #@! TO.C,R21*
X28370000Y68900000D02*
X28370000Y70800000D01*
X28370000Y70800000D02*
X29270000Y70800000D01*
X28370000Y68900000D02*
X29270000Y68900000D01*
X29270000Y68900000D02*
X29270000Y70800000D01*
G04 #@! TO.C,R10*
X-430000Y67530000D02*
X1470000Y67530000D01*
X1470000Y67530000D02*
X1470000Y66630000D01*
X-430000Y67530000D02*
X-430000Y66630000D01*
X-430000Y66630000D02*
X1470000Y66630000D01*
G04 #@! TO.C,C4*
X7500000Y71350000D02*
X5600000Y71350000D01*
X7500000Y70450000D02*
X7500000Y71350000D01*
X5600000Y70450000D02*
X5600000Y71350000D01*
X7500000Y70450000D02*
X5600000Y70450000D01*
G04 #@! TO.C,C46*
X-3510000Y57900000D02*
X-3510000Y56000000D01*
X-2610000Y57900000D02*
X-3510000Y57900000D01*
X-2610000Y56000000D02*
X-3510000Y56000000D01*
X-2610000Y57900000D02*
X-2610000Y56000000D01*
G04 #@! TO.C,C45*
X37040000Y49760000D02*
X38940000Y49760000D01*
X37040000Y50660000D02*
X37040000Y49760000D01*
X38940000Y50660000D02*
X38940000Y49760000D01*
X37040000Y50660000D02*
X38940000Y50660000D01*
G04 #@! TO.C,C38*
X33010000Y58160000D02*
X33010000Y60060000D01*
X32110000Y58160000D02*
X33010000Y58160000D01*
X32110000Y60060000D02*
X33010000Y60060000D01*
X32110000Y58160000D02*
X32110000Y60060000D01*
G04 #@! TO.C,C37*
X21590000Y57260000D02*
X23490000Y57260000D01*
X21590000Y58160000D02*
X21590000Y57260000D01*
X23490000Y58160000D02*
X23490000Y57260000D01*
X21590000Y58160000D02*
X23490000Y58160000D01*
G04 #@! TO.C,C36*
X37040000Y41120000D02*
X38940000Y41120000D01*
X37040000Y42020000D02*
X37040000Y41120000D01*
X38940000Y42020000D02*
X38940000Y41120000D01*
X37040000Y42020000D02*
X38940000Y42020000D01*
G04 #@! TO.C,C33*
X14260000Y53960000D02*
X12360000Y53960000D01*
X14260000Y53060000D02*
X14260000Y53960000D01*
X12360000Y53060000D02*
X12360000Y53960000D01*
X14260000Y53060000D02*
X12360000Y53060000D01*
G04 #@! TO.C,C32*
X14902000Y36300000D02*
X13002000Y36300000D01*
X14902000Y35400000D02*
X14902000Y36300000D01*
X13002000Y35400000D02*
X13002000Y36300000D01*
X14902000Y35400000D02*
X13002000Y35400000D01*
G04 #@! TO.C,C54*
X17660000Y71350000D02*
X15760000Y71350000D01*
X17660000Y70450000D02*
X17660000Y71350000D01*
X15760000Y70450000D02*
X15760000Y71350000D01*
X17660000Y70450000D02*
X15760000Y70450000D01*
G04 #@! TO.C,C43*
X26278000Y39950000D02*
X24378000Y39950000D01*
X26278000Y39050000D02*
X26278000Y39950000D01*
X24378000Y39050000D02*
X24378000Y39950000D01*
X26278000Y39050000D02*
X24378000Y39050000D01*
G04 #@! TO.C,C48*
X22740000Y71350000D02*
X20840000Y71350000D01*
X22740000Y70450000D02*
X22740000Y71350000D01*
X20840000Y70450000D02*
X20840000Y71350000D01*
X22740000Y70450000D02*
X20840000Y70450000D01*
G04 #@! TO.C,C40*
X38350000Y34290000D02*
X36450000Y34290000D01*
X38350000Y33390000D02*
X38350000Y34290000D01*
X36450000Y33390000D02*
X36450000Y34290000D01*
X38350000Y33390000D02*
X36450000Y33390000D01*
G04 #@! TO.C,C39*
X38350000Y42920000D02*
X36450000Y42920000D01*
X38350000Y42020000D02*
X38350000Y42920000D01*
X36450000Y42020000D02*
X36450000Y42920000D01*
X38350000Y42020000D02*
X36450000Y42020000D01*
G04 #@! TO.C,C44*
X38340000Y51560000D02*
X36440000Y51560000D01*
X38340000Y50660000D02*
X38340000Y51560000D01*
X36440000Y50660000D02*
X36440000Y51560000D01*
X38340000Y50660000D02*
X36440000Y50660000D01*
G04 #@! TO.C,C49*
X10436000Y48938000D02*
X12336000Y48938000D01*
X10436000Y49838000D02*
X10436000Y48938000D01*
X12336000Y49838000D02*
X12336000Y48938000D01*
X10436000Y49838000D02*
X12336000Y49838000D01*
G04 #@! TO.C,C31*
X27820000Y71350000D02*
X25920000Y71350000D01*
X27820000Y70450000D02*
X27820000Y71350000D01*
X25920000Y70450000D02*
X25920000Y71350000D01*
X27820000Y70450000D02*
X25920000Y70450000D01*
G04 #@! TO.C,C12*
X27830000Y45210000D02*
X27830000Y47110000D01*
X26930000Y45210000D02*
X27830000Y45210000D01*
X26930000Y47110000D02*
X27830000Y47110000D01*
X26930000Y45210000D02*
X26930000Y47110000D01*
G04 #@! TO.C,C10*
X27060000Y56710000D02*
X27060000Y58610000D01*
X26160000Y56710000D02*
X27060000Y56710000D01*
X26160000Y58610000D02*
X27060000Y58610000D01*
X26160000Y56710000D02*
X26160000Y58610000D01*
G04 #@! TO.C,C8*
X20790000Y64890000D02*
X18890000Y64890000D01*
X20790000Y63990000D02*
X20790000Y64890000D01*
X18890000Y63990000D02*
X18890000Y64890000D01*
X20790000Y63990000D02*
X18890000Y63990000D01*
G04 #@! TO.C,C23*
X2620000Y79290000D02*
X720000Y79290000D01*
X2620000Y78390000D02*
X2620000Y79290000D01*
X720000Y78390000D02*
X720000Y79290000D01*
X2620000Y78390000D02*
X720000Y78390000D01*
G04 #@! TO.C,C22*
X2420000Y71350000D02*
X520000Y71350000D01*
X2420000Y70450000D02*
X2420000Y71350000D01*
X520000Y70450000D02*
X520000Y71350000D01*
X2420000Y70450000D02*
X520000Y70450000D01*
G04 #@! TO.C,AS2*
X4650000Y67850000D02*
X4650000Y70450000D01*
X8050000Y67850000D02*
X4650000Y67850000D01*
X8050000Y67850000D02*
X8050000Y70450000D01*
X8050000Y70450000D02*
X4650000Y70450000D01*
G04 #@! TO.C,AS15*
X14810000Y67850000D02*
X14810000Y70450000D01*
X18210000Y67850000D02*
X14810000Y67850000D01*
X18210000Y67850000D02*
X18210000Y70450000D01*
X18210000Y70450000D02*
X14810000Y70450000D01*
G04 #@! TO.C,AS13*
X19890000Y67850000D02*
X19890000Y70450000D01*
X23290000Y67850000D02*
X19890000Y67850000D01*
X23290000Y67850000D02*
X23290000Y70450000D01*
X23290000Y70450000D02*
X19890000Y70450000D01*
G04 #@! TO.C,AS9*
X24970000Y67850000D02*
X24970000Y70450000D01*
X28370000Y67850000D02*
X24970000Y67850000D01*
X28370000Y67850000D02*
X28370000Y70450000D01*
X28370000Y70450000D02*
X24970000Y70450000D01*
G04 #@! TO.C,AS4*
X-430000Y75790000D02*
X-430000Y78390000D01*
X2970000Y75790000D02*
X-430000Y75790000D01*
X2970000Y75790000D02*
X2970000Y78390000D01*
X2970000Y78390000D02*
X-430000Y78390000D01*
G04 #@! TO.C,AS3*
X-430000Y67850000D02*
X-430000Y70450000D01*
X2970000Y67850000D02*
X-430000Y67850000D01*
X2970000Y67850000D02*
X2970000Y70450000D01*
X2970000Y70450000D02*
X-430000Y70450000D01*
G04 #@! TD*
M02*
