G04 #@! TF.GenerationSoftware,KiCad,Pcbnew,5.1.9*
G04 #@! TF.CreationDate,2021-03-03T13:13:51+01:00*
G04 #@! TF.ProjectId,board_sierra,626f6172-645f-4736-9965-7272612e6b69,v1.1*
G04 #@! TF.SameCoordinates,PX1903cf0PY6c69e80*
G04 #@! TF.FileFunction,Other,Fab,Bot*
%FSLAX46Y46*%
G04 Gerber Fmt 4.6, Leading zero omitted, Abs format (unit mm)*
G04 Created by KiCad (PCBNEW 5.1.9) date 2021-03-03 13:13:51*
%MOMM*%
%LPD*%
G01*
G04 APERTURE LIST*
G04 #@! TA.AperFunction,Profile*
%ADD10C,0.100000*%
G04 #@! TD*
%ADD11C,0.100000*%
%ADD12C,0.150000*%
G04 APERTURE END LIST*
D10*
X50355500Y88900000D02*
G75*
G03*
X51308000Y89852500I0J952500D01*
G01*
X31940500Y88900000D02*
X50355500Y88900000D01*
X52260500Y90805000D02*
X84137500Y90805000D01*
X30988000Y89852500D02*
G75*
G03*
X30035500Y90805000I-952500J0D01*
G01*
X30988000Y89852500D02*
G75*
G03*
X31940500Y88900000I952500J0D01*
G01*
X-4127500Y90805000D02*
X30035500Y90805000D01*
X52260500Y90805000D02*
G75*
G03*
X51308000Y89852500I0J-952500D01*
G01*
X52260500Y-5080000D02*
X84137500Y-5080000D01*
X31940500Y-3175000D02*
X50355500Y-3175000D01*
X-4127500Y-5080000D02*
X30035500Y-5080000D01*
X52260500Y-5080000D02*
G75*
G02*
X51308000Y-4127500I0J952500D01*
G01*
X50355500Y-3175000D02*
G75*
G02*
X51308000Y-4127500I0J-952500D01*
G01*
X30988000Y-4127500D02*
G75*
G02*
X31940500Y-3175000I952500J0D01*
G01*
X30988000Y-4127500D02*
G75*
G02*
X30035500Y-5080000I-952500J0D01*
G01*
X84137500Y53009800D02*
G75*
G03*
X83185000Y52057300I0J-952500D01*
G01*
X85090000Y89852500D02*
X85090000Y53962300D01*
X83185000Y52057300D02*
X83185000Y33667700D01*
X85090000Y31762700D02*
X85090000Y-4127500D01*
X83185000Y33667700D02*
G75*
G03*
X84137500Y32715200I952500J0D01*
G01*
X85090000Y31762700D02*
G75*
G03*
X84137500Y32715200I-952500J0D01*
G01*
X84137500Y53009800D02*
G75*
G03*
X85090000Y53962300I0J952500D01*
G01*
X85090000Y-4127500D02*
G75*
G02*
X84137500Y-5080000I-952500J0D01*
G01*
X84137500Y90805000D02*
G75*
G02*
X85090000Y89852500I0J-952500D01*
G01*
X-5080000Y31762700D02*
X-5080000Y-4127500D01*
X-5080000Y89852500D02*
X-5080000Y53962300D01*
X-5080000Y89852500D02*
G75*
G02*
X-4127500Y90805000I952500J0D01*
G01*
X-3175000Y52057300D02*
X-3175000Y33667700D01*
X-4127500Y53009800D02*
G75*
G02*
X-5080000Y53962300I0J952500D01*
G01*
X-4127500Y53009800D02*
G75*
G02*
X-3175000Y52057300I0J-952500D01*
G01*
X-3175000Y33667700D02*
G75*
G02*
X-4127500Y32715200I-952500J0D01*
G01*
X-5080000Y31762700D02*
G75*
G02*
X-4127500Y32715200I952500J0D01*
G01*
X-4127500Y-5080000D02*
G75*
G02*
X-5080000Y-4127500I0J952500D01*
G01*
D11*
G04 #@! TO.C,ESD1*
X-1665000Y44910000D02*
X-1665000Y48410000D01*
X-1665000Y48410000D02*
X-315000Y48410000D01*
X-315000Y48410000D02*
X-315000Y44910000D01*
X-315000Y44910000D02*
X-1665000Y44910000D01*
G04 #@! TO.C,C21*
X15090000Y65560000D02*
X15090000Y64760000D01*
X13590000Y65560000D02*
X15090000Y65560000D01*
X13590000Y64760000D02*
X13590000Y65560000D01*
X15090000Y64760000D02*
X13590000Y64760000D01*
G04 #@! TO.C,C17*
X6190000Y63250000D02*
X6190000Y64050000D01*
X7690000Y63250000D02*
X6190000Y63250000D01*
X7690000Y64050000D02*
X7690000Y63250000D01*
X6190000Y64050000D02*
X7690000Y64050000D01*
G04 #@! TO.C,C26*
X-3430000Y61150000D02*
X-1430000Y61150000D01*
X-3430000Y59850000D02*
X-3430000Y61150000D01*
X-1430000Y61150000D02*
X-1430000Y59850000D01*
X-1430000Y59850000D02*
X-3430000Y59850000D01*
G04 #@! TO.C,C15*
X14330000Y45160000D02*
X16330000Y45160000D01*
X14330000Y43860000D02*
X14330000Y45160000D01*
X16330000Y45160000D02*
X16330000Y43860000D01*
X16330000Y43860000D02*
X14330000Y43860000D01*
G04 #@! TO.C,C2*
X22090000Y42840000D02*
X22090000Y43640000D01*
X23590000Y42840000D02*
X22090000Y42840000D01*
X23590000Y43640000D02*
X23590000Y42840000D01*
X22090000Y43640000D02*
X23590000Y43640000D01*
G04 #@! TO.C,C42*
X15272000Y39250000D02*
X15272000Y39750000D01*
X15272000Y39750000D02*
X14272000Y39750000D01*
X15272000Y39250000D02*
X14272000Y39250000D01*
X14272000Y39250000D02*
X14272000Y39750000D01*
G04 #@! TO.C,C41*
X4746000Y39250000D02*
X4746000Y39750000D01*
X4746000Y39750000D02*
X3746000Y39750000D01*
X4746000Y39250000D02*
X3746000Y39250000D01*
X3746000Y39250000D02*
X3746000Y39750000D01*
G04 #@! TO.C,R58*
X1258000Y43326000D02*
X1258000Y42526000D01*
X-242000Y43326000D02*
X1258000Y43326000D01*
X-242000Y42526000D02*
X-242000Y43326000D01*
X1258000Y42526000D02*
X-242000Y42526000D01*
G04 #@! TO.C,F1*
X44670000Y74470000D02*
X44670000Y72970000D01*
X41670000Y74470000D02*
X44670000Y74470000D01*
X44670000Y72970000D02*
X41670000Y72970000D01*
X41670000Y72970000D02*
X41670000Y74470000D01*
G04 #@! TO.C,F2*
X44670000Y72220000D02*
X44670000Y70720000D01*
X41670000Y72220000D02*
X44670000Y72220000D01*
X44670000Y70720000D02*
X41670000Y70720000D01*
X41670000Y70720000D02*
X41670000Y72220000D01*
G04 #@! TO.C,R40*
X25290000Y61550000D02*
X25290000Y61050000D01*
X24290000Y61550000D02*
X25290000Y61550000D01*
X24290000Y61050000D02*
X25290000Y61050000D01*
X24290000Y61550000D02*
X24290000Y61050000D01*
G04 #@! TO.C,R24*
X11860000Y41920000D02*
X11860000Y41420000D01*
X10860000Y41920000D02*
X11860000Y41920000D01*
X10860000Y41420000D02*
X11860000Y41420000D01*
X10860000Y41920000D02*
X10860000Y41420000D01*
G04 #@! TO.C,R29*
X21748000Y39250000D02*
X21748000Y39750000D01*
X22748000Y39250000D02*
X21748000Y39250000D01*
X22748000Y39750000D02*
X21748000Y39750000D01*
X22748000Y39250000D02*
X22748000Y39750000D01*
G04 #@! TO.C,R28*
X11202000Y39250000D02*
X11202000Y39750000D01*
X12202000Y39250000D02*
X11202000Y39250000D01*
X12202000Y39750000D02*
X11202000Y39750000D01*
X12202000Y39250000D02*
X12202000Y39750000D01*
G04 #@! TO.C,R27*
X666000Y39250000D02*
X666000Y39750000D01*
X1666000Y39250000D02*
X666000Y39250000D01*
X1666000Y39750000D02*
X666000Y39750000D01*
X1666000Y39250000D02*
X1666000Y39750000D01*
G04 #@! TO.C,M4*
X31675000Y57098000D02*
X31675000Y51868000D01*
X36905000Y57098000D02*
X31675000Y57098000D01*
X36905000Y51868000D02*
X36905000Y57098000D01*
X31675000Y51868000D02*
X36905000Y51868000D01*
G04 #@! TO.C,M6*
X31675000Y39826000D02*
X31675000Y34596000D01*
X36905000Y39826000D02*
X31675000Y39826000D01*
X36905000Y34596000D02*
X36905000Y39826000D01*
X31675000Y34596000D02*
X36905000Y34596000D01*
G04 #@! TO.C,M5*
X31675000Y48462000D02*
X31675000Y43232000D01*
X36905000Y48462000D02*
X31675000Y48462000D01*
X36905000Y43232000D02*
X36905000Y48462000D01*
X31675000Y43232000D02*
X36905000Y43232000D01*
G04 #@! TO.C,TS7*
X-310000Y54500000D02*
X-310000Y57500000D01*
X-310000Y57500000D02*
X-2310000Y57500000D01*
X-2310000Y57500000D02*
X-2310000Y54500000D01*
X-2310000Y54500000D02*
X-310000Y54500000D01*
G04 #@! TO.C,TS6*
X32790000Y49165000D02*
X35790000Y49165000D01*
X35790000Y49165000D02*
X35790000Y51165000D01*
X35790000Y51165000D02*
X32790000Y51165000D01*
X32790000Y51165000D02*
X32790000Y49165000D01*
G04 #@! TO.C,TS5*
X33310000Y61560000D02*
X33310000Y58560000D01*
X33310000Y58560000D02*
X35310000Y58560000D01*
X35310000Y58560000D02*
X35310000Y61560000D01*
X35310000Y61560000D02*
X33310000Y61560000D01*
G04 #@! TO.C,TS4*
X20090000Y58410000D02*
X23090000Y58410000D01*
X23090000Y58410000D02*
X23090000Y60410000D01*
X23090000Y60410000D02*
X20090000Y60410000D01*
X20090000Y60410000D02*
X20090000Y58410000D01*
G04 #@! TO.C,TS3*
X32790000Y40529000D02*
X35790000Y40529000D01*
X35790000Y40529000D02*
X35790000Y42529000D01*
X35790000Y42529000D02*
X32790000Y42529000D01*
X32790000Y42529000D02*
X32790000Y40529000D01*
G04 #@! TO.C,TS2*
X10860000Y50810000D02*
X13860000Y50810000D01*
X13860000Y50810000D02*
X13860000Y52810000D01*
X13860000Y52810000D02*
X10860000Y52810000D01*
X10860000Y52810000D02*
X10860000Y50810000D01*
G04 #@! TO.C,TS1*
X11327000Y36592000D02*
X14327000Y36592000D01*
X14327000Y36592000D02*
X14327000Y38592000D01*
X14327000Y38592000D02*
X11327000Y38592000D01*
X11327000Y38592000D02*
X11327000Y36592000D01*
G04 #@! TO.C,C19*
X4620000Y52910000D02*
X5420000Y52910000D01*
X4620000Y51410000D02*
X4620000Y52910000D01*
X5420000Y51410000D02*
X4620000Y51410000D01*
X5420000Y52910000D02*
X5420000Y51410000D01*
G04 #@! TO.C,R9*
X29720000Y59660000D02*
X29720000Y59160000D01*
X28720000Y59660000D02*
X29720000Y59660000D01*
X28720000Y59160000D02*
X29720000Y59160000D01*
X28720000Y59660000D02*
X28720000Y59160000D01*
G04 #@! TO.C,R8*
X29720000Y58670000D02*
X29720000Y58170000D01*
X28720000Y58670000D02*
X29720000Y58670000D01*
X28720000Y58170000D02*
X29720000Y58170000D01*
X28720000Y58670000D02*
X28720000Y58170000D01*
G04 #@! TO.C,C13*
X14830000Y43360000D02*
X14830000Y42860000D01*
X14830000Y42860000D02*
X15830000Y42860000D01*
X14830000Y43360000D02*
X15830000Y43360000D01*
X15830000Y43360000D02*
X15830000Y42860000D01*
G04 #@! TO.C,R42*
X2490000Y48520000D02*
X2490000Y48020000D01*
X1490000Y48520000D02*
X2490000Y48520000D01*
X1490000Y48020000D02*
X2490000Y48020000D01*
X1490000Y48520000D02*
X1490000Y48020000D01*
G04 #@! TO.C,C20*
X14840000Y63730000D02*
X14840000Y64230000D01*
X14840000Y64230000D02*
X13840000Y64230000D01*
X14840000Y63730000D02*
X13840000Y63730000D01*
X13840000Y63730000D02*
X13840000Y64230000D01*
G04 #@! TO.C,R13*
X23950000Y63970000D02*
X23950000Y63470000D01*
X22950000Y63970000D02*
X23950000Y63970000D01*
X22950000Y63470000D02*
X23950000Y63470000D01*
X22950000Y63970000D02*
X22950000Y63470000D01*
G04 #@! TO.C,R12*
X28530000Y47330000D02*
X29030000Y47330000D01*
X28530000Y46330000D02*
X28530000Y47330000D01*
X29030000Y46330000D02*
X29030000Y47330000D01*
X28530000Y46330000D02*
X29030000Y46330000D01*
G04 #@! TO.C,R7*
X19090000Y41920000D02*
X19090000Y41420000D01*
X18090000Y41920000D02*
X19090000Y41920000D01*
X18090000Y41420000D02*
X19090000Y41420000D01*
X18090000Y41920000D02*
X18090000Y41420000D01*
G04 #@! TO.C,R6*
X8380000Y55660000D02*
X8380000Y55160000D01*
X7380000Y55660000D02*
X8380000Y55660000D01*
X7380000Y55160000D02*
X8380000Y55160000D01*
X7380000Y55660000D02*
X7380000Y55160000D01*
G04 #@! TO.C,R5*
X6480000Y45160000D02*
X5980000Y45160000D01*
X6480000Y46160000D02*
X6480000Y45160000D01*
X5980000Y46160000D02*
X5980000Y45160000D01*
X6480000Y46160000D02*
X5980000Y46160000D01*
G04 #@! TO.C,C16*
X7800000Y65980000D02*
X7800000Y65480000D01*
X7800000Y65480000D02*
X8800000Y65480000D01*
X7800000Y65980000D02*
X8800000Y65980000D01*
X8800000Y65980000D02*
X8800000Y65480000D01*
G04 #@! TO.C,C7*
X7800000Y65080000D02*
X7800000Y64580000D01*
X7800000Y64580000D02*
X8800000Y64580000D01*
X7800000Y65080000D02*
X8800000Y65080000D01*
X8800000Y65080000D02*
X8800000Y64580000D01*
G04 #@! TO.C,C6*
X5540000Y57660000D02*
X5040000Y57660000D01*
X5040000Y57660000D02*
X5040000Y56660000D01*
X5540000Y57660000D02*
X5540000Y56660000D01*
X5540000Y56660000D02*
X5040000Y56660000D01*
G04 #@! TO.C,R20*
X23490000Y68318000D02*
X23990000Y68318000D01*
X23490000Y67318000D02*
X23490000Y68318000D01*
X23990000Y67318000D02*
X23990000Y68318000D01*
X23490000Y67318000D02*
X23990000Y67318000D01*
G04 #@! TO.C,R18*
X26570000Y67650000D02*
X26570000Y67150000D01*
X25570000Y67650000D02*
X26570000Y67650000D01*
X25570000Y67150000D02*
X26570000Y67150000D01*
X25570000Y67650000D02*
X25570000Y67150000D01*
G04 #@! TO.C,R2*
X3950000Y69850000D02*
X4450000Y69850000D01*
X3950000Y68850000D02*
X3950000Y69850000D01*
X4450000Y68850000D02*
X4450000Y69850000D01*
X3950000Y68850000D02*
X4450000Y68850000D01*
G04 #@! TO.C,R11*
X3670000Y76390000D02*
X3170000Y76390000D01*
X3670000Y77390000D02*
X3670000Y76390000D01*
X3170000Y77390000D02*
X3170000Y76390000D01*
X3670000Y77390000D02*
X3170000Y77390000D01*
G04 #@! TO.C,R26*
X13330000Y70350000D02*
X13830000Y70350000D01*
X13330000Y69350000D02*
X13330000Y70350000D01*
X13830000Y69350000D02*
X13830000Y70350000D01*
X13330000Y69350000D02*
X13830000Y69350000D01*
G04 #@! TO.C,C35*
X12130000Y70650000D02*
X12130000Y71150000D01*
X12130000Y71150000D02*
X11130000Y71150000D01*
X12130000Y70650000D02*
X11130000Y70650000D01*
X11130000Y70650000D02*
X11130000Y71150000D01*
G04 #@! TO.C,AS11*
X12730000Y68250000D02*
X12730000Y70050000D01*
X12730000Y70050000D02*
X10130000Y70050000D01*
X10130000Y70050000D02*
X10130000Y68250000D01*
X10130000Y68250000D02*
X12730000Y68250000D01*
G04 #@! TO.C,C55*
X19690000Y48290000D02*
X19690000Y48790000D01*
X19690000Y48790000D02*
X18690000Y48790000D01*
X19690000Y48290000D02*
X18690000Y48290000D01*
X18690000Y48290000D02*
X18690000Y48790000D01*
G04 #@! TO.C,C50*
X12836000Y49638000D02*
X12836000Y49138000D01*
X12836000Y49138000D02*
X13836000Y49138000D01*
X12836000Y49638000D02*
X13836000Y49638000D01*
X13836000Y49638000D02*
X13836000Y49138000D01*
G04 #@! TO.C,R39*
X25290000Y62510000D02*
X25290000Y62010000D01*
X24290000Y62510000D02*
X25290000Y62510000D01*
X24290000Y62010000D02*
X25290000Y62010000D01*
X24290000Y62510000D02*
X24290000Y62010000D01*
G04 #@! TO.C,R38*
X22340000Y62010000D02*
X22340000Y62510000D01*
X23340000Y62010000D02*
X22340000Y62010000D01*
X23340000Y62510000D02*
X22340000Y62510000D01*
X23340000Y62010000D02*
X23340000Y62510000D01*
G04 #@! TO.C,R37*
X22340000Y61050000D02*
X22340000Y61550000D01*
X23340000Y61050000D02*
X22340000Y61050000D01*
X23340000Y61550000D02*
X22340000Y61550000D01*
X23340000Y61050000D02*
X23340000Y61550000D01*
G04 #@! TO.C,R46*
X2490000Y44910000D02*
X2490000Y44410000D01*
X1490000Y44910000D02*
X2490000Y44910000D01*
X1490000Y44410000D02*
X2490000Y44410000D01*
X1490000Y44910000D02*
X1490000Y44410000D01*
G04 #@! TO.C,R45*
X2490000Y45820000D02*
X2490000Y45320000D01*
X1490000Y45820000D02*
X2490000Y45820000D01*
X1490000Y45320000D02*
X2490000Y45320000D01*
X1490000Y45820000D02*
X1490000Y45320000D01*
G04 #@! TO.C,R44*
X2490000Y46720000D02*
X2490000Y46220000D01*
X1490000Y46720000D02*
X2490000Y46720000D01*
X1490000Y46220000D02*
X2490000Y46220000D01*
X1490000Y46720000D02*
X1490000Y46220000D01*
G04 #@! TO.C,R43*
X2490000Y47620000D02*
X2490000Y47120000D01*
X1490000Y47620000D02*
X2490000Y47620000D01*
X1490000Y47120000D02*
X2490000Y47120000D01*
X1490000Y47620000D02*
X1490000Y47120000D01*
G04 #@! TO.C,R41*
X2490000Y49420000D02*
X2490000Y48920000D01*
X1490000Y49420000D02*
X2490000Y49420000D01*
X1490000Y48920000D02*
X2490000Y48920000D01*
X1490000Y49420000D02*
X1490000Y48920000D01*
G04 #@! TO.C,FB2*
X8000Y41152000D02*
X8000Y41652000D01*
X1008000Y41152000D02*
X8000Y41152000D01*
X1008000Y41652000D02*
X8000Y41652000D01*
X1008000Y41152000D02*
X1008000Y41652000D01*
G04 #@! TO.C,R36*
X25300000Y47560000D02*
X25300000Y47060000D01*
X24300000Y47560000D02*
X25300000Y47560000D01*
X24300000Y47060000D02*
X25300000Y47060000D01*
X24300000Y47560000D02*
X24300000Y47060000D01*
G04 #@! TO.C,R35*
X25300000Y48500000D02*
X25300000Y48000000D01*
X24300000Y48500000D02*
X25300000Y48500000D01*
X24300000Y48000000D02*
X25300000Y48000000D01*
X24300000Y48500000D02*
X24300000Y48000000D01*
G04 #@! TO.C,Y2*
X18390000Y47390000D02*
X18390000Y45390000D01*
X18390000Y45390000D02*
X19990000Y45390000D01*
X19990000Y47390000D02*
X19990000Y45390000D01*
X19990000Y47390000D02*
X18390000Y47390000D01*
G04 #@! TO.C,Y1*
X10766000Y46698000D02*
X10766000Y48198000D01*
X13966000Y46698000D02*
X13966000Y48198000D01*
X13966000Y48198000D02*
X10766000Y48198000D01*
X10766000Y46698000D02*
X13966000Y46698000D01*
G04 #@! TO.C,R4*
X8250000Y70350000D02*
X8750000Y70350000D01*
X8250000Y69350000D02*
X8250000Y70350000D01*
X8750000Y69350000D02*
X8750000Y70350000D01*
X8250000Y69350000D02*
X8750000Y69350000D01*
G04 #@! TO.C,R23*
X12810000Y41420000D02*
X12810000Y41920000D01*
X13810000Y41420000D02*
X12810000Y41420000D01*
X13810000Y41920000D02*
X12810000Y41920000D01*
X13810000Y41420000D02*
X13810000Y41920000D01*
G04 #@! TO.C,R49*
X18410000Y70350000D02*
X18910000Y70350000D01*
X18410000Y69350000D02*
X18410000Y70350000D01*
X18910000Y69350000D02*
X18910000Y70350000D01*
X18410000Y69350000D02*
X18910000Y69350000D01*
G04 #@! TO.C,R34*
X23490000Y70350000D02*
X23990000Y70350000D01*
X23490000Y69350000D02*
X23490000Y70350000D01*
X23990000Y69350000D02*
X23990000Y70350000D01*
X23490000Y69350000D02*
X23990000Y69350000D01*
G04 #@! TO.C,R32*
X25300000Y45660000D02*
X25300000Y45160000D01*
X24300000Y45660000D02*
X25300000Y45660000D01*
X24300000Y45160000D02*
X25300000Y45160000D01*
X24300000Y45660000D02*
X24300000Y45160000D01*
G04 #@! TO.C,R31*
X25300000Y46610000D02*
X25300000Y46110000D01*
X24300000Y46610000D02*
X25300000Y46610000D01*
X24300000Y46110000D02*
X25300000Y46110000D01*
X24300000Y46610000D02*
X24300000Y46110000D01*
G04 #@! TO.C,R30*
X25300000Y49450000D02*
X25300000Y48950000D01*
X24300000Y49450000D02*
X25300000Y49450000D01*
X24300000Y48950000D02*
X25300000Y48950000D01*
X24300000Y49450000D02*
X24300000Y48950000D01*
G04 #@! TO.C,R57*
X20890000Y47140000D02*
X21390000Y47140000D01*
X20890000Y46140000D02*
X20890000Y47140000D01*
X21390000Y46140000D02*
X21390000Y47140000D01*
X20890000Y46140000D02*
X21390000Y46140000D01*
G04 #@! TO.C,R47*
X11586000Y45258000D02*
X11586000Y45758000D01*
X12586000Y45258000D02*
X11586000Y45258000D01*
X12586000Y45758000D02*
X11586000Y45758000D01*
X12586000Y45258000D02*
X12586000Y45758000D01*
G04 #@! TO.C,R21*
X28570000Y70350000D02*
X29070000Y70350000D01*
X28570000Y69350000D02*
X28570000Y70350000D01*
X29070000Y69350000D02*
X29070000Y70350000D01*
X28570000Y69350000D02*
X29070000Y69350000D01*
G04 #@! TO.C,R10*
X1020000Y67330000D02*
X1020000Y66830000D01*
X20000Y67330000D02*
X1020000Y67330000D01*
X20000Y66830000D02*
X1020000Y66830000D01*
X20000Y67330000D02*
X20000Y66830000D01*
G04 #@! TO.C,C4*
X7050000Y70650000D02*
X7050000Y71150000D01*
X7050000Y71150000D02*
X6050000Y71150000D01*
X7050000Y70650000D02*
X6050000Y70650000D01*
X6050000Y70650000D02*
X6050000Y71150000D01*
G04 #@! TO.C,C46*
X-2810000Y57450000D02*
X-3310000Y57450000D01*
X-3310000Y57450000D02*
X-3310000Y56450000D01*
X-2810000Y57450000D02*
X-2810000Y56450000D01*
X-2810000Y56450000D02*
X-3310000Y56450000D01*
G04 #@! TO.C,C45*
X37490000Y50460000D02*
X37490000Y49960000D01*
X37490000Y49960000D02*
X38490000Y49960000D01*
X37490000Y50460000D02*
X38490000Y50460000D01*
X38490000Y50460000D02*
X38490000Y49960000D01*
G04 #@! TO.C,C38*
X32310000Y58610000D02*
X32810000Y58610000D01*
X32810000Y58610000D02*
X32810000Y59610000D01*
X32310000Y58610000D02*
X32310000Y59610000D01*
X32310000Y59610000D02*
X32810000Y59610000D01*
G04 #@! TO.C,C37*
X22040000Y57960000D02*
X22040000Y57460000D01*
X22040000Y57460000D02*
X23040000Y57460000D01*
X22040000Y57960000D02*
X23040000Y57960000D01*
X23040000Y57960000D02*
X23040000Y57460000D01*
G04 #@! TO.C,C36*
X37490000Y41820000D02*
X37490000Y41320000D01*
X37490000Y41320000D02*
X38490000Y41320000D01*
X37490000Y41820000D02*
X38490000Y41820000D01*
X38490000Y41820000D02*
X38490000Y41320000D01*
G04 #@! TO.C,C33*
X13810000Y53260000D02*
X13810000Y53760000D01*
X13810000Y53760000D02*
X12810000Y53760000D01*
X13810000Y53260000D02*
X12810000Y53260000D01*
X12810000Y53260000D02*
X12810000Y53760000D01*
G04 #@! TO.C,C32*
X14452000Y35600000D02*
X14452000Y36100000D01*
X14452000Y36100000D02*
X13452000Y36100000D01*
X14452000Y35600000D02*
X13452000Y35600000D01*
X13452000Y35600000D02*
X13452000Y36100000D01*
G04 #@! TO.C,C54*
X17210000Y70650000D02*
X17210000Y71150000D01*
X17210000Y71150000D02*
X16210000Y71150000D01*
X17210000Y70650000D02*
X16210000Y70650000D01*
X16210000Y70650000D02*
X16210000Y71150000D01*
G04 #@! TO.C,C43*
X25828000Y39250000D02*
X25828000Y39750000D01*
X25828000Y39750000D02*
X24828000Y39750000D01*
X25828000Y39250000D02*
X24828000Y39250000D01*
X24828000Y39250000D02*
X24828000Y39750000D01*
G04 #@! TO.C,C48*
X22290000Y70650000D02*
X22290000Y71150000D01*
X22290000Y71150000D02*
X21290000Y71150000D01*
X22290000Y70650000D02*
X21290000Y70650000D01*
X21290000Y70650000D02*
X21290000Y71150000D01*
G04 #@! TO.C,C40*
X37900000Y33590000D02*
X37900000Y34090000D01*
X37900000Y34090000D02*
X36900000Y34090000D01*
X37900000Y33590000D02*
X36900000Y33590000D01*
X36900000Y33590000D02*
X36900000Y34090000D01*
G04 #@! TO.C,C39*
X37900000Y42220000D02*
X37900000Y42720000D01*
X37900000Y42720000D02*
X36900000Y42720000D01*
X37900000Y42220000D02*
X36900000Y42220000D01*
X36900000Y42220000D02*
X36900000Y42720000D01*
G04 #@! TO.C,C44*
X37890000Y50860000D02*
X37890000Y51360000D01*
X37890000Y51360000D02*
X36890000Y51360000D01*
X37890000Y50860000D02*
X36890000Y50860000D01*
X36890000Y50860000D02*
X36890000Y51360000D01*
G04 #@! TO.C,C49*
X10886000Y49638000D02*
X10886000Y49138000D01*
X10886000Y49138000D02*
X11886000Y49138000D01*
X10886000Y49638000D02*
X11886000Y49638000D01*
X11886000Y49638000D02*
X11886000Y49138000D01*
G04 #@! TO.C,C31*
X27370000Y70650000D02*
X27370000Y71150000D01*
X27370000Y71150000D02*
X26370000Y71150000D01*
X27370000Y70650000D02*
X26370000Y70650000D01*
X26370000Y70650000D02*
X26370000Y71150000D01*
G04 #@! TO.C,C12*
X27130000Y45660000D02*
X27630000Y45660000D01*
X27630000Y45660000D02*
X27630000Y46660000D01*
X27130000Y45660000D02*
X27130000Y46660000D01*
X27130000Y46660000D02*
X27630000Y46660000D01*
G04 #@! TO.C,C10*
X26360000Y57160000D02*
X26860000Y57160000D01*
X26860000Y57160000D02*
X26860000Y58160000D01*
X26360000Y57160000D02*
X26360000Y58160000D01*
X26360000Y58160000D02*
X26860000Y58160000D01*
G04 #@! TO.C,C8*
X20340000Y64190000D02*
X20340000Y64690000D01*
X20340000Y64690000D02*
X19340000Y64690000D01*
X20340000Y64190000D02*
X19340000Y64190000D01*
X19340000Y64190000D02*
X19340000Y64690000D01*
G04 #@! TO.C,C23*
X2170000Y78590000D02*
X2170000Y79090000D01*
X2170000Y79090000D02*
X1170000Y79090000D01*
X2170000Y78590000D02*
X1170000Y78590000D01*
X1170000Y78590000D02*
X1170000Y79090000D01*
G04 #@! TO.C,C22*
X1970000Y70650000D02*
X1970000Y71150000D01*
X1970000Y71150000D02*
X970000Y71150000D01*
X1970000Y70650000D02*
X970000Y70650000D01*
X970000Y70650000D02*
X970000Y71150000D01*
G04 #@! TO.C,AS2*
X7650000Y68250000D02*
X7650000Y70050000D01*
X7650000Y70050000D02*
X5050000Y70050000D01*
X5050000Y70050000D02*
X5050000Y68250000D01*
X5050000Y68250000D02*
X7650000Y68250000D01*
G04 #@! TO.C,AS15*
X17810000Y68250000D02*
X17810000Y70050000D01*
X17810000Y70050000D02*
X15210000Y70050000D01*
X15210000Y70050000D02*
X15210000Y68250000D01*
X15210000Y68250000D02*
X17810000Y68250000D01*
G04 #@! TO.C,AS13*
X22890000Y68250000D02*
X22890000Y70050000D01*
X22890000Y70050000D02*
X20290000Y70050000D01*
X20290000Y70050000D02*
X20290000Y68250000D01*
X20290000Y68250000D02*
X22890000Y68250000D01*
G04 #@! TO.C,AS9*
X27970000Y68250000D02*
X27970000Y70050000D01*
X27970000Y70050000D02*
X25370000Y70050000D01*
X25370000Y70050000D02*
X25370000Y68250000D01*
X25370000Y68250000D02*
X27970000Y68250000D01*
G04 #@! TO.C,AS4*
X2570000Y76190000D02*
X2570000Y77990000D01*
X2570000Y77990000D02*
X-30000Y77990000D01*
X-30000Y77990000D02*
X-30000Y76190000D01*
X-30000Y76190000D02*
X2570000Y76190000D01*
G04 #@! TO.C,AS3*
X2570000Y68250000D02*
X2570000Y70050000D01*
X2570000Y70050000D02*
X-30000Y70050000D01*
X-30000Y70050000D02*
X-30000Y68250000D01*
X-30000Y68250000D02*
X2570000Y68250000D01*
G04 #@! TD*
G04 #@! TO.C,ESD1*
X-787620Y48790953D02*
X-763810Y48719524D01*
X-763810Y48600477D01*
X-787620Y48552858D01*
X-811429Y48529048D01*
X-859048Y48505239D01*
X-906667Y48505239D01*
X-954286Y48529048D01*
X-978096Y48552858D01*
X-1001905Y48600477D01*
X-1025715Y48695715D01*
X-1049524Y48743334D01*
X-1073334Y48767143D01*
X-1120953Y48790953D01*
X-1168572Y48790953D01*
X-1216191Y48767143D01*
X-1240000Y48743334D01*
X-1263810Y48695715D01*
X-1263810Y48576667D01*
X-1240000Y48505239D01*
X-763810Y48290953D02*
X-1263810Y48290953D01*
X-1263810Y48100477D01*
X-1240000Y48052858D01*
X-1216191Y48029048D01*
X-1168572Y48005239D01*
X-1097143Y48005239D01*
X-1049524Y48029048D01*
X-1025715Y48052858D01*
X-1001905Y48100477D01*
X-1001905Y48290953D01*
X-1263810Y47838572D02*
X-1263810Y47529048D01*
X-1073334Y47695715D01*
X-1073334Y47624286D01*
X-1049524Y47576667D01*
X-1025715Y47552858D01*
X-978096Y47529048D01*
X-859048Y47529048D01*
X-811429Y47552858D01*
X-787620Y47576667D01*
X-763810Y47624286D01*
X-763810Y47767143D01*
X-787620Y47814762D01*
X-811429Y47838572D01*
X-1263810Y47219524D02*
X-1263810Y47171905D01*
X-1240000Y47124286D01*
X-1216191Y47100477D01*
X-1168572Y47076667D01*
X-1073334Y47052858D01*
X-954286Y47052858D01*
X-859048Y47076667D01*
X-811429Y47100477D01*
X-787620Y47124286D01*
X-763810Y47171905D01*
X-763810Y47219524D01*
X-787620Y47267143D01*
X-811429Y47290953D01*
X-859048Y47314762D01*
X-954286Y47338572D01*
X-1073334Y47338572D01*
X-1168572Y47314762D01*
X-1216191Y47290953D01*
X-1240000Y47267143D01*
X-1263810Y47219524D01*
X-763810Y46576667D02*
X-763810Y46862381D01*
X-763810Y46719524D02*
X-1263810Y46719524D01*
X-1192381Y46767143D01*
X-1144762Y46814762D01*
X-1120953Y46862381D01*
X-1216191Y46386191D02*
X-1240000Y46362381D01*
X-1263810Y46314762D01*
X-1263810Y46195715D01*
X-1240000Y46148096D01*
X-1216191Y46124286D01*
X-1168572Y46100477D01*
X-1120953Y46100477D01*
X-1049524Y46124286D01*
X-763810Y46410000D01*
X-763810Y46100477D01*
X-954286Y45886191D02*
X-954286Y45505239D01*
X-1263810Y45171905D02*
X-1263810Y45124286D01*
X-1240000Y45076667D01*
X-1216191Y45052858D01*
X-1168572Y45029048D01*
X-1073334Y45005239D01*
X-954286Y45005239D01*
X-859048Y45029048D01*
X-811429Y45052858D01*
X-787620Y45076667D01*
X-763810Y45124286D01*
X-763810Y45171905D01*
X-787620Y45219524D01*
X-811429Y45243334D01*
X-859048Y45267143D01*
X-954286Y45290953D01*
X-1073334Y45290953D01*
X-1168572Y45267143D01*
X-1216191Y45243334D01*
X-1240000Y45219524D01*
X-1263810Y45171905D01*
X-1263810Y44576667D02*
X-1263810Y44671905D01*
X-1240000Y44719524D01*
X-1216191Y44743334D01*
X-1144762Y44790953D01*
X-1049524Y44814762D01*
X-859048Y44814762D01*
X-811429Y44790953D01*
X-787620Y44767143D01*
X-763810Y44719524D01*
X-763810Y44624286D01*
X-787620Y44576667D01*
X-811429Y44552858D01*
X-859048Y44529048D01*
X-978096Y44529048D01*
X-1025715Y44552858D01*
X-1049524Y44576667D01*
X-1073334Y44624286D01*
X-1073334Y44719524D01*
X-1049524Y44767143D01*
X-1025715Y44790953D01*
X-978096Y44814762D01*
G04 #@! TO.C,UA5*
D12*
X36099523Y32297620D02*
X35766190Y31297620D01*
X35432857Y32297620D01*
X34670952Y31297620D02*
X34670952Y31821429D01*
X34718571Y31916667D01*
X34813809Y31964286D01*
X35004285Y31964286D01*
X35099523Y31916667D01*
X34670952Y31345239D02*
X34766190Y31297620D01*
X35004285Y31297620D01*
X35099523Y31345239D01*
X35147142Y31440477D01*
X35147142Y31535715D01*
X35099523Y31630953D01*
X35004285Y31678572D01*
X34766190Y31678572D01*
X34670952Y31726191D01*
X34051904Y31297620D02*
X34147142Y31345239D01*
X34194761Y31440477D01*
X34194761Y32297620D01*
X33528095Y32297620D02*
X33528095Y32059524D01*
X33766190Y32154762D02*
X33528095Y32059524D01*
X33290000Y32154762D01*
X33670952Y31869048D02*
X33528095Y32059524D01*
X33385238Y31869048D01*
X32766190Y32297620D02*
X32766190Y32059524D01*
X33004285Y32154762D02*
X32766190Y32059524D01*
X32528095Y32154762D01*
X32909047Y31869048D02*
X32766190Y32059524D01*
X32623333Y31869048D01*
G04 #@! TO.C,UA4*
D11*
X72397380Y3583810D02*
X72397380Y4083810D01*
X72206904Y4083810D01*
X72159285Y4060000D01*
X72135476Y4036191D01*
X72111666Y3988572D01*
X72111666Y3917143D01*
X72135476Y3869524D01*
X72159285Y3845715D01*
X72206904Y3821905D01*
X72397380Y3821905D01*
X71611666Y3631429D02*
X71635476Y3607620D01*
X71706904Y3583810D01*
X71754523Y3583810D01*
X71825952Y3607620D01*
X71873571Y3655239D01*
X71897380Y3702858D01*
X71921190Y3798096D01*
X71921190Y3869524D01*
X71897380Y3964762D01*
X71873571Y4012381D01*
X71825952Y4060000D01*
X71754523Y4083810D01*
X71706904Y4083810D01*
X71635476Y4060000D01*
X71611666Y4036191D01*
X71135476Y3583810D02*
X71421190Y3583810D01*
X71278333Y3583810D02*
X71278333Y4083810D01*
X71325952Y4012381D01*
X71373571Y3964762D01*
X71421190Y3940953D01*
X70825952Y4083810D02*
X70778333Y4083810D01*
X70730714Y4060000D01*
X70706904Y4036191D01*
X70683095Y3988572D01*
X70659285Y3893334D01*
X70659285Y3774286D01*
X70683095Y3679048D01*
X70706904Y3631429D01*
X70730714Y3607620D01*
X70778333Y3583810D01*
X70825952Y3583810D01*
X70873571Y3607620D01*
X70897380Y3631429D01*
X70921190Y3679048D01*
X70945000Y3774286D01*
X70945000Y3893334D01*
X70921190Y3988572D01*
X70897380Y4036191D01*
X70873571Y4060000D01*
X70825952Y4083810D01*
X70230714Y3917143D02*
X70230714Y3583810D01*
X70349761Y4107620D02*
X70468809Y3750477D01*
X70159285Y3750477D01*
X70087857Y3536191D02*
X69706904Y3536191D01*
X69611666Y3607620D02*
X69540238Y3583810D01*
X69421190Y3583810D01*
X69373571Y3607620D01*
X69349761Y3631429D01*
X69325952Y3679048D01*
X69325952Y3726667D01*
X69349761Y3774286D01*
X69373571Y3798096D01*
X69421190Y3821905D01*
X69516428Y3845715D01*
X69564047Y3869524D01*
X69587857Y3893334D01*
X69611666Y3940953D01*
X69611666Y3988572D01*
X69587857Y4036191D01*
X69564047Y4060000D01*
X69516428Y4083810D01*
X69397380Y4083810D01*
X69325952Y4060000D01*
X69016428Y4083810D02*
X68921190Y4083810D01*
X68873571Y4060000D01*
X68825952Y4012381D01*
X68802142Y3917143D01*
X68802142Y3750477D01*
X68825952Y3655239D01*
X68873571Y3607620D01*
X68921190Y3583810D01*
X69016428Y3583810D01*
X69064047Y3607620D01*
X69111666Y3655239D01*
X69135476Y3750477D01*
X69135476Y3917143D01*
X69111666Y4012381D01*
X69064047Y4060000D01*
X69016428Y4083810D01*
X68587857Y3774286D02*
X68206904Y3774286D01*
X67992619Y4036191D02*
X67968809Y4060000D01*
X67921190Y4083810D01*
X67802142Y4083810D01*
X67754523Y4060000D01*
X67730714Y4036191D01*
X67706904Y3988572D01*
X67706904Y3940953D01*
X67730714Y3869524D01*
X68016428Y3583810D01*
X67706904Y3583810D01*
X67278333Y3917143D02*
X67278333Y3583810D01*
X67397380Y4107620D02*
X67516428Y3750477D01*
X67206904Y3750477D01*
X67135476Y3536191D02*
X66754523Y3536191D01*
X66421190Y3917143D02*
X66421190Y3583810D01*
X66635476Y3917143D02*
X66635476Y3655239D01*
X66611666Y3607620D01*
X66564047Y3583810D01*
X66492619Y3583810D01*
X66445000Y3607620D01*
X66421190Y3631429D01*
X66183095Y3917143D02*
X66183095Y3583810D01*
X66183095Y3869524D02*
X66159285Y3893334D01*
X66111666Y3917143D01*
X66040238Y3917143D01*
X65992619Y3893334D01*
X65968809Y3845715D01*
X65968809Y3583810D01*
X65730714Y3583810D02*
X65730714Y3917143D01*
X65730714Y4083810D02*
X65754523Y4060000D01*
X65730714Y4036191D01*
X65706904Y4060000D01*
X65730714Y4083810D01*
X65730714Y4036191D01*
X65540238Y3917143D02*
X65421190Y3583810D01*
X65302142Y3917143D01*
X64921190Y3607620D02*
X64968809Y3583810D01*
X65064047Y3583810D01*
X65111666Y3607620D01*
X65135476Y3655239D01*
X65135476Y3845715D01*
X65111666Y3893334D01*
X65064047Y3917143D01*
X64968809Y3917143D01*
X64921190Y3893334D01*
X64897380Y3845715D01*
X64897380Y3798096D01*
X65135476Y3750477D01*
X64683095Y3583810D02*
X64683095Y3917143D01*
X64683095Y3821905D02*
X64659285Y3869524D01*
X64635476Y3893334D01*
X64587857Y3917143D01*
X64540238Y3917143D01*
X64397380Y3607620D02*
X64349761Y3583810D01*
X64254523Y3583810D01*
X64206904Y3607620D01*
X64183095Y3655239D01*
X64183095Y3679048D01*
X64206904Y3726667D01*
X64254523Y3750477D01*
X64325952Y3750477D01*
X64373571Y3774286D01*
X64397380Y3821905D01*
X64397380Y3845715D01*
X64373571Y3893334D01*
X64325952Y3917143D01*
X64254523Y3917143D01*
X64206904Y3893334D01*
X63754523Y3583810D02*
X63754523Y3845715D01*
X63778333Y3893334D01*
X63825952Y3917143D01*
X63921190Y3917143D01*
X63968809Y3893334D01*
X63754523Y3607620D02*
X63802142Y3583810D01*
X63921190Y3583810D01*
X63968809Y3607620D01*
X63992619Y3655239D01*
X63992619Y3702858D01*
X63968809Y3750477D01*
X63921190Y3774286D01*
X63802142Y3774286D01*
X63754523Y3798096D01*
X63445000Y3583810D02*
X63492619Y3607620D01*
X63516428Y3655239D01*
X63516428Y4083810D01*
G04 #@! TO.C,UA2*
X34297380Y3583810D02*
X34297380Y4083810D01*
X34106904Y4083810D01*
X34059285Y4060000D01*
X34035476Y4036191D01*
X34011666Y3988572D01*
X34011666Y3917143D01*
X34035476Y3869524D01*
X34059285Y3845715D01*
X34106904Y3821905D01*
X34297380Y3821905D01*
X33511666Y3631429D02*
X33535476Y3607620D01*
X33606904Y3583810D01*
X33654523Y3583810D01*
X33725952Y3607620D01*
X33773571Y3655239D01*
X33797380Y3702858D01*
X33821190Y3798096D01*
X33821190Y3869524D01*
X33797380Y3964762D01*
X33773571Y4012381D01*
X33725952Y4060000D01*
X33654523Y4083810D01*
X33606904Y4083810D01*
X33535476Y4060000D01*
X33511666Y4036191D01*
X33035476Y3583810D02*
X33321190Y3583810D01*
X33178333Y3583810D02*
X33178333Y4083810D01*
X33225952Y4012381D01*
X33273571Y3964762D01*
X33321190Y3940953D01*
X32725952Y4083810D02*
X32678333Y4083810D01*
X32630714Y4060000D01*
X32606904Y4036191D01*
X32583095Y3988572D01*
X32559285Y3893334D01*
X32559285Y3774286D01*
X32583095Y3679048D01*
X32606904Y3631429D01*
X32630714Y3607620D01*
X32678333Y3583810D01*
X32725952Y3583810D01*
X32773571Y3607620D01*
X32797380Y3631429D01*
X32821190Y3679048D01*
X32845000Y3774286D01*
X32845000Y3893334D01*
X32821190Y3988572D01*
X32797380Y4036191D01*
X32773571Y4060000D01*
X32725952Y4083810D01*
X32130714Y3917143D02*
X32130714Y3583810D01*
X32249761Y4107620D02*
X32368809Y3750477D01*
X32059285Y3750477D01*
X31987857Y3536191D02*
X31606904Y3536191D01*
X31511666Y3607620D02*
X31440238Y3583810D01*
X31321190Y3583810D01*
X31273571Y3607620D01*
X31249761Y3631429D01*
X31225952Y3679048D01*
X31225952Y3726667D01*
X31249761Y3774286D01*
X31273571Y3798096D01*
X31321190Y3821905D01*
X31416428Y3845715D01*
X31464047Y3869524D01*
X31487857Y3893334D01*
X31511666Y3940953D01*
X31511666Y3988572D01*
X31487857Y4036191D01*
X31464047Y4060000D01*
X31416428Y4083810D01*
X31297380Y4083810D01*
X31225952Y4060000D01*
X30916428Y4083810D02*
X30821190Y4083810D01*
X30773571Y4060000D01*
X30725952Y4012381D01*
X30702142Y3917143D01*
X30702142Y3750477D01*
X30725952Y3655239D01*
X30773571Y3607620D01*
X30821190Y3583810D01*
X30916428Y3583810D01*
X30964047Y3607620D01*
X31011666Y3655239D01*
X31035476Y3750477D01*
X31035476Y3917143D01*
X31011666Y4012381D01*
X30964047Y4060000D01*
X30916428Y4083810D01*
X30487857Y3774286D02*
X30106904Y3774286D01*
X29892619Y4036191D02*
X29868809Y4060000D01*
X29821190Y4083810D01*
X29702142Y4083810D01*
X29654523Y4060000D01*
X29630714Y4036191D01*
X29606904Y3988572D01*
X29606904Y3940953D01*
X29630714Y3869524D01*
X29916428Y3583810D01*
X29606904Y3583810D01*
X29178333Y3917143D02*
X29178333Y3583810D01*
X29297380Y4107620D02*
X29416428Y3750477D01*
X29106904Y3750477D01*
X29035476Y3536191D02*
X28654523Y3536191D01*
X28321190Y3917143D02*
X28321190Y3583810D01*
X28535476Y3917143D02*
X28535476Y3655239D01*
X28511666Y3607620D01*
X28464047Y3583810D01*
X28392619Y3583810D01*
X28345000Y3607620D01*
X28321190Y3631429D01*
X28083095Y3917143D02*
X28083095Y3583810D01*
X28083095Y3869524D02*
X28059285Y3893334D01*
X28011666Y3917143D01*
X27940238Y3917143D01*
X27892619Y3893334D01*
X27868809Y3845715D01*
X27868809Y3583810D01*
X27630714Y3583810D02*
X27630714Y3917143D01*
X27630714Y4083810D02*
X27654523Y4060000D01*
X27630714Y4036191D01*
X27606904Y4060000D01*
X27630714Y4083810D01*
X27630714Y4036191D01*
X27440238Y3917143D02*
X27321190Y3583810D01*
X27202142Y3917143D01*
X26821190Y3607620D02*
X26868809Y3583810D01*
X26964047Y3583810D01*
X27011666Y3607620D01*
X27035476Y3655239D01*
X27035476Y3845715D01*
X27011666Y3893334D01*
X26964047Y3917143D01*
X26868809Y3917143D01*
X26821190Y3893334D01*
X26797380Y3845715D01*
X26797380Y3798096D01*
X27035476Y3750477D01*
X26583095Y3583810D02*
X26583095Y3917143D01*
X26583095Y3821905D02*
X26559285Y3869524D01*
X26535476Y3893334D01*
X26487857Y3917143D01*
X26440238Y3917143D01*
X26297380Y3607620D02*
X26249761Y3583810D01*
X26154523Y3583810D01*
X26106904Y3607620D01*
X26083095Y3655239D01*
X26083095Y3679048D01*
X26106904Y3726667D01*
X26154523Y3750477D01*
X26225952Y3750477D01*
X26273571Y3774286D01*
X26297380Y3821905D01*
X26297380Y3845715D01*
X26273571Y3893334D01*
X26225952Y3917143D01*
X26154523Y3917143D01*
X26106904Y3893334D01*
X25654523Y3583810D02*
X25654523Y3845715D01*
X25678333Y3893334D01*
X25725952Y3917143D01*
X25821190Y3917143D01*
X25868809Y3893334D01*
X25654523Y3607620D02*
X25702142Y3583810D01*
X25821190Y3583810D01*
X25868809Y3607620D01*
X25892619Y3655239D01*
X25892619Y3702858D01*
X25868809Y3750477D01*
X25821190Y3774286D01*
X25702142Y3774286D01*
X25654523Y3798096D01*
X25345000Y3583810D02*
X25392619Y3607620D01*
X25416428Y3655239D01*
X25416428Y4083810D01*
G04 #@! TO.C,TP16*
X22305714Y53427143D02*
X22115238Y53427143D01*
X22234285Y53593810D02*
X22234285Y53165239D01*
X22210476Y53117620D01*
X22162857Y53093810D01*
X22115238Y53093810D01*
X21758095Y53117620D02*
X21805714Y53093810D01*
X21900952Y53093810D01*
X21948571Y53117620D01*
X21972380Y53165239D01*
X21972380Y53355715D01*
X21948571Y53403334D01*
X21900952Y53427143D01*
X21805714Y53427143D01*
X21758095Y53403334D01*
X21734285Y53355715D01*
X21734285Y53308096D01*
X21972380Y53260477D01*
X21543809Y53117620D02*
X21496190Y53093810D01*
X21400952Y53093810D01*
X21353333Y53117620D01*
X21329523Y53165239D01*
X21329523Y53189048D01*
X21353333Y53236667D01*
X21400952Y53260477D01*
X21472380Y53260477D01*
X21520000Y53284286D01*
X21543809Y53331905D01*
X21543809Y53355715D01*
X21520000Y53403334D01*
X21472380Y53427143D01*
X21400952Y53427143D01*
X21353333Y53403334D01*
X21186666Y53427143D02*
X20996190Y53427143D01*
X21115238Y53593810D02*
X21115238Y53165239D01*
X21091428Y53117620D01*
X21043809Y53093810D01*
X20996190Y53093810D01*
X20948571Y53046191D02*
X20567619Y53046191D01*
X20448571Y53427143D02*
X20448571Y52927143D01*
X20448571Y53403334D02*
X20400952Y53427143D01*
X20305714Y53427143D01*
X20258095Y53403334D01*
X20234285Y53379524D01*
X20210476Y53331905D01*
X20210476Y53189048D01*
X20234285Y53141429D01*
X20258095Y53117620D01*
X20305714Y53093810D01*
X20400952Y53093810D01*
X20448571Y53117620D01*
X19924761Y53093810D02*
X19972380Y53117620D01*
X19996190Y53141429D01*
X20020000Y53189048D01*
X20020000Y53331905D01*
X19996190Y53379524D01*
X19972380Y53403334D01*
X19924761Y53427143D01*
X19853333Y53427143D01*
X19805714Y53403334D01*
X19781904Y53379524D01*
X19758095Y53331905D01*
X19758095Y53189048D01*
X19781904Y53141429D01*
X19805714Y53117620D01*
X19853333Y53093810D01*
X19924761Y53093810D01*
X19543809Y53093810D02*
X19543809Y53427143D01*
X19543809Y53593810D02*
X19567619Y53570000D01*
X19543809Y53546191D01*
X19520000Y53570000D01*
X19543809Y53593810D01*
X19543809Y53546191D01*
X19305714Y53427143D02*
X19305714Y53093810D01*
X19305714Y53379524D02*
X19281904Y53403334D01*
X19234285Y53427143D01*
X19162857Y53427143D01*
X19115238Y53403334D01*
X19091428Y53355715D01*
X19091428Y53093810D01*
X18924761Y53427143D02*
X18734285Y53427143D01*
X18853333Y53593810D02*
X18853333Y53165239D01*
X18829523Y53117620D01*
X18781904Y53093810D01*
X18734285Y53093810D01*
G04 #@! TO.C,TP15*
X22305714Y55227143D02*
X22115238Y55227143D01*
X22234285Y55393810D02*
X22234285Y54965239D01*
X22210476Y54917620D01*
X22162857Y54893810D01*
X22115238Y54893810D01*
X21758095Y54917620D02*
X21805714Y54893810D01*
X21900952Y54893810D01*
X21948571Y54917620D01*
X21972380Y54965239D01*
X21972380Y55155715D01*
X21948571Y55203334D01*
X21900952Y55227143D01*
X21805714Y55227143D01*
X21758095Y55203334D01*
X21734285Y55155715D01*
X21734285Y55108096D01*
X21972380Y55060477D01*
X21543809Y54917620D02*
X21496190Y54893810D01*
X21400952Y54893810D01*
X21353333Y54917620D01*
X21329523Y54965239D01*
X21329523Y54989048D01*
X21353333Y55036667D01*
X21400952Y55060477D01*
X21472380Y55060477D01*
X21520000Y55084286D01*
X21543809Y55131905D01*
X21543809Y55155715D01*
X21520000Y55203334D01*
X21472380Y55227143D01*
X21400952Y55227143D01*
X21353333Y55203334D01*
X21186666Y55227143D02*
X20996190Y55227143D01*
X21115238Y55393810D02*
X21115238Y54965239D01*
X21091428Y54917620D01*
X21043809Y54893810D01*
X20996190Y54893810D01*
X20948571Y54846191D02*
X20567619Y54846191D01*
X20448571Y55227143D02*
X20448571Y54727143D01*
X20448571Y55203334D02*
X20400952Y55227143D01*
X20305714Y55227143D01*
X20258095Y55203334D01*
X20234285Y55179524D01*
X20210476Y55131905D01*
X20210476Y54989048D01*
X20234285Y54941429D01*
X20258095Y54917620D01*
X20305714Y54893810D01*
X20400952Y54893810D01*
X20448571Y54917620D01*
X19924761Y54893810D02*
X19972380Y54917620D01*
X19996190Y54941429D01*
X20020000Y54989048D01*
X20020000Y55131905D01*
X19996190Y55179524D01*
X19972380Y55203334D01*
X19924761Y55227143D01*
X19853333Y55227143D01*
X19805714Y55203334D01*
X19781904Y55179524D01*
X19758095Y55131905D01*
X19758095Y54989048D01*
X19781904Y54941429D01*
X19805714Y54917620D01*
X19853333Y54893810D01*
X19924761Y54893810D01*
X19543809Y54893810D02*
X19543809Y55227143D01*
X19543809Y55393810D02*
X19567619Y55370000D01*
X19543809Y55346191D01*
X19520000Y55370000D01*
X19543809Y55393810D01*
X19543809Y55346191D01*
X19305714Y55227143D02*
X19305714Y54893810D01*
X19305714Y55179524D02*
X19281904Y55203334D01*
X19234285Y55227143D01*
X19162857Y55227143D01*
X19115238Y55203334D01*
X19091428Y55155715D01*
X19091428Y54893810D01*
X18924761Y55227143D02*
X18734285Y55227143D01*
X18853333Y55393810D02*
X18853333Y54965239D01*
X18829523Y54917620D01*
X18781904Y54893810D01*
X18734285Y54893810D01*
G04 #@! TO.C,TP12*
X41955714Y53577143D02*
X41765238Y53577143D01*
X41884285Y53743810D02*
X41884285Y53315239D01*
X41860476Y53267620D01*
X41812857Y53243810D01*
X41765238Y53243810D01*
X41408095Y53267620D02*
X41455714Y53243810D01*
X41550952Y53243810D01*
X41598571Y53267620D01*
X41622380Y53315239D01*
X41622380Y53505715D01*
X41598571Y53553334D01*
X41550952Y53577143D01*
X41455714Y53577143D01*
X41408095Y53553334D01*
X41384285Y53505715D01*
X41384285Y53458096D01*
X41622380Y53410477D01*
X41193809Y53267620D02*
X41146190Y53243810D01*
X41050952Y53243810D01*
X41003333Y53267620D01*
X40979523Y53315239D01*
X40979523Y53339048D01*
X41003333Y53386667D01*
X41050952Y53410477D01*
X41122380Y53410477D01*
X41170000Y53434286D01*
X41193809Y53481905D01*
X41193809Y53505715D01*
X41170000Y53553334D01*
X41122380Y53577143D01*
X41050952Y53577143D01*
X41003333Y53553334D01*
X40836666Y53577143D02*
X40646190Y53577143D01*
X40765238Y53743810D02*
X40765238Y53315239D01*
X40741428Y53267620D01*
X40693809Y53243810D01*
X40646190Y53243810D01*
X40598571Y53196191D02*
X40217619Y53196191D01*
X40098571Y53577143D02*
X40098571Y53077143D01*
X40098571Y53553334D02*
X40050952Y53577143D01*
X39955714Y53577143D01*
X39908095Y53553334D01*
X39884285Y53529524D01*
X39860476Y53481905D01*
X39860476Y53339048D01*
X39884285Y53291429D01*
X39908095Y53267620D01*
X39955714Y53243810D01*
X40050952Y53243810D01*
X40098571Y53267620D01*
X39574761Y53243810D02*
X39622380Y53267620D01*
X39646190Y53291429D01*
X39670000Y53339048D01*
X39670000Y53481905D01*
X39646190Y53529524D01*
X39622380Y53553334D01*
X39574761Y53577143D01*
X39503333Y53577143D01*
X39455714Y53553334D01*
X39431904Y53529524D01*
X39408095Y53481905D01*
X39408095Y53339048D01*
X39431904Y53291429D01*
X39455714Y53267620D01*
X39503333Y53243810D01*
X39574761Y53243810D01*
X39193809Y53243810D02*
X39193809Y53577143D01*
X39193809Y53743810D02*
X39217619Y53720000D01*
X39193809Y53696191D01*
X39170000Y53720000D01*
X39193809Y53743810D01*
X39193809Y53696191D01*
X38955714Y53577143D02*
X38955714Y53243810D01*
X38955714Y53529524D02*
X38931904Y53553334D01*
X38884285Y53577143D01*
X38812857Y53577143D01*
X38765238Y53553334D01*
X38741428Y53505715D01*
X38741428Y53243810D01*
X38574761Y53577143D02*
X38384285Y53577143D01*
X38503333Y53743810D02*
X38503333Y53315239D01*
X38479523Y53267620D01*
X38431904Y53243810D01*
X38384285Y53243810D01*
G04 #@! TO.C,TP11*
X29905714Y55627143D02*
X29715238Y55627143D01*
X29834285Y55793810D02*
X29834285Y55365239D01*
X29810476Y55317620D01*
X29762857Y55293810D01*
X29715238Y55293810D01*
X29358095Y55317620D02*
X29405714Y55293810D01*
X29500952Y55293810D01*
X29548571Y55317620D01*
X29572380Y55365239D01*
X29572380Y55555715D01*
X29548571Y55603334D01*
X29500952Y55627143D01*
X29405714Y55627143D01*
X29358095Y55603334D01*
X29334285Y55555715D01*
X29334285Y55508096D01*
X29572380Y55460477D01*
X29143809Y55317620D02*
X29096190Y55293810D01*
X29000952Y55293810D01*
X28953333Y55317620D01*
X28929523Y55365239D01*
X28929523Y55389048D01*
X28953333Y55436667D01*
X29000952Y55460477D01*
X29072380Y55460477D01*
X29120000Y55484286D01*
X29143809Y55531905D01*
X29143809Y55555715D01*
X29120000Y55603334D01*
X29072380Y55627143D01*
X29000952Y55627143D01*
X28953333Y55603334D01*
X28786666Y55627143D02*
X28596190Y55627143D01*
X28715238Y55793810D02*
X28715238Y55365239D01*
X28691428Y55317620D01*
X28643809Y55293810D01*
X28596190Y55293810D01*
X28548571Y55246191D02*
X28167619Y55246191D01*
X28048571Y55627143D02*
X28048571Y55127143D01*
X28048571Y55603334D02*
X28000952Y55627143D01*
X27905714Y55627143D01*
X27858095Y55603334D01*
X27834285Y55579524D01*
X27810476Y55531905D01*
X27810476Y55389048D01*
X27834285Y55341429D01*
X27858095Y55317620D01*
X27905714Y55293810D01*
X28000952Y55293810D01*
X28048571Y55317620D01*
X27524761Y55293810D02*
X27572380Y55317620D01*
X27596190Y55341429D01*
X27620000Y55389048D01*
X27620000Y55531905D01*
X27596190Y55579524D01*
X27572380Y55603334D01*
X27524761Y55627143D01*
X27453333Y55627143D01*
X27405714Y55603334D01*
X27381904Y55579524D01*
X27358095Y55531905D01*
X27358095Y55389048D01*
X27381904Y55341429D01*
X27405714Y55317620D01*
X27453333Y55293810D01*
X27524761Y55293810D01*
X27143809Y55293810D02*
X27143809Y55627143D01*
X27143809Y55793810D02*
X27167619Y55770000D01*
X27143809Y55746191D01*
X27120000Y55770000D01*
X27143809Y55793810D01*
X27143809Y55746191D01*
X26905714Y55627143D02*
X26905714Y55293810D01*
X26905714Y55579524D02*
X26881904Y55603334D01*
X26834285Y55627143D01*
X26762857Y55627143D01*
X26715238Y55603334D01*
X26691428Y55555715D01*
X26691428Y55293810D01*
X26524761Y55627143D02*
X26334285Y55627143D01*
X26453333Y55793810D02*
X26453333Y55365239D01*
X26429523Y55317620D01*
X26381904Y55293810D01*
X26334285Y55293810D01*
G04 #@! TO.C,TP10*
X29905714Y53027143D02*
X29715238Y53027143D01*
X29834285Y53193810D02*
X29834285Y52765239D01*
X29810476Y52717620D01*
X29762857Y52693810D01*
X29715238Y52693810D01*
X29358095Y52717620D02*
X29405714Y52693810D01*
X29500952Y52693810D01*
X29548571Y52717620D01*
X29572380Y52765239D01*
X29572380Y52955715D01*
X29548571Y53003334D01*
X29500952Y53027143D01*
X29405714Y53027143D01*
X29358095Y53003334D01*
X29334285Y52955715D01*
X29334285Y52908096D01*
X29572380Y52860477D01*
X29143809Y52717620D02*
X29096190Y52693810D01*
X29000952Y52693810D01*
X28953333Y52717620D01*
X28929523Y52765239D01*
X28929523Y52789048D01*
X28953333Y52836667D01*
X29000952Y52860477D01*
X29072380Y52860477D01*
X29120000Y52884286D01*
X29143809Y52931905D01*
X29143809Y52955715D01*
X29120000Y53003334D01*
X29072380Y53027143D01*
X29000952Y53027143D01*
X28953333Y53003334D01*
X28786666Y53027143D02*
X28596190Y53027143D01*
X28715238Y53193810D02*
X28715238Y52765239D01*
X28691428Y52717620D01*
X28643809Y52693810D01*
X28596190Y52693810D01*
X28548571Y52646191D02*
X28167619Y52646191D01*
X28048571Y53027143D02*
X28048571Y52527143D01*
X28048571Y53003334D02*
X28000952Y53027143D01*
X27905714Y53027143D01*
X27858095Y53003334D01*
X27834285Y52979524D01*
X27810476Y52931905D01*
X27810476Y52789048D01*
X27834285Y52741429D01*
X27858095Y52717620D01*
X27905714Y52693810D01*
X28000952Y52693810D01*
X28048571Y52717620D01*
X27524761Y52693810D02*
X27572380Y52717620D01*
X27596190Y52741429D01*
X27620000Y52789048D01*
X27620000Y52931905D01*
X27596190Y52979524D01*
X27572380Y53003334D01*
X27524761Y53027143D01*
X27453333Y53027143D01*
X27405714Y53003334D01*
X27381904Y52979524D01*
X27358095Y52931905D01*
X27358095Y52789048D01*
X27381904Y52741429D01*
X27405714Y52717620D01*
X27453333Y52693810D01*
X27524761Y52693810D01*
X27143809Y52693810D02*
X27143809Y53027143D01*
X27143809Y53193810D02*
X27167619Y53170000D01*
X27143809Y53146191D01*
X27120000Y53170000D01*
X27143809Y53193810D01*
X27143809Y53146191D01*
X26905714Y53027143D02*
X26905714Y52693810D01*
X26905714Y52979524D02*
X26881904Y53003334D01*
X26834285Y53027143D01*
X26762857Y53027143D01*
X26715238Y53003334D01*
X26691428Y52955715D01*
X26691428Y52693810D01*
X26524761Y53027143D02*
X26334285Y53027143D01*
X26453333Y53193810D02*
X26453333Y52765239D01*
X26429523Y52717620D01*
X26381904Y52693810D01*
X26334285Y52693810D01*
G04 #@! TO.C,TP9*
X41955714Y56497143D02*
X41765238Y56497143D01*
X41884285Y56663810D02*
X41884285Y56235239D01*
X41860476Y56187620D01*
X41812857Y56163810D01*
X41765238Y56163810D01*
X41408095Y56187620D02*
X41455714Y56163810D01*
X41550952Y56163810D01*
X41598571Y56187620D01*
X41622380Y56235239D01*
X41622380Y56425715D01*
X41598571Y56473334D01*
X41550952Y56497143D01*
X41455714Y56497143D01*
X41408095Y56473334D01*
X41384285Y56425715D01*
X41384285Y56378096D01*
X41622380Y56330477D01*
X41193809Y56187620D02*
X41146190Y56163810D01*
X41050952Y56163810D01*
X41003333Y56187620D01*
X40979523Y56235239D01*
X40979523Y56259048D01*
X41003333Y56306667D01*
X41050952Y56330477D01*
X41122380Y56330477D01*
X41170000Y56354286D01*
X41193809Y56401905D01*
X41193809Y56425715D01*
X41170000Y56473334D01*
X41122380Y56497143D01*
X41050952Y56497143D01*
X41003333Y56473334D01*
X40836666Y56497143D02*
X40646190Y56497143D01*
X40765238Y56663810D02*
X40765238Y56235239D01*
X40741428Y56187620D01*
X40693809Y56163810D01*
X40646190Y56163810D01*
X40598571Y56116191D02*
X40217619Y56116191D01*
X40098571Y56497143D02*
X40098571Y55997143D01*
X40098571Y56473334D02*
X40050952Y56497143D01*
X39955714Y56497143D01*
X39908095Y56473334D01*
X39884285Y56449524D01*
X39860476Y56401905D01*
X39860476Y56259048D01*
X39884285Y56211429D01*
X39908095Y56187620D01*
X39955714Y56163810D01*
X40050952Y56163810D01*
X40098571Y56187620D01*
X39574761Y56163810D02*
X39622380Y56187620D01*
X39646190Y56211429D01*
X39670000Y56259048D01*
X39670000Y56401905D01*
X39646190Y56449524D01*
X39622380Y56473334D01*
X39574761Y56497143D01*
X39503333Y56497143D01*
X39455714Y56473334D01*
X39431904Y56449524D01*
X39408095Y56401905D01*
X39408095Y56259048D01*
X39431904Y56211429D01*
X39455714Y56187620D01*
X39503333Y56163810D01*
X39574761Y56163810D01*
X39193809Y56163810D02*
X39193809Y56497143D01*
X39193809Y56663810D02*
X39217619Y56640000D01*
X39193809Y56616191D01*
X39170000Y56640000D01*
X39193809Y56663810D01*
X39193809Y56616191D01*
X38955714Y56497143D02*
X38955714Y56163810D01*
X38955714Y56449524D02*
X38931904Y56473334D01*
X38884285Y56497143D01*
X38812857Y56497143D01*
X38765238Y56473334D01*
X38741428Y56425715D01*
X38741428Y56163810D01*
X38574761Y56497143D02*
X38384285Y56497143D01*
X38503333Y56663810D02*
X38503333Y56235239D01*
X38479523Y56187620D01*
X38431904Y56163810D01*
X38384285Y56163810D01*
G04 #@! TO.C,TP8*
X41955714Y55037143D02*
X41765238Y55037143D01*
X41884285Y55203810D02*
X41884285Y54775239D01*
X41860476Y54727620D01*
X41812857Y54703810D01*
X41765238Y54703810D01*
X41408095Y54727620D02*
X41455714Y54703810D01*
X41550952Y54703810D01*
X41598571Y54727620D01*
X41622380Y54775239D01*
X41622380Y54965715D01*
X41598571Y55013334D01*
X41550952Y55037143D01*
X41455714Y55037143D01*
X41408095Y55013334D01*
X41384285Y54965715D01*
X41384285Y54918096D01*
X41622380Y54870477D01*
X41193809Y54727620D02*
X41146190Y54703810D01*
X41050952Y54703810D01*
X41003333Y54727620D01*
X40979523Y54775239D01*
X40979523Y54799048D01*
X41003333Y54846667D01*
X41050952Y54870477D01*
X41122380Y54870477D01*
X41170000Y54894286D01*
X41193809Y54941905D01*
X41193809Y54965715D01*
X41170000Y55013334D01*
X41122380Y55037143D01*
X41050952Y55037143D01*
X41003333Y55013334D01*
X40836666Y55037143D02*
X40646190Y55037143D01*
X40765238Y55203810D02*
X40765238Y54775239D01*
X40741428Y54727620D01*
X40693809Y54703810D01*
X40646190Y54703810D01*
X40598571Y54656191D02*
X40217619Y54656191D01*
X40098571Y55037143D02*
X40098571Y54537143D01*
X40098571Y55013334D02*
X40050952Y55037143D01*
X39955714Y55037143D01*
X39908095Y55013334D01*
X39884285Y54989524D01*
X39860476Y54941905D01*
X39860476Y54799048D01*
X39884285Y54751429D01*
X39908095Y54727620D01*
X39955714Y54703810D01*
X40050952Y54703810D01*
X40098571Y54727620D01*
X39574761Y54703810D02*
X39622380Y54727620D01*
X39646190Y54751429D01*
X39670000Y54799048D01*
X39670000Y54941905D01*
X39646190Y54989524D01*
X39622380Y55013334D01*
X39574761Y55037143D01*
X39503333Y55037143D01*
X39455714Y55013334D01*
X39431904Y54989524D01*
X39408095Y54941905D01*
X39408095Y54799048D01*
X39431904Y54751429D01*
X39455714Y54727620D01*
X39503333Y54703810D01*
X39574761Y54703810D01*
X39193809Y54703810D02*
X39193809Y55037143D01*
X39193809Y55203810D02*
X39217619Y55180000D01*
X39193809Y55156191D01*
X39170000Y55180000D01*
X39193809Y55203810D01*
X39193809Y55156191D01*
X38955714Y55037143D02*
X38955714Y54703810D01*
X38955714Y54989524D02*
X38931904Y55013334D01*
X38884285Y55037143D01*
X38812857Y55037143D01*
X38765238Y55013334D01*
X38741428Y54965715D01*
X38741428Y54703810D01*
X38574761Y55037143D02*
X38384285Y55037143D01*
X38503333Y55203810D02*
X38503333Y54775239D01*
X38479523Y54727620D01*
X38431904Y54703810D01*
X38384285Y54703810D01*
G04 #@! TO.C,TP7*
X18797714Y38827143D02*
X18607238Y38827143D01*
X18726285Y38993810D02*
X18726285Y38565239D01*
X18702476Y38517620D01*
X18654857Y38493810D01*
X18607238Y38493810D01*
X18250095Y38517620D02*
X18297714Y38493810D01*
X18392952Y38493810D01*
X18440571Y38517620D01*
X18464380Y38565239D01*
X18464380Y38755715D01*
X18440571Y38803334D01*
X18392952Y38827143D01*
X18297714Y38827143D01*
X18250095Y38803334D01*
X18226285Y38755715D01*
X18226285Y38708096D01*
X18464380Y38660477D01*
X18035809Y38517620D02*
X17988190Y38493810D01*
X17892952Y38493810D01*
X17845333Y38517620D01*
X17821523Y38565239D01*
X17821523Y38589048D01*
X17845333Y38636667D01*
X17892952Y38660477D01*
X17964380Y38660477D01*
X18012000Y38684286D01*
X18035809Y38731905D01*
X18035809Y38755715D01*
X18012000Y38803334D01*
X17964380Y38827143D01*
X17892952Y38827143D01*
X17845333Y38803334D01*
X17678666Y38827143D02*
X17488190Y38827143D01*
X17607238Y38993810D02*
X17607238Y38565239D01*
X17583428Y38517620D01*
X17535809Y38493810D01*
X17488190Y38493810D01*
X17440571Y38446191D02*
X17059619Y38446191D01*
X16940571Y38827143D02*
X16940571Y38327143D01*
X16940571Y38803334D02*
X16892952Y38827143D01*
X16797714Y38827143D01*
X16750095Y38803334D01*
X16726285Y38779524D01*
X16702476Y38731905D01*
X16702476Y38589048D01*
X16726285Y38541429D01*
X16750095Y38517620D01*
X16797714Y38493810D01*
X16892952Y38493810D01*
X16940571Y38517620D01*
X16416761Y38493810D02*
X16464380Y38517620D01*
X16488190Y38541429D01*
X16512000Y38589048D01*
X16512000Y38731905D01*
X16488190Y38779524D01*
X16464380Y38803334D01*
X16416761Y38827143D01*
X16345333Y38827143D01*
X16297714Y38803334D01*
X16273904Y38779524D01*
X16250095Y38731905D01*
X16250095Y38589048D01*
X16273904Y38541429D01*
X16297714Y38517620D01*
X16345333Y38493810D01*
X16416761Y38493810D01*
X16035809Y38493810D02*
X16035809Y38827143D01*
X16035809Y38993810D02*
X16059619Y38970000D01*
X16035809Y38946191D01*
X16012000Y38970000D01*
X16035809Y38993810D01*
X16035809Y38946191D01*
X15797714Y38827143D02*
X15797714Y38493810D01*
X15797714Y38779524D02*
X15773904Y38803334D01*
X15726285Y38827143D01*
X15654857Y38827143D01*
X15607238Y38803334D01*
X15583428Y38755715D01*
X15583428Y38493810D01*
X15416761Y38827143D02*
X15226285Y38827143D01*
X15345333Y38993810D02*
X15345333Y38565239D01*
X15321523Y38517620D01*
X15273904Y38493810D01*
X15226285Y38493810D01*
G04 #@! TO.C,TP6*
X18797714Y36827143D02*
X18607238Y36827143D01*
X18726285Y36993810D02*
X18726285Y36565239D01*
X18702476Y36517620D01*
X18654857Y36493810D01*
X18607238Y36493810D01*
X18250095Y36517620D02*
X18297714Y36493810D01*
X18392952Y36493810D01*
X18440571Y36517620D01*
X18464380Y36565239D01*
X18464380Y36755715D01*
X18440571Y36803334D01*
X18392952Y36827143D01*
X18297714Y36827143D01*
X18250095Y36803334D01*
X18226285Y36755715D01*
X18226285Y36708096D01*
X18464380Y36660477D01*
X18035809Y36517620D02*
X17988190Y36493810D01*
X17892952Y36493810D01*
X17845333Y36517620D01*
X17821523Y36565239D01*
X17821523Y36589048D01*
X17845333Y36636667D01*
X17892952Y36660477D01*
X17964380Y36660477D01*
X18012000Y36684286D01*
X18035809Y36731905D01*
X18035809Y36755715D01*
X18012000Y36803334D01*
X17964380Y36827143D01*
X17892952Y36827143D01*
X17845333Y36803334D01*
X17678666Y36827143D02*
X17488190Y36827143D01*
X17607238Y36993810D02*
X17607238Y36565239D01*
X17583428Y36517620D01*
X17535809Y36493810D01*
X17488190Y36493810D01*
X17440571Y36446191D02*
X17059619Y36446191D01*
X16940571Y36827143D02*
X16940571Y36327143D01*
X16940571Y36803334D02*
X16892952Y36827143D01*
X16797714Y36827143D01*
X16750095Y36803334D01*
X16726285Y36779524D01*
X16702476Y36731905D01*
X16702476Y36589048D01*
X16726285Y36541429D01*
X16750095Y36517620D01*
X16797714Y36493810D01*
X16892952Y36493810D01*
X16940571Y36517620D01*
X16416761Y36493810D02*
X16464380Y36517620D01*
X16488190Y36541429D01*
X16512000Y36589048D01*
X16512000Y36731905D01*
X16488190Y36779524D01*
X16464380Y36803334D01*
X16416761Y36827143D01*
X16345333Y36827143D01*
X16297714Y36803334D01*
X16273904Y36779524D01*
X16250095Y36731905D01*
X16250095Y36589048D01*
X16273904Y36541429D01*
X16297714Y36517620D01*
X16345333Y36493810D01*
X16416761Y36493810D01*
X16035809Y36493810D02*
X16035809Y36827143D01*
X16035809Y36993810D02*
X16059619Y36970000D01*
X16035809Y36946191D01*
X16012000Y36970000D01*
X16035809Y36993810D01*
X16035809Y36946191D01*
X15797714Y36827143D02*
X15797714Y36493810D01*
X15797714Y36779524D02*
X15773904Y36803334D01*
X15726285Y36827143D01*
X15654857Y36827143D01*
X15607238Y36803334D01*
X15583428Y36755715D01*
X15583428Y36493810D01*
X15416761Y36827143D02*
X15226285Y36827143D01*
X15345333Y36993810D02*
X15345333Y36565239D01*
X15321523Y36517620D01*
X15273904Y36493810D01*
X15226285Y36493810D01*
G04 #@! TO.C,TP5*
X23502714Y38027143D02*
X23312238Y38027143D01*
X23431285Y38193810D02*
X23431285Y37765239D01*
X23407476Y37717620D01*
X23359857Y37693810D01*
X23312238Y37693810D01*
X22955095Y37717620D02*
X23002714Y37693810D01*
X23097952Y37693810D01*
X23145571Y37717620D01*
X23169380Y37765239D01*
X23169380Y37955715D01*
X23145571Y38003334D01*
X23097952Y38027143D01*
X23002714Y38027143D01*
X22955095Y38003334D01*
X22931285Y37955715D01*
X22931285Y37908096D01*
X23169380Y37860477D01*
X22740809Y37717620D02*
X22693190Y37693810D01*
X22597952Y37693810D01*
X22550333Y37717620D01*
X22526523Y37765239D01*
X22526523Y37789048D01*
X22550333Y37836667D01*
X22597952Y37860477D01*
X22669380Y37860477D01*
X22717000Y37884286D01*
X22740809Y37931905D01*
X22740809Y37955715D01*
X22717000Y38003334D01*
X22669380Y38027143D01*
X22597952Y38027143D01*
X22550333Y38003334D01*
X22383666Y38027143D02*
X22193190Y38027143D01*
X22312238Y38193810D02*
X22312238Y37765239D01*
X22288428Y37717620D01*
X22240809Y37693810D01*
X22193190Y37693810D01*
X22145571Y37646191D02*
X21764619Y37646191D01*
X21645571Y38027143D02*
X21645571Y37527143D01*
X21645571Y38003334D02*
X21597952Y38027143D01*
X21502714Y38027143D01*
X21455095Y38003334D01*
X21431285Y37979524D01*
X21407476Y37931905D01*
X21407476Y37789048D01*
X21431285Y37741429D01*
X21455095Y37717620D01*
X21502714Y37693810D01*
X21597952Y37693810D01*
X21645571Y37717620D01*
X21121761Y37693810D02*
X21169380Y37717620D01*
X21193190Y37741429D01*
X21217000Y37789048D01*
X21217000Y37931905D01*
X21193190Y37979524D01*
X21169380Y38003334D01*
X21121761Y38027143D01*
X21050333Y38027143D01*
X21002714Y38003334D01*
X20978904Y37979524D01*
X20955095Y37931905D01*
X20955095Y37789048D01*
X20978904Y37741429D01*
X21002714Y37717620D01*
X21050333Y37693810D01*
X21121761Y37693810D01*
X20740809Y37693810D02*
X20740809Y38027143D01*
X20740809Y38193810D02*
X20764619Y38170000D01*
X20740809Y38146191D01*
X20717000Y38170000D01*
X20740809Y38193810D01*
X20740809Y38146191D01*
X20502714Y38027143D02*
X20502714Y37693810D01*
X20502714Y37979524D02*
X20478904Y38003334D01*
X20431285Y38027143D01*
X20359857Y38027143D01*
X20312238Y38003334D01*
X20288428Y37955715D01*
X20288428Y37693810D01*
X20121761Y38027143D02*
X19931285Y38027143D01*
X20050333Y38193810D02*
X20050333Y37765239D01*
X20026523Y37717620D01*
X19978904Y37693810D01*
X19931285Y37693810D01*
G04 #@! TO.C,TP4*
X18803714Y34827143D02*
X18613238Y34827143D01*
X18732285Y34993810D02*
X18732285Y34565239D01*
X18708476Y34517620D01*
X18660857Y34493810D01*
X18613238Y34493810D01*
X18256095Y34517620D02*
X18303714Y34493810D01*
X18398952Y34493810D01*
X18446571Y34517620D01*
X18470380Y34565239D01*
X18470380Y34755715D01*
X18446571Y34803334D01*
X18398952Y34827143D01*
X18303714Y34827143D01*
X18256095Y34803334D01*
X18232285Y34755715D01*
X18232285Y34708096D01*
X18470380Y34660477D01*
X18041809Y34517620D02*
X17994190Y34493810D01*
X17898952Y34493810D01*
X17851333Y34517620D01*
X17827523Y34565239D01*
X17827523Y34589048D01*
X17851333Y34636667D01*
X17898952Y34660477D01*
X17970380Y34660477D01*
X18018000Y34684286D01*
X18041809Y34731905D01*
X18041809Y34755715D01*
X18018000Y34803334D01*
X17970380Y34827143D01*
X17898952Y34827143D01*
X17851333Y34803334D01*
X17684666Y34827143D02*
X17494190Y34827143D01*
X17613238Y34993810D02*
X17613238Y34565239D01*
X17589428Y34517620D01*
X17541809Y34493810D01*
X17494190Y34493810D01*
X17446571Y34446191D02*
X17065619Y34446191D01*
X16946571Y34827143D02*
X16946571Y34327143D01*
X16946571Y34803334D02*
X16898952Y34827143D01*
X16803714Y34827143D01*
X16756095Y34803334D01*
X16732285Y34779524D01*
X16708476Y34731905D01*
X16708476Y34589048D01*
X16732285Y34541429D01*
X16756095Y34517620D01*
X16803714Y34493810D01*
X16898952Y34493810D01*
X16946571Y34517620D01*
X16422761Y34493810D02*
X16470380Y34517620D01*
X16494190Y34541429D01*
X16518000Y34589048D01*
X16518000Y34731905D01*
X16494190Y34779524D01*
X16470380Y34803334D01*
X16422761Y34827143D01*
X16351333Y34827143D01*
X16303714Y34803334D01*
X16279904Y34779524D01*
X16256095Y34731905D01*
X16256095Y34589048D01*
X16279904Y34541429D01*
X16303714Y34517620D01*
X16351333Y34493810D01*
X16422761Y34493810D01*
X16041809Y34493810D02*
X16041809Y34827143D01*
X16041809Y34993810D02*
X16065619Y34970000D01*
X16041809Y34946191D01*
X16018000Y34970000D01*
X16041809Y34993810D01*
X16041809Y34946191D01*
X15803714Y34827143D02*
X15803714Y34493810D01*
X15803714Y34779524D02*
X15779904Y34803334D01*
X15732285Y34827143D01*
X15660857Y34827143D01*
X15613238Y34803334D01*
X15589428Y34755715D01*
X15589428Y34493810D01*
X15422761Y34827143D02*
X15232285Y34827143D01*
X15351333Y34993810D02*
X15351333Y34565239D01*
X15327523Y34517620D01*
X15279904Y34493810D01*
X15232285Y34493810D01*
G04 #@! TO.C,TP3*
X23502714Y34827143D02*
X23312238Y34827143D01*
X23431285Y34993810D02*
X23431285Y34565239D01*
X23407476Y34517620D01*
X23359857Y34493810D01*
X23312238Y34493810D01*
X22955095Y34517620D02*
X23002714Y34493810D01*
X23097952Y34493810D01*
X23145571Y34517620D01*
X23169380Y34565239D01*
X23169380Y34755715D01*
X23145571Y34803334D01*
X23097952Y34827143D01*
X23002714Y34827143D01*
X22955095Y34803334D01*
X22931285Y34755715D01*
X22931285Y34708096D01*
X23169380Y34660477D01*
X22740809Y34517620D02*
X22693190Y34493810D01*
X22597952Y34493810D01*
X22550333Y34517620D01*
X22526523Y34565239D01*
X22526523Y34589048D01*
X22550333Y34636667D01*
X22597952Y34660477D01*
X22669380Y34660477D01*
X22717000Y34684286D01*
X22740809Y34731905D01*
X22740809Y34755715D01*
X22717000Y34803334D01*
X22669380Y34827143D01*
X22597952Y34827143D01*
X22550333Y34803334D01*
X22383666Y34827143D02*
X22193190Y34827143D01*
X22312238Y34993810D02*
X22312238Y34565239D01*
X22288428Y34517620D01*
X22240809Y34493810D01*
X22193190Y34493810D01*
X22145571Y34446191D02*
X21764619Y34446191D01*
X21645571Y34827143D02*
X21645571Y34327143D01*
X21645571Y34803334D02*
X21597952Y34827143D01*
X21502714Y34827143D01*
X21455095Y34803334D01*
X21431285Y34779524D01*
X21407476Y34731905D01*
X21407476Y34589048D01*
X21431285Y34541429D01*
X21455095Y34517620D01*
X21502714Y34493810D01*
X21597952Y34493810D01*
X21645571Y34517620D01*
X21121761Y34493810D02*
X21169380Y34517620D01*
X21193190Y34541429D01*
X21217000Y34589048D01*
X21217000Y34731905D01*
X21193190Y34779524D01*
X21169380Y34803334D01*
X21121761Y34827143D01*
X21050333Y34827143D01*
X21002714Y34803334D01*
X20978904Y34779524D01*
X20955095Y34731905D01*
X20955095Y34589048D01*
X20978904Y34541429D01*
X21002714Y34517620D01*
X21050333Y34493810D01*
X21121761Y34493810D01*
X20740809Y34493810D02*
X20740809Y34827143D01*
X20740809Y34993810D02*
X20764619Y34970000D01*
X20740809Y34946191D01*
X20717000Y34970000D01*
X20740809Y34993810D01*
X20740809Y34946191D01*
X20502714Y34827143D02*
X20502714Y34493810D01*
X20502714Y34779524D02*
X20478904Y34803334D01*
X20431285Y34827143D01*
X20359857Y34827143D01*
X20312238Y34803334D01*
X20288428Y34755715D01*
X20288428Y34493810D01*
X20121761Y34827143D02*
X19931285Y34827143D01*
X20050333Y34993810D02*
X20050333Y34565239D01*
X20026523Y34517620D01*
X19978904Y34493810D01*
X19931285Y34493810D01*
G04 #@! TO.C,TP2*
X19105714Y56827143D02*
X18915238Y56827143D01*
X19034285Y56993810D02*
X19034285Y56565239D01*
X19010476Y56517620D01*
X18962857Y56493810D01*
X18915238Y56493810D01*
X18558095Y56517620D02*
X18605714Y56493810D01*
X18700952Y56493810D01*
X18748571Y56517620D01*
X18772380Y56565239D01*
X18772380Y56755715D01*
X18748571Y56803334D01*
X18700952Y56827143D01*
X18605714Y56827143D01*
X18558095Y56803334D01*
X18534285Y56755715D01*
X18534285Y56708096D01*
X18772380Y56660477D01*
X18343809Y56517620D02*
X18296190Y56493810D01*
X18200952Y56493810D01*
X18153333Y56517620D01*
X18129523Y56565239D01*
X18129523Y56589048D01*
X18153333Y56636667D01*
X18200952Y56660477D01*
X18272380Y56660477D01*
X18320000Y56684286D01*
X18343809Y56731905D01*
X18343809Y56755715D01*
X18320000Y56803334D01*
X18272380Y56827143D01*
X18200952Y56827143D01*
X18153333Y56803334D01*
X17986666Y56827143D02*
X17796190Y56827143D01*
X17915238Y56993810D02*
X17915238Y56565239D01*
X17891428Y56517620D01*
X17843809Y56493810D01*
X17796190Y56493810D01*
X17748571Y56446191D02*
X17367619Y56446191D01*
X17248571Y56827143D02*
X17248571Y56327143D01*
X17248571Y56803334D02*
X17200952Y56827143D01*
X17105714Y56827143D01*
X17058095Y56803334D01*
X17034285Y56779524D01*
X17010476Y56731905D01*
X17010476Y56589048D01*
X17034285Y56541429D01*
X17058095Y56517620D01*
X17105714Y56493810D01*
X17200952Y56493810D01*
X17248571Y56517620D01*
X16724761Y56493810D02*
X16772380Y56517620D01*
X16796190Y56541429D01*
X16820000Y56589048D01*
X16820000Y56731905D01*
X16796190Y56779524D01*
X16772380Y56803334D01*
X16724761Y56827143D01*
X16653333Y56827143D01*
X16605714Y56803334D01*
X16581904Y56779524D01*
X16558095Y56731905D01*
X16558095Y56589048D01*
X16581904Y56541429D01*
X16605714Y56517620D01*
X16653333Y56493810D01*
X16724761Y56493810D01*
X16343809Y56493810D02*
X16343809Y56827143D01*
X16343809Y56993810D02*
X16367619Y56970000D01*
X16343809Y56946191D01*
X16320000Y56970000D01*
X16343809Y56993810D01*
X16343809Y56946191D01*
X16105714Y56827143D02*
X16105714Y56493810D01*
X16105714Y56779524D02*
X16081904Y56803334D01*
X16034285Y56827143D01*
X15962857Y56827143D01*
X15915238Y56803334D01*
X15891428Y56755715D01*
X15891428Y56493810D01*
X15724761Y56827143D02*
X15534285Y56827143D01*
X15653333Y56993810D02*
X15653333Y56565239D01*
X15629523Y56517620D01*
X15581904Y56493810D01*
X15534285Y56493810D01*
G04 #@! TO.C,TP1*
X19105714Y58627143D02*
X18915238Y58627143D01*
X19034285Y58793810D02*
X19034285Y58365239D01*
X19010476Y58317620D01*
X18962857Y58293810D01*
X18915238Y58293810D01*
X18558095Y58317620D02*
X18605714Y58293810D01*
X18700952Y58293810D01*
X18748571Y58317620D01*
X18772380Y58365239D01*
X18772380Y58555715D01*
X18748571Y58603334D01*
X18700952Y58627143D01*
X18605714Y58627143D01*
X18558095Y58603334D01*
X18534285Y58555715D01*
X18534285Y58508096D01*
X18772380Y58460477D01*
X18343809Y58317620D02*
X18296190Y58293810D01*
X18200952Y58293810D01*
X18153333Y58317620D01*
X18129523Y58365239D01*
X18129523Y58389048D01*
X18153333Y58436667D01*
X18200952Y58460477D01*
X18272380Y58460477D01*
X18320000Y58484286D01*
X18343809Y58531905D01*
X18343809Y58555715D01*
X18320000Y58603334D01*
X18272380Y58627143D01*
X18200952Y58627143D01*
X18153333Y58603334D01*
X17986666Y58627143D02*
X17796190Y58627143D01*
X17915238Y58793810D02*
X17915238Y58365239D01*
X17891428Y58317620D01*
X17843809Y58293810D01*
X17796190Y58293810D01*
X17748571Y58246191D02*
X17367619Y58246191D01*
X17248571Y58627143D02*
X17248571Y58127143D01*
X17248571Y58603334D02*
X17200952Y58627143D01*
X17105714Y58627143D01*
X17058095Y58603334D01*
X17034285Y58579524D01*
X17010476Y58531905D01*
X17010476Y58389048D01*
X17034285Y58341429D01*
X17058095Y58317620D01*
X17105714Y58293810D01*
X17200952Y58293810D01*
X17248571Y58317620D01*
X16724761Y58293810D02*
X16772380Y58317620D01*
X16796190Y58341429D01*
X16820000Y58389048D01*
X16820000Y58531905D01*
X16796190Y58579524D01*
X16772380Y58603334D01*
X16724761Y58627143D01*
X16653333Y58627143D01*
X16605714Y58603334D01*
X16581904Y58579524D01*
X16558095Y58531905D01*
X16558095Y58389048D01*
X16581904Y58341429D01*
X16605714Y58317620D01*
X16653333Y58293810D01*
X16724761Y58293810D01*
X16343809Y58293810D02*
X16343809Y58627143D01*
X16343809Y58793810D02*
X16367619Y58770000D01*
X16343809Y58746191D01*
X16320000Y58770000D01*
X16343809Y58793810D01*
X16343809Y58746191D01*
X16105714Y58627143D02*
X16105714Y58293810D01*
X16105714Y58579524D02*
X16081904Y58603334D01*
X16034285Y58627143D01*
X15962857Y58627143D01*
X15915238Y58603334D01*
X15891428Y58555715D01*
X15891428Y58293810D01*
X15724761Y58627143D02*
X15534285Y58627143D01*
X15653333Y58793810D02*
X15653333Y58365239D01*
X15629523Y58317620D01*
X15581904Y58293810D01*
X15534285Y58293810D01*
G04 #@! TO.C,M4*
X36051904Y54304429D02*
X36075714Y54280620D01*
X36147142Y54256810D01*
X36194761Y54256810D01*
X36266190Y54280620D01*
X36313809Y54328239D01*
X36337619Y54375858D01*
X36361428Y54471096D01*
X36361428Y54542524D01*
X36337619Y54637762D01*
X36313809Y54685381D01*
X36266190Y54733000D01*
X36194761Y54756810D01*
X36147142Y54756810D01*
X36075714Y54733000D01*
X36051904Y54709191D01*
X35742380Y54494905D02*
X35742380Y54256810D01*
X35909047Y54756810D02*
X35742380Y54494905D01*
X35575714Y54756810D01*
X35147142Y54256810D02*
X35432857Y54256810D01*
X35290000Y54256810D02*
X35290000Y54756810D01*
X35337619Y54685381D01*
X35385238Y54637762D01*
X35432857Y54613953D01*
X34694761Y54756810D02*
X34932857Y54756810D01*
X34956666Y54518715D01*
X34932857Y54542524D01*
X34885238Y54566334D01*
X34766190Y54566334D01*
X34718571Y54542524D01*
X34694761Y54518715D01*
X34670952Y54471096D01*
X34670952Y54352048D01*
X34694761Y54304429D01*
X34718571Y54280620D01*
X34766190Y54256810D01*
X34885238Y54256810D01*
X34932857Y54280620D01*
X34956666Y54304429D01*
X34290000Y54518715D02*
X34218571Y54494905D01*
X34194761Y54471096D01*
X34170952Y54423477D01*
X34170952Y54352048D01*
X34194761Y54304429D01*
X34218571Y54280620D01*
X34266190Y54256810D01*
X34456666Y54256810D01*
X34456666Y54756810D01*
X34290000Y54756810D01*
X34242380Y54733000D01*
X34218571Y54709191D01*
X34194761Y54661572D01*
X34194761Y54613953D01*
X34218571Y54566334D01*
X34242380Y54542524D01*
X34290000Y54518715D01*
X34456666Y54518715D01*
X33694761Y54256810D02*
X33980476Y54256810D01*
X33837619Y54256810D02*
X33837619Y54756810D01*
X33885238Y54685381D01*
X33932857Y54637762D01*
X33980476Y54613953D01*
X33385238Y54756810D02*
X33337619Y54756810D01*
X33290000Y54733000D01*
X33266190Y54709191D01*
X33242380Y54661572D01*
X33218571Y54566334D01*
X33218571Y54447286D01*
X33242380Y54352048D01*
X33266190Y54304429D01*
X33290000Y54280620D01*
X33337619Y54256810D01*
X33385238Y54256810D01*
X33432857Y54280620D01*
X33456666Y54304429D01*
X33480476Y54352048D01*
X33504285Y54447286D01*
X33504285Y54566334D01*
X33480476Y54661572D01*
X33456666Y54709191D01*
X33432857Y54733000D01*
X33385238Y54756810D01*
X33028095Y54709191D02*
X33004285Y54733000D01*
X32956666Y54756810D01*
X32837619Y54756810D01*
X32790000Y54733000D01*
X32766190Y54709191D01*
X32742380Y54661572D01*
X32742380Y54613953D01*
X32766190Y54542524D01*
X33051904Y54256810D01*
X32742380Y54256810D01*
X32194761Y54209191D02*
X32242380Y54233000D01*
X32290000Y54280620D01*
X32361428Y54352048D01*
X32409047Y54375858D01*
X32456666Y54375858D01*
X32432857Y54256810D02*
X32480476Y54280620D01*
X32528095Y54328239D01*
X32551904Y54423477D01*
X32551904Y54590143D01*
X32528095Y54685381D01*
X32480476Y54733000D01*
X32432857Y54756810D01*
X32337619Y54756810D01*
X32290000Y54733000D01*
X32242380Y54685381D01*
X32218571Y54590143D01*
X32218571Y54423477D01*
X32242380Y54328239D01*
X32290000Y54280620D01*
X32337619Y54256810D01*
X32432857Y54256810D01*
G04 #@! TO.C,M6*
X36051904Y37032429D02*
X36075714Y37008620D01*
X36147142Y36984810D01*
X36194761Y36984810D01*
X36266190Y37008620D01*
X36313809Y37056239D01*
X36337619Y37103858D01*
X36361428Y37199096D01*
X36361428Y37270524D01*
X36337619Y37365762D01*
X36313809Y37413381D01*
X36266190Y37461000D01*
X36194761Y37484810D01*
X36147142Y37484810D01*
X36075714Y37461000D01*
X36051904Y37437191D01*
X35742380Y37222905D02*
X35742380Y36984810D01*
X35909047Y37484810D02*
X35742380Y37222905D01*
X35575714Y37484810D01*
X35147142Y36984810D02*
X35432857Y36984810D01*
X35290000Y36984810D02*
X35290000Y37484810D01*
X35337619Y37413381D01*
X35385238Y37365762D01*
X35432857Y37341953D01*
X34694761Y37484810D02*
X34932857Y37484810D01*
X34956666Y37246715D01*
X34932857Y37270524D01*
X34885238Y37294334D01*
X34766190Y37294334D01*
X34718571Y37270524D01*
X34694761Y37246715D01*
X34670952Y37199096D01*
X34670952Y37080048D01*
X34694761Y37032429D01*
X34718571Y37008620D01*
X34766190Y36984810D01*
X34885238Y36984810D01*
X34932857Y37008620D01*
X34956666Y37032429D01*
X34290000Y37246715D02*
X34218571Y37222905D01*
X34194761Y37199096D01*
X34170952Y37151477D01*
X34170952Y37080048D01*
X34194761Y37032429D01*
X34218571Y37008620D01*
X34266190Y36984810D01*
X34456666Y36984810D01*
X34456666Y37484810D01*
X34290000Y37484810D01*
X34242380Y37461000D01*
X34218571Y37437191D01*
X34194761Y37389572D01*
X34194761Y37341953D01*
X34218571Y37294334D01*
X34242380Y37270524D01*
X34290000Y37246715D01*
X34456666Y37246715D01*
X33694761Y36984810D02*
X33980476Y36984810D01*
X33837619Y36984810D02*
X33837619Y37484810D01*
X33885238Y37413381D01*
X33932857Y37365762D01*
X33980476Y37341953D01*
X33385238Y37484810D02*
X33337619Y37484810D01*
X33290000Y37461000D01*
X33266190Y37437191D01*
X33242380Y37389572D01*
X33218571Y37294334D01*
X33218571Y37175286D01*
X33242380Y37080048D01*
X33266190Y37032429D01*
X33290000Y37008620D01*
X33337619Y36984810D01*
X33385238Y36984810D01*
X33432857Y37008620D01*
X33456666Y37032429D01*
X33480476Y37080048D01*
X33504285Y37175286D01*
X33504285Y37294334D01*
X33480476Y37389572D01*
X33456666Y37437191D01*
X33432857Y37461000D01*
X33385238Y37484810D01*
X33028095Y37437191D02*
X33004285Y37461000D01*
X32956666Y37484810D01*
X32837619Y37484810D01*
X32790000Y37461000D01*
X32766190Y37437191D01*
X32742380Y37389572D01*
X32742380Y37341953D01*
X32766190Y37270524D01*
X33051904Y36984810D01*
X32742380Y36984810D01*
X32194761Y36937191D02*
X32242380Y36961000D01*
X32290000Y37008620D01*
X32361428Y37080048D01*
X32409047Y37103858D01*
X32456666Y37103858D01*
X32432857Y36984810D02*
X32480476Y37008620D01*
X32528095Y37056239D01*
X32551904Y37151477D01*
X32551904Y37318143D01*
X32528095Y37413381D01*
X32480476Y37461000D01*
X32432857Y37484810D01*
X32337619Y37484810D01*
X32290000Y37461000D01*
X32242380Y37413381D01*
X32218571Y37318143D01*
X32218571Y37151477D01*
X32242380Y37056239D01*
X32290000Y37008620D01*
X32337619Y36984810D01*
X32432857Y36984810D01*
G04 #@! TO.C,M5*
X36051904Y45668429D02*
X36075714Y45644620D01*
X36147142Y45620810D01*
X36194761Y45620810D01*
X36266190Y45644620D01*
X36313809Y45692239D01*
X36337619Y45739858D01*
X36361428Y45835096D01*
X36361428Y45906524D01*
X36337619Y46001762D01*
X36313809Y46049381D01*
X36266190Y46097000D01*
X36194761Y46120810D01*
X36147142Y46120810D01*
X36075714Y46097000D01*
X36051904Y46073191D01*
X35742380Y45858905D02*
X35742380Y45620810D01*
X35909047Y46120810D02*
X35742380Y45858905D01*
X35575714Y46120810D01*
X35147142Y45620810D02*
X35432857Y45620810D01*
X35290000Y45620810D02*
X35290000Y46120810D01*
X35337619Y46049381D01*
X35385238Y46001762D01*
X35432857Y45977953D01*
X34694761Y46120810D02*
X34932857Y46120810D01*
X34956666Y45882715D01*
X34932857Y45906524D01*
X34885238Y45930334D01*
X34766190Y45930334D01*
X34718571Y45906524D01*
X34694761Y45882715D01*
X34670952Y45835096D01*
X34670952Y45716048D01*
X34694761Y45668429D01*
X34718571Y45644620D01*
X34766190Y45620810D01*
X34885238Y45620810D01*
X34932857Y45644620D01*
X34956666Y45668429D01*
X34290000Y45882715D02*
X34218571Y45858905D01*
X34194761Y45835096D01*
X34170952Y45787477D01*
X34170952Y45716048D01*
X34194761Y45668429D01*
X34218571Y45644620D01*
X34266190Y45620810D01*
X34456666Y45620810D01*
X34456666Y46120810D01*
X34290000Y46120810D01*
X34242380Y46097000D01*
X34218571Y46073191D01*
X34194761Y46025572D01*
X34194761Y45977953D01*
X34218571Y45930334D01*
X34242380Y45906524D01*
X34290000Y45882715D01*
X34456666Y45882715D01*
X33694761Y45620810D02*
X33980476Y45620810D01*
X33837619Y45620810D02*
X33837619Y46120810D01*
X33885238Y46049381D01*
X33932857Y46001762D01*
X33980476Y45977953D01*
X33385238Y46120810D02*
X33337619Y46120810D01*
X33290000Y46097000D01*
X33266190Y46073191D01*
X33242380Y46025572D01*
X33218571Y45930334D01*
X33218571Y45811286D01*
X33242380Y45716048D01*
X33266190Y45668429D01*
X33290000Y45644620D01*
X33337619Y45620810D01*
X33385238Y45620810D01*
X33432857Y45644620D01*
X33456666Y45668429D01*
X33480476Y45716048D01*
X33504285Y45811286D01*
X33504285Y45930334D01*
X33480476Y46025572D01*
X33456666Y46073191D01*
X33432857Y46097000D01*
X33385238Y46120810D01*
X33028095Y46073191D02*
X33004285Y46097000D01*
X32956666Y46120810D01*
X32837619Y46120810D01*
X32790000Y46097000D01*
X32766190Y46073191D01*
X32742380Y46025572D01*
X32742380Y45977953D01*
X32766190Y45906524D01*
X33051904Y45620810D01*
X32742380Y45620810D01*
X32194761Y45573191D02*
X32242380Y45597000D01*
X32290000Y45644620D01*
X32361428Y45716048D01*
X32409047Y45739858D01*
X32456666Y45739858D01*
X32432857Y45620810D02*
X32480476Y45644620D01*
X32528095Y45692239D01*
X32551904Y45787477D01*
X32551904Y45954143D01*
X32528095Y46049381D01*
X32480476Y46097000D01*
X32432857Y46120810D01*
X32337619Y46120810D01*
X32290000Y46097000D01*
X32242380Y46049381D01*
X32218571Y45954143D01*
X32218571Y45787477D01*
X32242380Y45692239D01*
X32290000Y45644620D01*
X32337619Y45620810D01*
X32432857Y45620810D01*
G04 #@! TO.C,TS7*
X-1083810Y57619048D02*
X-1583810Y57619048D01*
X-1226667Y57452381D01*
X-1583810Y57285715D01*
X-1083810Y57285715D01*
X-1131429Y56761905D02*
X-1107620Y56785715D01*
X-1083810Y56857143D01*
X-1083810Y56904762D01*
X-1107620Y56976191D01*
X-1155239Y57023810D01*
X-1202858Y57047620D01*
X-1298096Y57071429D01*
X-1369524Y57071429D01*
X-1464762Y57047620D01*
X-1512381Y57023810D01*
X-1560000Y56976191D01*
X-1583810Y56904762D01*
X-1583810Y56857143D01*
X-1560000Y56785715D01*
X-1536191Y56761905D01*
X-1083810Y56547620D02*
X-1583810Y56547620D01*
X-1583810Y56357143D01*
X-1560000Y56309524D01*
X-1536191Y56285715D01*
X-1488572Y56261905D01*
X-1417143Y56261905D01*
X-1369524Y56285715D01*
X-1345715Y56309524D01*
X-1321905Y56357143D01*
X-1321905Y56547620D01*
X-1083810Y56023810D02*
X-1083810Y55928572D01*
X-1107620Y55880953D01*
X-1131429Y55857143D01*
X-1202858Y55809524D01*
X-1298096Y55785715D01*
X-1488572Y55785715D01*
X-1536191Y55809524D01*
X-1560000Y55833334D01*
X-1583810Y55880953D01*
X-1583810Y55976191D01*
X-1560000Y56023810D01*
X-1536191Y56047620D01*
X-1488572Y56071429D01*
X-1369524Y56071429D01*
X-1321905Y56047620D01*
X-1298096Y56023810D01*
X-1274286Y55976191D01*
X-1274286Y55880953D01*
X-1298096Y55833334D01*
X-1321905Y55809524D01*
X-1369524Y55785715D01*
X-1369524Y55500000D02*
X-1393334Y55547620D01*
X-1417143Y55571429D01*
X-1464762Y55595239D01*
X-1488572Y55595239D01*
X-1536191Y55571429D01*
X-1560000Y55547620D01*
X-1583810Y55500000D01*
X-1583810Y55404762D01*
X-1560000Y55357143D01*
X-1536191Y55333334D01*
X-1488572Y55309524D01*
X-1464762Y55309524D01*
X-1417143Y55333334D01*
X-1393334Y55357143D01*
X-1369524Y55404762D01*
X-1369524Y55500000D01*
X-1345715Y55547620D01*
X-1321905Y55571429D01*
X-1274286Y55595239D01*
X-1179048Y55595239D01*
X-1131429Y55571429D01*
X-1107620Y55547620D01*
X-1083810Y55500000D01*
X-1083810Y55404762D01*
X-1107620Y55357143D01*
X-1131429Y55333334D01*
X-1179048Y55309524D01*
X-1274286Y55309524D01*
X-1321905Y55333334D01*
X-1345715Y55357143D01*
X-1369524Y55404762D01*
X-1583810Y55000000D02*
X-1583810Y54952381D01*
X-1560000Y54904762D01*
X-1536191Y54880953D01*
X-1488572Y54857143D01*
X-1393334Y54833334D01*
X-1274286Y54833334D01*
X-1179048Y54857143D01*
X-1131429Y54880953D01*
X-1107620Y54904762D01*
X-1083810Y54952381D01*
X-1083810Y55000000D01*
X-1107620Y55047620D01*
X-1131429Y55071429D01*
X-1179048Y55095239D01*
X-1274286Y55119048D01*
X-1393334Y55119048D01*
X-1488572Y55095239D01*
X-1536191Y55071429D01*
X-1560000Y55047620D01*
X-1583810Y55000000D01*
X-1417143Y54404762D02*
X-1083810Y54404762D01*
X-1607620Y54523810D02*
X-1250477Y54642858D01*
X-1250477Y54333334D01*
G04 #@! TO.C,TS6*
X35909047Y49938810D02*
X35909047Y50438810D01*
X35742380Y50081667D01*
X35575714Y50438810D01*
X35575714Y49938810D01*
X35051904Y49986429D02*
X35075714Y49962620D01*
X35147142Y49938810D01*
X35194761Y49938810D01*
X35266190Y49962620D01*
X35313809Y50010239D01*
X35337619Y50057858D01*
X35361428Y50153096D01*
X35361428Y50224524D01*
X35337619Y50319762D01*
X35313809Y50367381D01*
X35266190Y50415000D01*
X35194761Y50438810D01*
X35147142Y50438810D01*
X35075714Y50415000D01*
X35051904Y50391191D01*
X34837619Y49938810D02*
X34837619Y50438810D01*
X34647142Y50438810D01*
X34599523Y50415000D01*
X34575714Y50391191D01*
X34551904Y50343572D01*
X34551904Y50272143D01*
X34575714Y50224524D01*
X34599523Y50200715D01*
X34647142Y50176905D01*
X34837619Y50176905D01*
X34313809Y49938810D02*
X34218571Y49938810D01*
X34170952Y49962620D01*
X34147142Y49986429D01*
X34099523Y50057858D01*
X34075714Y50153096D01*
X34075714Y50343572D01*
X34099523Y50391191D01*
X34123333Y50415000D01*
X34170952Y50438810D01*
X34266190Y50438810D01*
X34313809Y50415000D01*
X34337619Y50391191D01*
X34361428Y50343572D01*
X34361428Y50224524D01*
X34337619Y50176905D01*
X34313809Y50153096D01*
X34266190Y50129286D01*
X34170952Y50129286D01*
X34123333Y50153096D01*
X34099523Y50176905D01*
X34075714Y50224524D01*
X33790000Y50224524D02*
X33837619Y50248334D01*
X33861428Y50272143D01*
X33885238Y50319762D01*
X33885238Y50343572D01*
X33861428Y50391191D01*
X33837619Y50415000D01*
X33790000Y50438810D01*
X33694761Y50438810D01*
X33647142Y50415000D01*
X33623333Y50391191D01*
X33599523Y50343572D01*
X33599523Y50319762D01*
X33623333Y50272143D01*
X33647142Y50248334D01*
X33694761Y50224524D01*
X33790000Y50224524D01*
X33837619Y50200715D01*
X33861428Y50176905D01*
X33885238Y50129286D01*
X33885238Y50034048D01*
X33861428Y49986429D01*
X33837619Y49962620D01*
X33790000Y49938810D01*
X33694761Y49938810D01*
X33647142Y49962620D01*
X33623333Y49986429D01*
X33599523Y50034048D01*
X33599523Y50129286D01*
X33623333Y50176905D01*
X33647142Y50200715D01*
X33694761Y50224524D01*
X33290000Y50438810D02*
X33242380Y50438810D01*
X33194761Y50415000D01*
X33170952Y50391191D01*
X33147142Y50343572D01*
X33123333Y50248334D01*
X33123333Y50129286D01*
X33147142Y50034048D01*
X33170952Y49986429D01*
X33194761Y49962620D01*
X33242380Y49938810D01*
X33290000Y49938810D01*
X33337619Y49962620D01*
X33361428Y49986429D01*
X33385238Y50034048D01*
X33409047Y50129286D01*
X33409047Y50248334D01*
X33385238Y50343572D01*
X33361428Y50391191D01*
X33337619Y50415000D01*
X33290000Y50438810D01*
X32694761Y50272143D02*
X32694761Y49938810D01*
X32813809Y50462620D02*
X32932857Y50105477D01*
X32623333Y50105477D01*
G04 #@! TO.C,TS5*
X34536190Y61679048D02*
X34036190Y61679048D01*
X34393333Y61512381D01*
X34036190Y61345715D01*
X34536190Y61345715D01*
X34488571Y60821905D02*
X34512380Y60845715D01*
X34536190Y60917143D01*
X34536190Y60964762D01*
X34512380Y61036191D01*
X34464761Y61083810D01*
X34417142Y61107620D01*
X34321904Y61131429D01*
X34250476Y61131429D01*
X34155238Y61107620D01*
X34107619Y61083810D01*
X34060000Y61036191D01*
X34036190Y60964762D01*
X34036190Y60917143D01*
X34060000Y60845715D01*
X34083809Y60821905D01*
X34536190Y60607620D02*
X34036190Y60607620D01*
X34036190Y60417143D01*
X34060000Y60369524D01*
X34083809Y60345715D01*
X34131428Y60321905D01*
X34202857Y60321905D01*
X34250476Y60345715D01*
X34274285Y60369524D01*
X34298095Y60417143D01*
X34298095Y60607620D01*
X34536190Y60083810D02*
X34536190Y59988572D01*
X34512380Y59940953D01*
X34488571Y59917143D01*
X34417142Y59869524D01*
X34321904Y59845715D01*
X34131428Y59845715D01*
X34083809Y59869524D01*
X34060000Y59893334D01*
X34036190Y59940953D01*
X34036190Y60036191D01*
X34060000Y60083810D01*
X34083809Y60107620D01*
X34131428Y60131429D01*
X34250476Y60131429D01*
X34298095Y60107620D01*
X34321904Y60083810D01*
X34345714Y60036191D01*
X34345714Y59940953D01*
X34321904Y59893334D01*
X34298095Y59869524D01*
X34250476Y59845715D01*
X34250476Y59560000D02*
X34226666Y59607620D01*
X34202857Y59631429D01*
X34155238Y59655239D01*
X34131428Y59655239D01*
X34083809Y59631429D01*
X34060000Y59607620D01*
X34036190Y59560000D01*
X34036190Y59464762D01*
X34060000Y59417143D01*
X34083809Y59393334D01*
X34131428Y59369524D01*
X34155238Y59369524D01*
X34202857Y59393334D01*
X34226666Y59417143D01*
X34250476Y59464762D01*
X34250476Y59560000D01*
X34274285Y59607620D01*
X34298095Y59631429D01*
X34345714Y59655239D01*
X34440952Y59655239D01*
X34488571Y59631429D01*
X34512380Y59607620D01*
X34536190Y59560000D01*
X34536190Y59464762D01*
X34512380Y59417143D01*
X34488571Y59393334D01*
X34440952Y59369524D01*
X34345714Y59369524D01*
X34298095Y59393334D01*
X34274285Y59417143D01*
X34250476Y59464762D01*
X34036190Y59060000D02*
X34036190Y59012381D01*
X34060000Y58964762D01*
X34083809Y58940953D01*
X34131428Y58917143D01*
X34226666Y58893334D01*
X34345714Y58893334D01*
X34440952Y58917143D01*
X34488571Y58940953D01*
X34512380Y58964762D01*
X34536190Y59012381D01*
X34536190Y59060000D01*
X34512380Y59107620D01*
X34488571Y59131429D01*
X34440952Y59155239D01*
X34345714Y59179048D01*
X34226666Y59179048D01*
X34131428Y59155239D01*
X34083809Y59131429D01*
X34060000Y59107620D01*
X34036190Y59060000D01*
X34202857Y58464762D02*
X34536190Y58464762D01*
X34012380Y58583810D02*
X34369523Y58702858D01*
X34369523Y58393334D01*
G04 #@! TO.C,TS4*
X23209047Y59183810D02*
X23209047Y59683810D01*
X23042380Y59326667D01*
X22875714Y59683810D01*
X22875714Y59183810D01*
X22351904Y59231429D02*
X22375714Y59207620D01*
X22447142Y59183810D01*
X22494761Y59183810D01*
X22566190Y59207620D01*
X22613809Y59255239D01*
X22637619Y59302858D01*
X22661428Y59398096D01*
X22661428Y59469524D01*
X22637619Y59564762D01*
X22613809Y59612381D01*
X22566190Y59660000D01*
X22494761Y59683810D01*
X22447142Y59683810D01*
X22375714Y59660000D01*
X22351904Y59636191D01*
X22137619Y59183810D02*
X22137619Y59683810D01*
X21947142Y59683810D01*
X21899523Y59660000D01*
X21875714Y59636191D01*
X21851904Y59588572D01*
X21851904Y59517143D01*
X21875714Y59469524D01*
X21899523Y59445715D01*
X21947142Y59421905D01*
X22137619Y59421905D01*
X21613809Y59183810D02*
X21518571Y59183810D01*
X21470952Y59207620D01*
X21447142Y59231429D01*
X21399523Y59302858D01*
X21375714Y59398096D01*
X21375714Y59588572D01*
X21399523Y59636191D01*
X21423333Y59660000D01*
X21470952Y59683810D01*
X21566190Y59683810D01*
X21613809Y59660000D01*
X21637619Y59636191D01*
X21661428Y59588572D01*
X21661428Y59469524D01*
X21637619Y59421905D01*
X21613809Y59398096D01*
X21566190Y59374286D01*
X21470952Y59374286D01*
X21423333Y59398096D01*
X21399523Y59421905D01*
X21375714Y59469524D01*
X21090000Y59469524D02*
X21137619Y59493334D01*
X21161428Y59517143D01*
X21185238Y59564762D01*
X21185238Y59588572D01*
X21161428Y59636191D01*
X21137619Y59660000D01*
X21090000Y59683810D01*
X20994761Y59683810D01*
X20947142Y59660000D01*
X20923333Y59636191D01*
X20899523Y59588572D01*
X20899523Y59564762D01*
X20923333Y59517143D01*
X20947142Y59493334D01*
X20994761Y59469524D01*
X21090000Y59469524D01*
X21137619Y59445715D01*
X21161428Y59421905D01*
X21185238Y59374286D01*
X21185238Y59279048D01*
X21161428Y59231429D01*
X21137619Y59207620D01*
X21090000Y59183810D01*
X20994761Y59183810D01*
X20947142Y59207620D01*
X20923333Y59231429D01*
X20899523Y59279048D01*
X20899523Y59374286D01*
X20923333Y59421905D01*
X20947142Y59445715D01*
X20994761Y59469524D01*
X20590000Y59683810D02*
X20542380Y59683810D01*
X20494761Y59660000D01*
X20470952Y59636191D01*
X20447142Y59588572D01*
X20423333Y59493334D01*
X20423333Y59374286D01*
X20447142Y59279048D01*
X20470952Y59231429D01*
X20494761Y59207620D01*
X20542380Y59183810D01*
X20590000Y59183810D01*
X20637619Y59207620D01*
X20661428Y59231429D01*
X20685238Y59279048D01*
X20709047Y59374286D01*
X20709047Y59493334D01*
X20685238Y59588572D01*
X20661428Y59636191D01*
X20637619Y59660000D01*
X20590000Y59683810D01*
X19994761Y59517143D02*
X19994761Y59183810D01*
X20113809Y59707620D02*
X20232857Y59350477D01*
X19923333Y59350477D01*
G04 #@! TO.C,TS3*
X35909047Y41302810D02*
X35909047Y41802810D01*
X35742380Y41445667D01*
X35575714Y41802810D01*
X35575714Y41302810D01*
X35051904Y41350429D02*
X35075714Y41326620D01*
X35147142Y41302810D01*
X35194761Y41302810D01*
X35266190Y41326620D01*
X35313809Y41374239D01*
X35337619Y41421858D01*
X35361428Y41517096D01*
X35361428Y41588524D01*
X35337619Y41683762D01*
X35313809Y41731381D01*
X35266190Y41779000D01*
X35194761Y41802810D01*
X35147142Y41802810D01*
X35075714Y41779000D01*
X35051904Y41755191D01*
X34837619Y41302810D02*
X34837619Y41802810D01*
X34647142Y41802810D01*
X34599523Y41779000D01*
X34575714Y41755191D01*
X34551904Y41707572D01*
X34551904Y41636143D01*
X34575714Y41588524D01*
X34599523Y41564715D01*
X34647142Y41540905D01*
X34837619Y41540905D01*
X34313809Y41302810D02*
X34218571Y41302810D01*
X34170952Y41326620D01*
X34147142Y41350429D01*
X34099523Y41421858D01*
X34075714Y41517096D01*
X34075714Y41707572D01*
X34099523Y41755191D01*
X34123333Y41779000D01*
X34170952Y41802810D01*
X34266190Y41802810D01*
X34313809Y41779000D01*
X34337619Y41755191D01*
X34361428Y41707572D01*
X34361428Y41588524D01*
X34337619Y41540905D01*
X34313809Y41517096D01*
X34266190Y41493286D01*
X34170952Y41493286D01*
X34123333Y41517096D01*
X34099523Y41540905D01*
X34075714Y41588524D01*
X33790000Y41588524D02*
X33837619Y41612334D01*
X33861428Y41636143D01*
X33885238Y41683762D01*
X33885238Y41707572D01*
X33861428Y41755191D01*
X33837619Y41779000D01*
X33790000Y41802810D01*
X33694761Y41802810D01*
X33647142Y41779000D01*
X33623333Y41755191D01*
X33599523Y41707572D01*
X33599523Y41683762D01*
X33623333Y41636143D01*
X33647142Y41612334D01*
X33694761Y41588524D01*
X33790000Y41588524D01*
X33837619Y41564715D01*
X33861428Y41540905D01*
X33885238Y41493286D01*
X33885238Y41398048D01*
X33861428Y41350429D01*
X33837619Y41326620D01*
X33790000Y41302810D01*
X33694761Y41302810D01*
X33647142Y41326620D01*
X33623333Y41350429D01*
X33599523Y41398048D01*
X33599523Y41493286D01*
X33623333Y41540905D01*
X33647142Y41564715D01*
X33694761Y41588524D01*
X33290000Y41802810D02*
X33242380Y41802810D01*
X33194761Y41779000D01*
X33170952Y41755191D01*
X33147142Y41707572D01*
X33123333Y41612334D01*
X33123333Y41493286D01*
X33147142Y41398048D01*
X33170952Y41350429D01*
X33194761Y41326620D01*
X33242380Y41302810D01*
X33290000Y41302810D01*
X33337619Y41326620D01*
X33361428Y41350429D01*
X33385238Y41398048D01*
X33409047Y41493286D01*
X33409047Y41612334D01*
X33385238Y41707572D01*
X33361428Y41755191D01*
X33337619Y41779000D01*
X33290000Y41802810D01*
X32694761Y41636143D02*
X32694761Y41302810D01*
X32813809Y41826620D02*
X32932857Y41469477D01*
X32623333Y41469477D01*
G04 #@! TO.C,TS2*
X13979047Y51583810D02*
X13979047Y52083810D01*
X13812380Y51726667D01*
X13645714Y52083810D01*
X13645714Y51583810D01*
X13121904Y51631429D02*
X13145714Y51607620D01*
X13217142Y51583810D01*
X13264761Y51583810D01*
X13336190Y51607620D01*
X13383809Y51655239D01*
X13407619Y51702858D01*
X13431428Y51798096D01*
X13431428Y51869524D01*
X13407619Y51964762D01*
X13383809Y52012381D01*
X13336190Y52060000D01*
X13264761Y52083810D01*
X13217142Y52083810D01*
X13145714Y52060000D01*
X13121904Y52036191D01*
X12907619Y51583810D02*
X12907619Y52083810D01*
X12717142Y52083810D01*
X12669523Y52060000D01*
X12645714Y52036191D01*
X12621904Y51988572D01*
X12621904Y51917143D01*
X12645714Y51869524D01*
X12669523Y51845715D01*
X12717142Y51821905D01*
X12907619Y51821905D01*
X12383809Y51583810D02*
X12288571Y51583810D01*
X12240952Y51607620D01*
X12217142Y51631429D01*
X12169523Y51702858D01*
X12145714Y51798096D01*
X12145714Y51988572D01*
X12169523Y52036191D01*
X12193333Y52060000D01*
X12240952Y52083810D01*
X12336190Y52083810D01*
X12383809Y52060000D01*
X12407619Y52036191D01*
X12431428Y51988572D01*
X12431428Y51869524D01*
X12407619Y51821905D01*
X12383809Y51798096D01*
X12336190Y51774286D01*
X12240952Y51774286D01*
X12193333Y51798096D01*
X12169523Y51821905D01*
X12145714Y51869524D01*
X11860000Y51869524D02*
X11907619Y51893334D01*
X11931428Y51917143D01*
X11955238Y51964762D01*
X11955238Y51988572D01*
X11931428Y52036191D01*
X11907619Y52060000D01*
X11860000Y52083810D01*
X11764761Y52083810D01*
X11717142Y52060000D01*
X11693333Y52036191D01*
X11669523Y51988572D01*
X11669523Y51964762D01*
X11693333Y51917143D01*
X11717142Y51893334D01*
X11764761Y51869524D01*
X11860000Y51869524D01*
X11907619Y51845715D01*
X11931428Y51821905D01*
X11955238Y51774286D01*
X11955238Y51679048D01*
X11931428Y51631429D01*
X11907619Y51607620D01*
X11860000Y51583810D01*
X11764761Y51583810D01*
X11717142Y51607620D01*
X11693333Y51631429D01*
X11669523Y51679048D01*
X11669523Y51774286D01*
X11693333Y51821905D01*
X11717142Y51845715D01*
X11764761Y51869524D01*
X11360000Y52083810D02*
X11312380Y52083810D01*
X11264761Y52060000D01*
X11240952Y52036191D01*
X11217142Y51988572D01*
X11193333Y51893334D01*
X11193333Y51774286D01*
X11217142Y51679048D01*
X11240952Y51631429D01*
X11264761Y51607620D01*
X11312380Y51583810D01*
X11360000Y51583810D01*
X11407619Y51607620D01*
X11431428Y51631429D01*
X11455238Y51679048D01*
X11479047Y51774286D01*
X11479047Y51893334D01*
X11455238Y51988572D01*
X11431428Y52036191D01*
X11407619Y52060000D01*
X11360000Y52083810D01*
X10764761Y51917143D02*
X10764761Y51583810D01*
X10883809Y52107620D02*
X11002857Y51750477D01*
X10693333Y51750477D01*
G04 #@! TO.C,TS1*
X14446047Y37365810D02*
X14446047Y37865810D01*
X14279380Y37508667D01*
X14112714Y37865810D01*
X14112714Y37365810D01*
X13588904Y37413429D02*
X13612714Y37389620D01*
X13684142Y37365810D01*
X13731761Y37365810D01*
X13803190Y37389620D01*
X13850809Y37437239D01*
X13874619Y37484858D01*
X13898428Y37580096D01*
X13898428Y37651524D01*
X13874619Y37746762D01*
X13850809Y37794381D01*
X13803190Y37842000D01*
X13731761Y37865810D01*
X13684142Y37865810D01*
X13612714Y37842000D01*
X13588904Y37818191D01*
X13374619Y37365810D02*
X13374619Y37865810D01*
X13184142Y37865810D01*
X13136523Y37842000D01*
X13112714Y37818191D01*
X13088904Y37770572D01*
X13088904Y37699143D01*
X13112714Y37651524D01*
X13136523Y37627715D01*
X13184142Y37603905D01*
X13374619Y37603905D01*
X12850809Y37365810D02*
X12755571Y37365810D01*
X12707952Y37389620D01*
X12684142Y37413429D01*
X12636523Y37484858D01*
X12612714Y37580096D01*
X12612714Y37770572D01*
X12636523Y37818191D01*
X12660333Y37842000D01*
X12707952Y37865810D01*
X12803190Y37865810D01*
X12850809Y37842000D01*
X12874619Y37818191D01*
X12898428Y37770572D01*
X12898428Y37651524D01*
X12874619Y37603905D01*
X12850809Y37580096D01*
X12803190Y37556286D01*
X12707952Y37556286D01*
X12660333Y37580096D01*
X12636523Y37603905D01*
X12612714Y37651524D01*
X12327000Y37651524D02*
X12374619Y37675334D01*
X12398428Y37699143D01*
X12422238Y37746762D01*
X12422238Y37770572D01*
X12398428Y37818191D01*
X12374619Y37842000D01*
X12327000Y37865810D01*
X12231761Y37865810D01*
X12184142Y37842000D01*
X12160333Y37818191D01*
X12136523Y37770572D01*
X12136523Y37746762D01*
X12160333Y37699143D01*
X12184142Y37675334D01*
X12231761Y37651524D01*
X12327000Y37651524D01*
X12374619Y37627715D01*
X12398428Y37603905D01*
X12422238Y37556286D01*
X12422238Y37461048D01*
X12398428Y37413429D01*
X12374619Y37389620D01*
X12327000Y37365810D01*
X12231761Y37365810D01*
X12184142Y37389620D01*
X12160333Y37413429D01*
X12136523Y37461048D01*
X12136523Y37556286D01*
X12160333Y37603905D01*
X12184142Y37627715D01*
X12231761Y37651524D01*
X11827000Y37865810D02*
X11779380Y37865810D01*
X11731761Y37842000D01*
X11707952Y37818191D01*
X11684142Y37770572D01*
X11660333Y37675334D01*
X11660333Y37556286D01*
X11684142Y37461048D01*
X11707952Y37413429D01*
X11731761Y37389620D01*
X11779380Y37365810D01*
X11827000Y37365810D01*
X11874619Y37389620D01*
X11898428Y37413429D01*
X11922238Y37461048D01*
X11946047Y37556286D01*
X11946047Y37675334D01*
X11922238Y37770572D01*
X11898428Y37818191D01*
X11874619Y37842000D01*
X11827000Y37865810D01*
X11231761Y37699143D02*
X11231761Y37365810D01*
X11350809Y37889620D02*
X11469857Y37532477D01*
X11160333Y37532477D01*
G04 #@! TO.C,Y2*
X19392380Y47794762D02*
X19416190Y47723334D01*
X19416190Y47604286D01*
X19392380Y47556667D01*
X19368571Y47532858D01*
X19320952Y47509048D01*
X19273333Y47509048D01*
X19225714Y47532858D01*
X19201904Y47556667D01*
X19178095Y47604286D01*
X19154285Y47699524D01*
X19130476Y47747143D01*
X19106666Y47770953D01*
X19059047Y47794762D01*
X19011428Y47794762D01*
X18963809Y47770953D01*
X18940000Y47747143D01*
X18916190Y47699524D01*
X18916190Y47580477D01*
X18940000Y47509048D01*
X19416190Y47294762D02*
X19082857Y47294762D01*
X18916190Y47294762D02*
X18940000Y47318572D01*
X18963809Y47294762D01*
X18940000Y47270953D01*
X18916190Y47294762D01*
X18963809Y47294762D01*
X18916190Y47128096D02*
X18916190Y46842381D01*
X19416190Y46985239D02*
X18916190Y46985239D01*
X19130476Y46604286D02*
X19106666Y46651905D01*
X19082857Y46675715D01*
X19035238Y46699524D01*
X19011428Y46699524D01*
X18963809Y46675715D01*
X18940000Y46651905D01*
X18916190Y46604286D01*
X18916190Y46509048D01*
X18940000Y46461429D01*
X18963809Y46437620D01*
X19011428Y46413810D01*
X19035238Y46413810D01*
X19082857Y46437620D01*
X19106666Y46461429D01*
X19130476Y46509048D01*
X19130476Y46604286D01*
X19154285Y46651905D01*
X19178095Y46675715D01*
X19225714Y46699524D01*
X19320952Y46699524D01*
X19368571Y46675715D01*
X19392380Y46651905D01*
X19416190Y46604286D01*
X19416190Y46509048D01*
X19392380Y46461429D01*
X19368571Y46437620D01*
X19320952Y46413810D01*
X19225714Y46413810D01*
X19178095Y46437620D01*
X19154285Y46461429D01*
X19130476Y46509048D01*
X19416190Y46175715D02*
X19416190Y46080477D01*
X19392380Y46032858D01*
X19368571Y46009048D01*
X19297142Y45961429D01*
X19201904Y45937620D01*
X19011428Y45937620D01*
X18963809Y45961429D01*
X18940000Y45985239D01*
X18916190Y46032858D01*
X18916190Y46128096D01*
X18940000Y46175715D01*
X18963809Y46199524D01*
X19011428Y46223334D01*
X19130476Y46223334D01*
X19178095Y46199524D01*
X19201904Y46175715D01*
X19225714Y46128096D01*
X19225714Y46032858D01*
X19201904Y45985239D01*
X19178095Y45961429D01*
X19130476Y45937620D01*
X18963809Y45747143D02*
X18940000Y45723334D01*
X18916190Y45675715D01*
X18916190Y45556667D01*
X18940000Y45509048D01*
X18963809Y45485239D01*
X19011428Y45461429D01*
X19059047Y45461429D01*
X19130476Y45485239D01*
X19416190Y45770953D01*
X19416190Y45461429D01*
X19082857Y45032858D02*
X19416190Y45032858D01*
X18892380Y45151905D02*
X19249523Y45270953D01*
X19249523Y44961429D01*
G04 #@! TO.C,Y1*
X14032666Y47354667D02*
X13794571Y47354667D01*
X14080285Y47211810D02*
X13913619Y47711810D01*
X13746952Y47211810D01*
X13413619Y47473715D02*
X13342190Y47449905D01*
X13318380Y47426096D01*
X13294571Y47378477D01*
X13294571Y47307048D01*
X13318380Y47259429D01*
X13342190Y47235620D01*
X13389809Y47211810D01*
X13580285Y47211810D01*
X13580285Y47711810D01*
X13413619Y47711810D01*
X13366000Y47688000D01*
X13342190Y47664191D01*
X13318380Y47616572D01*
X13318380Y47568953D01*
X13342190Y47521334D01*
X13366000Y47497524D01*
X13413619Y47473715D01*
X13580285Y47473715D01*
X13104095Y47235620D02*
X13032666Y47211810D01*
X12913619Y47211810D01*
X12866000Y47235620D01*
X12842190Y47259429D01*
X12818380Y47307048D01*
X12818380Y47354667D01*
X12842190Y47402286D01*
X12866000Y47426096D01*
X12913619Y47449905D01*
X13008857Y47473715D01*
X13056476Y47497524D01*
X13080285Y47521334D01*
X13104095Y47568953D01*
X13104095Y47616572D01*
X13080285Y47664191D01*
X13056476Y47688000D01*
X13008857Y47711810D01*
X12889809Y47711810D01*
X12818380Y47688000D01*
X12508857Y47711810D02*
X12461238Y47711810D01*
X12413619Y47688000D01*
X12389809Y47664191D01*
X12366000Y47616572D01*
X12342190Y47521334D01*
X12342190Y47402286D01*
X12366000Y47307048D01*
X12389809Y47259429D01*
X12413619Y47235620D01*
X12461238Y47211810D01*
X12508857Y47211810D01*
X12556476Y47235620D01*
X12580285Y47259429D01*
X12604095Y47307048D01*
X12627904Y47402286D01*
X12627904Y47521334D01*
X12604095Y47616572D01*
X12580285Y47664191D01*
X12556476Y47688000D01*
X12508857Y47711810D01*
X12175523Y47711810D02*
X11842190Y47711810D01*
X12056476Y47211810D01*
X11675523Y47354667D02*
X11437428Y47354667D01*
X11723142Y47211810D02*
X11556476Y47711810D01*
X11389809Y47211810D01*
X11223142Y47211810D02*
X11223142Y47711810D01*
X10723142Y47688000D02*
X10770761Y47711810D01*
X10842190Y47711810D01*
X10913619Y47688000D01*
X10961238Y47640381D01*
X10985047Y47592762D01*
X11008857Y47497524D01*
X11008857Y47426096D01*
X10985047Y47330858D01*
X10961238Y47283239D01*
X10913619Y47235620D01*
X10842190Y47211810D01*
X10794571Y47211810D01*
X10723142Y47235620D01*
X10699333Y47259429D01*
X10699333Y47426096D01*
X10794571Y47426096D01*
G04 #@! TD*
M02*
